M48
; DRILL file KiCad 10.0.5 date 2026-08-13T20:28:32
; FORMAT={-:-/ absolute / metric / decimal}
; #@! TF.CreationDate,2026-08-13T20:28:32+08:00
; #@! TF.GenerationSoftware,Kicad,Pcbnew,10.0.5
; #@! TF.FileFunction,Plated,1,2,PTH
FMAT,2
METRIC
; #@! TA.AperFunction,Plated,PTH,ViaDrill
T1C0.300
; #@! TA.AperFunction,Plated,PTH,ComponentDrill
T2C0.300
; #@! TA.AperFunction,Plated,PTH,ViaDrill
T3C0.400
; #@! TA.AperFunction,Plated,PTH,ViaDrill
T4C0.500
; #@! TA.AperFunction,Plated,PTH,ComponentDrill
T5C0.800
; #@! TA.AperFunction,Plated,PTH,ComponentDrill
T6C1.000
; #@! TA.AperFunction,Plated,PTH,ComponentDrill
T7C1.300
; #@! TA.AperFunction,Plated,PTH,ComponentDrill
T8C1.600
; #@! TA.AperFunction,Plated,PTH,ComponentDrill
T9C1.800
%
G90
G05
T1
X6.19Y-132.4
X6.27Y-17.917
X6.55Y-70.389
X7.54Y-16.559
X9.236Y-17.355
X9.438Y-10.742
X9.547Y-67.052
X10.019Y-15.703
X10.369Y-9.839
X11.35Y-16.921
X12.25Y-132.4
X12.4Y-72.6
X12.62Y-15.908
X13.407Y-83.812
X13.407Y-104.48
X14.275Y-15.857
X14.436Y-22.568
X14.95Y-69.822
X15.946Y-64.209
X16.021Y-14.399
X16.43Y-58.723
X17.024Y-14.27
X17.158Y-68.329
X17.257Y-27.203
X17.7Y-19.441
X18.063Y-14.079
X18.714Y-16.581
X20.19Y-132.4
X21.339Y-72.734
X21.349Y-14.079
X22.583Y-19.623
X25.216Y-64.835
X25.65Y-132.4
X26.4Y-72.6
X26.8Y-24.563
X27.407Y-87.059
X27.407Y-104.48
X27.448Y-15.883
X28.219Y-71.117
X28.647Y-15.264
X29.872Y-70.042
X30.437Y-38.567
X30.811Y-73.569
X31.596Y-14.534
X31.78Y-4.1
X32.02Y-21.371
X33.1Y-9.1
X33.911Y-33.226
X34.19Y-132.4
X34.55Y-70.987
X34.872Y-4.856
X36.4Y-4.1
X36.7Y-14.4
X37.25Y-67.068
X38.303Y-9.839
X38.395Y-46.01
X38.962Y-104.162
X39.024Y-10.287
X39.4Y-9.0
X39.65Y-132.4
X41.344Y-9.648
X42.0Y-43.587
X43.75Y-4.743
X43.886Y-66.704
X45.299Y-9.825
X45.438Y-76.111
X46.95Y-6.7
X48.19Y-132.4
X48.55Y-70.859
X48.704Y-11.053
X49.0Y-11.909
X49.333Y-10.28
X49.42Y-5.089
X51.371Y-47.993
X51.75Y-8.709
X52.878Y-67.357
X53.65Y-132.4
X53.909Y-4.446
X54.32Y-58.723
X54.32Y-68.097
X54.4Y-72.6
X54.98Y-57.706
X54.98Y-64.585
X55.407Y-83.059
X55.407Y-104.48
X55.63Y-58.196
X56.28Y-57.432
X56.525Y-64.593
X56.95Y-70.427
X57.523Y-67.167
X57.744Y-11.149
X62.0Y-46.226
X62.19Y-132.4
X63.483Y-67.27
X64.2Y-33.4
X65.64Y-17.9
X66.951Y-8.709
X67.104Y-69.127
X67.153Y-90.296
X67.553Y-87.156
X67.65Y-132.4
X67.7Y-34.936
X68.037Y-62.495
X69.25Y-87.95
X69.407Y-104.48
X69.792Y-70.996
X70.5Y-39.8
X70.95Y-70.98
X71.0Y-46.439
X71.859Y-68.929
X72.643Y-62.535
X73.72Y-56.866
X73.883Y-34.936
X74.37Y-57.39
X74.37Y-63.937
X75.02Y-56.54
X75.02Y-64.566
X75.023Y-43.071
X75.063Y-67.936
X75.67Y-67.352
X75.68Y-37.226
X76.19Y-132.4
X76.469Y-39.336
X76.557Y-58.345
X76.98Y-61.623
X77.63Y-58.256
X77.671Y-56.317
X77.72Y-67.356
X78.18Y-34.4
X78.28Y-57.661
X78.298Y-63.457
X78.75Y-44.388
X79.606Y-31.833
X79.75Y-37.2
X80.381Y-61.377
X80.962Y-103.048
X81.65Y-132.4
X82.829Y-63.39
X83.602Y-58.972
X84.95Y-70.676
X85.171Y-57.843
X85.171Y-65.213
X85.697Y-94.165
X87.406Y-67.174
X88.026Y-63.127
X89.777Y-65.825
X91.884Y-51.364
X93.719Y-41.956
X95.974Y-74.112
X96.25Y-101.88
X96.25Y-104.65
X100.512Y-14.536
T2
X77.5Y-38.009
X77.5Y-39.009
X78.5Y-38.009
X78.5Y-39.009
T3
X5.0Y-142.0
X5.313Y-40.835
X6.72Y-103.18
X7.1Y-90.6
X9.76Y-118.0
X11.5Y-108.8
X14.72Y-79.2
X14.96Y-90.65
X14.96Y-119.2
X20.72Y-103.18
X21.1Y-90.6
X23.76Y-118.0
X25.5Y-108.8
X28.7Y-48.465
X28.72Y-79.2
X28.96Y-90.4
X28.96Y-119.2
X30.0Y-142.0
X34.72Y-103.18
X35.1Y-90.6
X37.76Y-118.0
X39.5Y-108.8
X40.755Y-46.143
X42.72Y-79.2
X42.96Y-86.7
X42.96Y-119.2
X48.222Y-38.32
X48.72Y-103.18
X49.1Y-90.6
X49.755Y-50.643
X51.3Y-26.849
X51.76Y-118.0
X53.5Y-108.8
X54.645Y-25.131
X55.0Y-142.0
X56.72Y-79.2
X56.96Y-90.4
X56.96Y-119.2
X57.208Y-51.251
X57.978Y-57.684
X62.72Y-103.18
X63.1Y-90.6
X63.3Y-11.0
X63.372Y-22.735
X65.424Y-42.305
X65.76Y-82.7
X65.76Y-97.5
X65.76Y-118.0
X66.3Y-36.901
X67.406Y-21.632
X67.5Y-108.8
X70.722Y-56.32
X70.96Y-90.65
X70.96Y-119.2
X73.8Y-77.5
X76.72Y-103.18
X77.1Y-90.6
X79.76Y-118.0
X80.0Y-142.0
X80.855Y-29.372
X81.104Y-42.75
X81.465Y-60.988
X81.5Y-108.8
X84.72Y-79.2
X84.96Y-119.2
X85.042Y-46.662
X85.784Y-56.545
X86.85Y-90.65
X87.372Y-57.295
X87.77Y-69.184
X92.622Y-35.973
X92.95Y-105.66
X92.95Y-108.17
X93.0Y-103.77
X94.6Y-87.69
X94.75Y-46.279
X99.5Y-25.203
X105.0Y-3.0
X105.0Y-142.0
X105.4Y-45.7
X106.3Y-45.7
T4
X13.4Y-129.035
X15.2Y-129.035
X26.5Y-129.035
X28.3Y-129.035
X35.68Y-53.753
X40.5Y-129.035
X42.3Y-129.035
X49.68Y-53.753
X54.5Y-129.035
X56.3Y-129.035
X63.68Y-53.753
X68.5Y-129.035
X70.3Y-129.035
X77.68Y-53.753
X82.5Y-129.035
X84.3Y-129.035
X88.3Y-97.7
X88.3Y-99.7
X88.3Y-103.0
X88.3Y-109.0
X88.3Y-115.0
X88.3Y-121.0
X88.3Y-127.0
X88.3Y-130.4
X89.6Y-97.7
X89.6Y-99.7
X89.6Y-103.0
X89.6Y-109.0
X89.6Y-115.0
X89.6Y-121.0
X89.6Y-127.0
X89.6Y-130.4
X91.68Y-53.753
X99.0Y-53.553
X102.0Y-53.553
X102.0Y-113.121
X104.8Y-98.4
X104.8Y-100.4
X105.0Y-53.553
X105.0Y-113.121
X106.4Y-98.4
X106.4Y-100.4
X108.0Y-53.553
T6
X84.25Y-4.0
X86.75Y-4.0
X89.25Y-4.0
X91.75Y-4.0
T7
X68.92Y-3.0
X71.46Y-3.0
X74.0Y-3.0
X76.54Y-3.0
X79.08Y-3.0
T8
X6.19Y-137.0
X10.0Y-137.0
X13.81Y-137.0
X20.19Y-137.0
X24.0Y-137.0
X27.81Y-137.0
X34.19Y-137.0
X38.0Y-137.0
X41.81Y-137.0
X48.19Y-137.0
X52.0Y-137.0
X55.81Y-137.0
X62.19Y-137.0
X66.0Y-137.0
X69.81Y-137.0
X76.19Y-137.0
X80.0Y-137.0
X83.81Y-137.0
X95.19Y-137.0
X102.81Y-137.0
T9
X92.26Y-123.805
X92.26Y-127.205
X105.74Y-123.805
X105.74Y-127.205
T5
X29.67Y-1.73G85X29.67Y-1.33
G05
X29.67Y-6.06G85X29.67Y-5.36
G05
X38.33Y-1.73G85X38.33Y-1.33
G05
X38.33Y-6.06G85X38.33Y-5.36
G05
M30
