%TF.GenerationSoftware,KiCad,Pcbnew,10.0.5*%
%TF.CreationDate,2026-08-12T10:49:37+08:00*%
%TF.ProjectId,cct-main,6363742d-6d61-4696-9e2e-6b696361645f,rev?*%
%TF.SameCoordinates,Original*%
%TF.FileFunction,Soldermask,Top*%
%TF.FilePolarity,Negative*%
%FSLAX46Y46*%
G04 Gerber Fmt 4.6, Leading zero omitted, Abs format (unit mm)*
G04 Created by KiCad (PCBNEW 10.0.5) date 2026-08-12 10:49:37*
%MOMM*%
%LPD*%
G01*
G04 APERTURE LIST*
G04 Aperture macros list*
%AMFreePoly0*
4,1,17,0.297009,0.647174,0.299923,0.640141,0.299923,-0.639988,0.297009,-0.647021,0.289976,-0.649935,0.000318,-0.649935,-0.000450,-0.650088,-0.290103,-0.650088,-0.297136,-0.647174,-0.300050,-0.640141,-0.300050,0.639988,-0.297136,0.647021,-0.290103,0.649935,-0.000445,0.649935,0.000323,0.650088,0.289976,0.650088,0.297009,0.647174,0.297009,0.647174,$1*%
%AMFreePoly1*
4,1,17,0.297162,0.647021,0.300076,0.639988,0.300076,-0.640090,0.297162,-0.647123,0.290129,-0.650037,0.000187,-0.650037,0.000062,-0.650062,-0.289951,-0.650062,-0.296984,-0.647148,-0.299898,-0.640115,-0.299898,0.639963,-0.296984,0.646996,-0.289951,0.649910,-0.000009,0.649910,0.000116,0.649935,0.290129,0.649935,0.297162,0.647021,0.297162,0.647021,$1*%
%AMFreePoly2*
4,1,13,0.296958,0.647174,0.299872,0.640141,0.299872,-0.639937,0.296958,-0.646970,0.289925,-0.649884,-0.290205,-0.649884,-0.297238,-0.646970,-0.300152,-0.639937,-0.300152,0.640141,-0.297238,0.647174,-0.290205,0.650088,0.289925,0.650088,0.296958,0.647174,0.296958,0.647174,$1*%
G04 Aperture macros list end*
%ADD10R,1.635000X2.700000*%
%ADD11R,0.806000X0.864000*%
%ADD12R,1.000000X1.400000*%
%ADD13C,2.500000*%
%ADD14R,2.047000X2.192000*%
%ADD15R,0.800000X0.900000*%
%ADD16R,3.000000X3.000000*%
%ADD17C,3.000000*%
%ADD18R,1.037000X0.532000*%
%ADD19R,3.800000X3.000000*%
%ADD20R,4.600000X1.600000*%
%ADD21R,0.800000X0.800000*%
%ADD22R,1.283000X3.456000*%
%ADD23R,1.410000X1.350000*%
%ADD24R,0.900000X0.800000*%
%ADD25R,1.600000X3.000000*%
%ADD26R,6.000000X6.500000*%
%ADD27R,0.300000X1.300000*%
%ADD28R,1.000000X0.650000*%
%ADD29R,0.910000X1.220000*%
%ADD30C,1.500000*%
%ADD31R,0.979000X2.409000*%
%ADD32R,5.548000X5.711000*%
%ADD33O,0.364000X1.742000*%
%ADD34C,3.200000*%
%ADD35R,2.900000X5.400000*%
%ADD36C,2.000000*%
%ADD37R,1.000000X0.750000*%
%ADD38R,1.700000X1.700000*%
%ADD39C,1.700000*%
%ADD40R,0.950000X2.100000*%
%ADD41R,2.100000X0.950000*%
%ADD42R,0.900000X0.900000*%
%ADD43C,0.610000*%
%ADD44O,0.574000X2.038000*%
%ADD45R,2.000000X2.000000*%
%ADD46C,0.600000*%
%ADD47O,1.200000X2.000000*%
%ADD48O,1.200000X1.800000*%
%ADD49FreePoly0,0.000000*%
%ADD50FreePoly1,0.000000*%
%ADD51FreePoly2,0.000000*%
%ADD52R,0.864000X0.806000*%
%ADD53R,1.407000X3.499000*%
%ADD54R,2.500000X1.100000*%
%ADD55R,2.340000X3.600000*%
%ADD56R,0.700000X1.600000*%
%ADD57R,1.000000X2.300000*%
%ADD58O,0.560000X1.745000*%
G04 APERTURE END LIST*
D10*
%TO.C,C32*%
X20480000Y-98507000D03*
X23520000Y-98507000D03*
%TD*%
D11*
%TO.C,R18*%
X25050000Y-76125000D03*
X26550000Y-76125000D03*
%TD*%
D12*
%TO.C,LED8*%
X41050000Y-80560000D03*
X38950000Y-80560000D03*
%TD*%
D13*
%TO.C,J7*%
X89810000Y-8000000D03*
X86000000Y-8000000D03*
X82190000Y-8000000D03*
%TD*%
D11*
%TO.C,R24*%
X39050000Y-76125000D03*
X40550000Y-76125000D03*
%TD*%
%TO.C,R58*%
X54250000Y-135000000D03*
X55750000Y-135000000D03*
%TD*%
D14*
%TO.C,D13*%
X53040000Y-23795000D03*
X57760000Y-23795000D03*
%TD*%
D15*
%TO.C,C40*%
X42300000Y-111037000D03*
X43700000Y-111037000D03*
%TD*%
D12*
%TO.C,LED7*%
X21050000Y-77960000D03*
X18950000Y-77960000D03*
%TD*%
D13*
%TO.C,F1*%
X4260000Y-17795000D03*
X4260000Y-21195000D03*
X17740000Y-17795000D03*
X17740000Y-21195000D03*
%TD*%
D12*
%TO.C,LED5*%
X14650000Y-80560000D03*
X12550000Y-80560000D03*
%TD*%
D14*
%TO.C,D20*%
X72240000Y-60745000D03*
X76960000Y-60745000D03*
%TD*%
D11*
%TO.C,R40*%
X81050000Y-73055000D03*
X82550000Y-73055000D03*
%TD*%
%TO.C,R49*%
X103450000Y-76125000D03*
X104950000Y-76125000D03*
%TD*%
D14*
%TO.C,D15*%
X53040000Y-56315000D03*
X57760000Y-56315000D03*
%TD*%
D10*
%TO.C,C36*%
X34480000Y-117507000D03*
X37520000Y-117507000D03*
%TD*%
D11*
%TO.C,R51*%
X97650000Y-83560000D03*
X99150000Y-83560000D03*
%TD*%
D16*
%TO.C,J1*%
X14810000Y-8000000D03*
D17*
X7190000Y-8000000D03*
%TD*%
D18*
%TO.C,Q5*%
X75100000Y-126392000D03*
X75100000Y-124492000D03*
X72900000Y-125442000D03*
%TD*%
D11*
%TO.C,R62*%
X31250000Y-97587000D03*
X32750000Y-97587000D03*
%TD*%
D19*
%TO.C,F5*%
X68600000Y-18665000D03*
X75400000Y-18665000D03*
%TD*%
D20*
%TO.C,C3*%
X36280000Y-91247000D03*
X43720000Y-91247000D03*
%TD*%
D21*
%TO.C,LED1*%
X57750000Y-97677000D03*
X56250000Y-97677000D03*
%TD*%
D11*
%TO.C,R22*%
X39050000Y-73055000D03*
X40550000Y-73055000D03*
%TD*%
D20*
%TO.C,C18*%
X39280000Y-67515000D03*
X46720000Y-67515000D03*
%TD*%
%TO.C,C35*%
X56280000Y-107007000D03*
X63720000Y-107007000D03*
%TD*%
D22*
%TO.C,RS1*%
X7930000Y-46315000D03*
X14070000Y-46315000D03*
%TD*%
D11*
%TO.C,R48*%
X95050000Y-76125000D03*
X96550000Y-76125000D03*
%TD*%
%TO.C,R44*%
X45650000Y-83560000D03*
X47150000Y-83560000D03*
%TD*%
D12*
%TO.C,LED13*%
X99450000Y-77960000D03*
X97350000Y-77960000D03*
%TD*%
D14*
%TO.C,D27*%
X95040000Y-56315000D03*
X99760000Y-56315000D03*
%TD*%
D12*
%TO.C,LED12*%
X97810000Y-80560000D03*
X95710000Y-80560000D03*
%TD*%
D23*
%TO.C,C42*%
X45000000Y-132500000D03*
X47000000Y-132500000D03*
%TD*%
D11*
%TO.C,R50*%
X94450000Y-83560000D03*
X95950000Y-83560000D03*
%TD*%
D24*
%TO.C,C15*%
X64000000Y-80375000D03*
X64000000Y-78975000D03*
%TD*%
D11*
%TO.C,R20*%
X3250000Y-83560000D03*
X4750000Y-83560000D03*
%TD*%
D14*
%TO.C,D21*%
X81040000Y-23795000D03*
X85760000Y-23795000D03*
%TD*%
D25*
%TO.C,Q12*%
X55720000Y-52350000D03*
D26*
X58000000Y-45770000D03*
D25*
X60280000Y-52350000D03*
%TD*%
D19*
%TO.C,F7*%
X95700000Y-18665000D03*
X102500000Y-18665000D03*
%TD*%
D27*
%TO.C,U1*%
X8000000Y-54200000D03*
X8500000Y-54200000D03*
X9000000Y-54200000D03*
X9500000Y-54200000D03*
X10000000Y-54200000D03*
X10000000Y-49500000D03*
X9500000Y-49500000D03*
X9000000Y-49500000D03*
X8500000Y-49500000D03*
X8000000Y-49500000D03*
%TD*%
D15*
%TO.C,C25*%
X84300000Y-73155000D03*
X85700000Y-73155000D03*
%TD*%
D25*
%TO.C,Q9*%
X41720000Y-40520000D03*
D26*
X44000000Y-33940000D03*
D25*
X46280000Y-40520000D03*
%TD*%
D23*
%TO.C,C12*%
X68000000Y-97827000D03*
X70000000Y-97827000D03*
%TD*%
D28*
%TO.C,Q3*%
X8000000Y-43125000D03*
X8000000Y-41225000D03*
X6000000Y-42175000D03*
%TD*%
D11*
%TO.C,R4*%
X64250000Y-97587000D03*
X65750000Y-97587000D03*
%TD*%
D14*
%TO.C,D23*%
X81040000Y-56315000D03*
X85760000Y-56315000D03*
%TD*%
D11*
%TO.C,R38*%
X39250000Y-83560000D03*
X40750000Y-83560000D03*
%TD*%
D29*
%TO.C,DZ1*%
X5360000Y-37095000D03*
X8640000Y-37095000D03*
%TD*%
D15*
%TO.C,C31*%
X66300000Y-132500000D03*
X67700000Y-132500000D03*
%TD*%
D28*
%TO.C,Q6*%
X78000000Y-80715000D03*
X78000000Y-78815000D03*
X76000000Y-79765000D03*
%TD*%
D11*
%TO.C,R27*%
X12850000Y-83560000D03*
X14350000Y-83560000D03*
%TD*%
%TO.C,R52*%
X11250000Y-97587000D03*
X12750000Y-97587000D03*
%TD*%
D30*
%TO.C,TP5*%
X21360000Y-59353150D03*
%TD*%
D15*
%TO.C,C29*%
X58300000Y-132500000D03*
X59700000Y-132500000D03*
%TD*%
D14*
%TO.C,D3*%
X39640000Y-117817000D03*
X44360000Y-117817000D03*
%TD*%
D20*
%TO.C,C4*%
X50280000Y-91247000D03*
X57720000Y-91247000D03*
%TD*%
D14*
%TO.C,D9*%
X39040000Y-23795000D03*
X43760000Y-23795000D03*
%TD*%
D31*
%TO.C,Q1*%
X9890000Y-25894500D03*
D32*
X7600000Y-32734500D03*
D31*
X5310000Y-25894500D03*
%TD*%
D13*
%TO.C,J8*%
X103810000Y-8000000D03*
X100000000Y-8000000D03*
X96190000Y-8000000D03*
%TD*%
D14*
%TO.C,D6*%
X30240000Y-28225000D03*
X34960000Y-28225000D03*
%TD*%
D11*
%TO.C,R33*%
X19250000Y-83560000D03*
X20750000Y-83560000D03*
%TD*%
D14*
%TO.C,D1*%
X8640000Y-57315000D03*
X13360000Y-57315000D03*
%TD*%
D11*
%TO.C,R3*%
X13750000Y-39335000D03*
X15250000Y-39335000D03*
%TD*%
D12*
%TO.C,LED11*%
X93050000Y-80560000D03*
X90950000Y-80560000D03*
%TD*%
D15*
%TO.C,C17*%
X28300000Y-73155000D03*
X29700000Y-73155000D03*
%TD*%
D20*
%TO.C,C1*%
X8280000Y-91247000D03*
X15720000Y-91247000D03*
%TD*%
D33*
%TO.C,U6*%
X31070000Y-84771000D03*
X31720000Y-84771000D03*
X32370000Y-84771000D03*
X33020000Y-84771000D03*
X33680000Y-84771000D03*
X34330000Y-84771000D03*
X34980000Y-84771000D03*
X35630000Y-84771000D03*
X36280000Y-84771000D03*
X36930000Y-84771000D03*
X36930000Y-79031000D03*
X36280000Y-79031000D03*
X35630000Y-79031000D03*
X34980000Y-79031000D03*
X34330000Y-79031000D03*
X33680000Y-79031000D03*
X33020000Y-79031000D03*
X32370000Y-79031000D03*
X31720000Y-79031000D03*
X31070000Y-79031000D03*
%TD*%
D25*
%TO.C,Q7*%
X27720000Y-40520000D03*
D26*
X30000000Y-33940000D03*
D25*
X32280000Y-40520000D03*
%TD*%
D14*
%TO.C,D18*%
X72240000Y-28225000D03*
X76960000Y-28225000D03*
%TD*%
D23*
%TO.C,C41*%
X48000000Y-124812000D03*
X50000000Y-124812000D03*
%TD*%
D34*
%TO.C,H1*%
X4000000Y-66000000D03*
%TD*%
D12*
%TO.C,LED9*%
X42690000Y-77960000D03*
X40590000Y-77960000D03*
%TD*%
D11*
%TO.C,R61*%
X66250000Y-135000000D03*
X67750000Y-135000000D03*
%TD*%
%TO.C,R23*%
X47450000Y-73055000D03*
X48950000Y-73055000D03*
%TD*%
D14*
%TO.C,D17*%
X67040000Y-23795000D03*
X71760000Y-23795000D03*
%TD*%
D11*
%TO.C,R11*%
X77250000Y-116587000D03*
X78750000Y-116587000D03*
%TD*%
D14*
%TO.C,D19*%
X67040000Y-56315000D03*
X71760000Y-56315000D03*
%TD*%
D35*
%TO.C,L1*%
X8550000Y-109027000D03*
X19450000Y-109027000D03*
%TD*%
D25*
%TO.C,Q11*%
X55720000Y-40520000D03*
D26*
X58000000Y-33940000D03*
D25*
X60280000Y-40520000D03*
%TD*%
D11*
%TO.C,R15*%
X85250000Y-78895000D03*
X86750000Y-78895000D03*
%TD*%
%TO.C,R46*%
X95050000Y-73055000D03*
X96550000Y-73055000D03*
%TD*%
%TO.C,R63*%
X30250000Y-116587000D03*
X31750000Y-116587000D03*
%TD*%
D15*
%TO.C,C23*%
X70300000Y-73155000D03*
X71700000Y-73155000D03*
%TD*%
%TO.C,C43*%
X45300000Y-135000000D03*
X46700000Y-135000000D03*
%TD*%
D11*
%TO.C,R21*%
X6450000Y-83560000D03*
X7950000Y-83560000D03*
%TD*%
D13*
%TO.C,J5*%
X61810000Y-8000000D03*
X58000000Y-8000000D03*
X54190000Y-8000000D03*
%TD*%
D15*
%TO.C,C27*%
X98300000Y-73155000D03*
X99700000Y-73155000D03*
%TD*%
D11*
%TO.C,R60*%
X62250000Y-135000000D03*
X63750000Y-135000000D03*
%TD*%
%TO.C,R16*%
X25050000Y-73055000D03*
X26550000Y-73055000D03*
%TD*%
D15*
%TO.C,C28*%
X54300000Y-132500000D03*
X55700000Y-132500000D03*
%TD*%
D19*
%TO.C,F2*%
X26600000Y-18665000D03*
X33400000Y-18665000D03*
%TD*%
D11*
%TO.C,R41*%
X89450000Y-73055000D03*
X90950000Y-73055000D03*
%TD*%
D14*
%TO.C,D28*%
X100240000Y-60745000D03*
X104960000Y-60745000D03*
%TD*%
D11*
%TO.C,R45*%
X91250000Y-83560000D03*
X92750000Y-83560000D03*
%TD*%
%TO.C,R32*%
X16050000Y-83560000D03*
X17550000Y-83560000D03*
%TD*%
D12*
%TO.C,LED2*%
X5050000Y-80560000D03*
X2950000Y-80560000D03*
%TD*%
D14*
%TO.C,D4*%
X39640000Y-125802000D03*
X44360000Y-125802000D03*
%TD*%
D36*
%TO.C,J11*%
X41080000Y-142000000D03*
X38540000Y-142000000D03*
X36000000Y-142000000D03*
X33460000Y-142000000D03*
X30920000Y-142000000D03*
%TD*%
D37*
%TO.C,SW2*%
X39000000Y-97677000D03*
X45000000Y-97677000D03*
X39000000Y-101377000D03*
X45000000Y-101377000D03*
%TD*%
D11*
%TO.C,R43*%
X89450000Y-76125000D03*
X90950000Y-76125000D03*
%TD*%
%TO.C,R66*%
X38250000Y-103437000D03*
X39750000Y-103437000D03*
%TD*%
D14*
%TO.C,D5*%
X25040000Y-23795000D03*
X29760000Y-23795000D03*
%TD*%
D11*
%TO.C,R5*%
X73250000Y-97587000D03*
X74750000Y-97587000D03*
%TD*%
%TO.C,R64*%
X30250000Y-124572000D03*
X31750000Y-124572000D03*
%TD*%
%TO.C,R34*%
X67050000Y-73055000D03*
X68550000Y-73055000D03*
%TD*%
%TO.C,R2*%
X13750000Y-36825000D03*
X15250000Y-36825000D03*
%TD*%
D38*
%TO.C,J10*%
X25750000Y-141000000D03*
D39*
X23250000Y-141000000D03*
X20750000Y-141000000D03*
X18250000Y-141000000D03*
%TD*%
D11*
%TO.C,R54*%
X54250000Y-137500000D03*
X55750000Y-137500000D03*
%TD*%
%TO.C,R53*%
X15250000Y-97587000D03*
X16750000Y-97587000D03*
%TD*%
D25*
%TO.C,Q8*%
X27720000Y-52350000D03*
D26*
X30000000Y-45770000D03*
D25*
X32280000Y-52350000D03*
%TD*%
D11*
%TO.C,R39*%
X42450000Y-83560000D03*
X43950000Y-83560000D03*
%TD*%
D15*
%TO.C,C21*%
X56300000Y-73155000D03*
X57700000Y-73155000D03*
%TD*%
D11*
%TO.C,R19*%
X33450000Y-76125000D03*
X34950000Y-76125000D03*
%TD*%
D14*
%TO.C,D24*%
X86240000Y-60745000D03*
X90960000Y-60745000D03*
%TD*%
D11*
%TO.C,R42*%
X81050000Y-76125000D03*
X82550000Y-76125000D03*
%TD*%
D24*
%TO.C,C14*%
X26000000Y-80375000D03*
X26000000Y-78975000D03*
%TD*%
D37*
%TO.C,SW1*%
X48000000Y-97677000D03*
X54000000Y-97677000D03*
X48000000Y-101377000D03*
X54000000Y-101377000D03*
%TD*%
D11*
%TO.C,R55*%
X58250000Y-137500000D03*
X59750000Y-137500000D03*
%TD*%
%TO.C,R56*%
X62250000Y-137500000D03*
X63750000Y-137500000D03*
%TD*%
D34*
%TO.C,H4*%
X106000000Y-115000000D03*
%TD*%
D18*
%TO.C,Q4*%
X75100000Y-118407000D03*
X75100000Y-116507000D03*
X72900000Y-117457000D03*
%TD*%
D15*
%TO.C,C19*%
X42300000Y-73155000D03*
X43700000Y-73155000D03*
%TD*%
D20*
%TO.C,C20*%
X53280000Y-67515000D03*
X60720000Y-67515000D03*
%TD*%
D11*
%TO.C,R25*%
X47450000Y-76125000D03*
X48950000Y-76125000D03*
%TD*%
D15*
%TO.C,C13*%
X57300000Y-116687000D03*
X58700000Y-116687000D03*
%TD*%
D11*
%TO.C,R59*%
X58250000Y-135000000D03*
X59750000Y-135000000D03*
%TD*%
%TO.C,R1*%
X6250000Y-39335000D03*
X7750000Y-39335000D03*
%TD*%
D25*
%TO.C,Q13*%
X69720000Y-40520000D03*
D26*
X72000000Y-33940000D03*
D25*
X74280000Y-40520000D03*
%TD*%
D15*
%TO.C,C11*%
X81300000Y-97687000D03*
X82700000Y-97687000D03*
%TD*%
D33*
%TO.C,U7*%
X53070000Y-84771000D03*
X53720000Y-84771000D03*
X54370000Y-84771000D03*
X55020000Y-84771000D03*
X55680000Y-84771000D03*
X56330000Y-84771000D03*
X56980000Y-84771000D03*
X57630000Y-84771000D03*
X58280000Y-84771000D03*
X58930000Y-84771000D03*
X58930000Y-79031000D03*
X58280000Y-79031000D03*
X57630000Y-79031000D03*
X56980000Y-79031000D03*
X56330000Y-79031000D03*
X55680000Y-79031000D03*
X55020000Y-79031000D03*
X54370000Y-79031000D03*
X53720000Y-79031000D03*
X53070000Y-79031000D03*
%TD*%
D11*
%TO.C,R37*%
X75450000Y-76125000D03*
X76950000Y-76125000D03*
%TD*%
D40*
%TO.C,U4*%
X105000000Y-124000000D03*
X103730000Y-124000000D03*
X102460000Y-124000000D03*
X101190000Y-124000000D03*
X99920000Y-124000000D03*
X98650000Y-124000000D03*
X97380000Y-124000000D03*
X96110000Y-124000000D03*
X94840000Y-124000000D03*
X93570000Y-124000000D03*
X92300000Y-124000000D03*
X91030000Y-124000000D03*
X89760000Y-124000000D03*
X88490000Y-124000000D03*
D41*
X87000000Y-127290000D03*
X87000000Y-128560000D03*
X87000000Y-129830000D03*
X87000000Y-131100000D03*
X87000000Y-132370000D03*
X87000000Y-133640000D03*
X87000000Y-134910000D03*
X87000000Y-136180000D03*
X87000000Y-137450000D03*
X87000000Y-138720000D03*
D40*
X88490000Y-142000000D03*
X89760000Y-142000000D03*
X91030000Y-142000000D03*
X92300000Y-142000000D03*
X93570000Y-142000000D03*
X94840000Y-142000000D03*
X96110000Y-142000000D03*
X97380000Y-142000000D03*
X98650000Y-142000000D03*
X99920000Y-142000000D03*
X101190000Y-142000000D03*
X102460000Y-142000000D03*
X103730000Y-142000000D03*
X105000000Y-142000000D03*
D42*
X98720000Y-132900000D03*
X98720000Y-131500000D03*
X98720000Y-130100000D03*
X97320000Y-132900000D03*
X97320000Y-131500000D03*
X97320000Y-130100000D03*
X95920000Y-132900000D03*
X95920000Y-131500000D03*
X95920000Y-130100000D03*
%TD*%
D15*
%TO.C,C30*%
X62300000Y-132500000D03*
X63700000Y-132500000D03*
%TD*%
D19*
%TO.C,F6*%
X82600000Y-18665000D03*
X89400000Y-18665000D03*
%TD*%
D11*
%TO.C,R67*%
X38250000Y-110937000D03*
X39750000Y-110937000D03*
%TD*%
D30*
%TO.C,TP6*%
X30000000Y-12500000D03*
%TD*%
D11*
%TO.C,R8*%
X60250000Y-97587000D03*
X61750000Y-97587000D03*
%TD*%
D20*
%TO.C,C22*%
X67280000Y-67515000D03*
X74720000Y-67515000D03*
%TD*%
D12*
%TO.C,LED4*%
X11450000Y-77960000D03*
X9350000Y-77960000D03*
%TD*%
D25*
%TO.C,Q16*%
X83720000Y-52350000D03*
D26*
X86000000Y-45770000D03*
D25*
X88280000Y-52350000D03*
%TD*%
D15*
%TO.C,C6*%
X15300000Y-49685000D03*
X16700000Y-49685000D03*
%TD*%
D25*
%TO.C,Q14*%
X69720000Y-52350000D03*
D26*
X72000000Y-45770000D03*
D25*
X74280000Y-52350000D03*
%TD*%
D24*
%TO.C,C34*%
X27000000Y-99067000D03*
X27000000Y-97667000D03*
%TD*%
D11*
%TO.C,R13*%
X71250000Y-78895000D03*
X72750000Y-78895000D03*
%TD*%
D20*
%TO.C,C2*%
X22280000Y-91247000D03*
X29720000Y-91247000D03*
%TD*%
D14*
%TO.C,D10*%
X44240000Y-28225000D03*
X48960000Y-28225000D03*
%TD*%
D30*
%TO.C,TP3*%
X70000000Y-128500000D03*
%TD*%
D14*
%TO.C,D26*%
X100240000Y-28225000D03*
X104960000Y-28225000D03*
%TD*%
%TO.C,D22*%
X86240000Y-28225000D03*
X90960000Y-28225000D03*
%TD*%
D11*
%TO.C,R9*%
X49250000Y-132500000D03*
X50750000Y-132500000D03*
%TD*%
D43*
%TO.C,U2*%
X31500000Y-105991000D03*
X31500000Y-106991000D03*
X32500000Y-105991000D03*
X32500000Y-106991000D03*
D44*
X30100000Y-109261000D03*
X31370000Y-109261000D03*
X32630000Y-109261000D03*
X33900000Y-109261000D03*
X33900000Y-103721000D03*
X32630000Y-103721000D03*
X31370000Y-103721000D03*
X30100000Y-103721000D03*
D45*
X32000000Y-106491000D03*
%TD*%
D31*
%TO.C,Q2*%
X16690000Y-25894500D03*
D32*
X14400000Y-32734500D03*
D31*
X12110000Y-25894500D03*
%TD*%
D15*
%TO.C,C39*%
X42300000Y-103537000D03*
X43700000Y-103537000D03*
%TD*%
D14*
%TO.C,D16*%
X58240000Y-60745000D03*
X62960000Y-60745000D03*
%TD*%
%TO.C,D12*%
X44240000Y-60745000D03*
X48960000Y-60745000D03*
%TD*%
D11*
%TO.C,R36*%
X67050000Y-76125000D03*
X68550000Y-76125000D03*
%TD*%
D13*
%TO.C,J3*%
X33810000Y-8000000D03*
X30000000Y-8000000D03*
X26190000Y-8000000D03*
%TD*%
D25*
%TO.C,Q18*%
X97720000Y-52350000D03*
D26*
X100000000Y-45770000D03*
D25*
X102280000Y-52350000D03*
%TD*%
%TO.C,Q15*%
X83720000Y-40520000D03*
D26*
X86000000Y-33940000D03*
D25*
X88280000Y-40520000D03*
%TD*%
D11*
%TO.C,R57*%
X66250000Y-137500000D03*
X67750000Y-137500000D03*
%TD*%
D14*
%TO.C,D25*%
X95040000Y-23795000D03*
X99760000Y-23795000D03*
%TD*%
D15*
%TO.C,C38*%
X46300000Y-111037000D03*
X47700000Y-111037000D03*
%TD*%
D14*
%TO.C,D2*%
X21640000Y-117817000D03*
X26360000Y-117817000D03*
%TD*%
D10*
%TO.C,C33*%
X22480000Y-104357000D03*
X25520000Y-104357000D03*
%TD*%
D30*
%TO.C,TP1*%
X21000000Y-30000000D03*
%TD*%
D46*
%TO.C,J2*%
X73100000Y-139790000D03*
X78900000Y-139790000D03*
D47*
X80330000Y-139290000D03*
D48*
X80330000Y-143470000D03*
X71670000Y-143470000D03*
D47*
X71670000Y-139290000D03*
D49*
X72800000Y-138530000D03*
D50*
X73600000Y-138530000D03*
D27*
X74750000Y-138530000D03*
X75750000Y-138530000D03*
X76250000Y-138530000D03*
X77250000Y-138530000D03*
D51*
X79200000Y-138530000D03*
X78400000Y-138530000D03*
D27*
X77750000Y-138530000D03*
X76750000Y-138530000D03*
X75250000Y-138530000D03*
X74250000Y-138530000D03*
%TD*%
D25*
%TO.C,Q10*%
X41720000Y-52350000D03*
D26*
X44000000Y-45770000D03*
D25*
X46280000Y-52350000D03*
%TD*%
D11*
%TO.C,R31*%
X61450000Y-76125000D03*
X62950000Y-76125000D03*
%TD*%
%TO.C,R29*%
X61450000Y-73055000D03*
X62950000Y-73055000D03*
%TD*%
D14*
%TO.C,D7*%
X25040000Y-56315000D03*
X29760000Y-56315000D03*
%TD*%
D11*
%TO.C,R47*%
X103450000Y-73055000D03*
X104950000Y-73055000D03*
%TD*%
D19*
%TO.C,F3*%
X40600000Y-18665000D03*
X47400000Y-18665000D03*
%TD*%
D10*
%TO.C,C37*%
X34480000Y-125492000D03*
X37520000Y-125492000D03*
%TD*%
D19*
%TO.C,F4*%
X54600000Y-18665000D03*
X61400000Y-18665000D03*
%TD*%
D14*
%TO.C,D8*%
X30240000Y-60745000D03*
X34960000Y-60745000D03*
%TD*%
D20*
%TO.C,C26*%
X95280000Y-67515000D03*
X102720000Y-67515000D03*
%TD*%
D30*
%TO.C,TP2*%
X106000000Y-20000000D03*
%TD*%
D52*
%TO.C,R10*%
X69600000Y-135750000D03*
X69600000Y-137250000D03*
%TD*%
D12*
%TO.C,LED3*%
X9810000Y-80560000D03*
X7710000Y-80560000D03*
%TD*%
D11*
%TO.C,R14*%
X81250000Y-78895000D03*
X82750000Y-78895000D03*
%TD*%
%TO.C,R12*%
X77250000Y-124572000D03*
X78750000Y-124572000D03*
%TD*%
D20*
%TO.C,C24*%
X81280000Y-67515000D03*
X88720000Y-67515000D03*
%TD*%
D14*
%TO.C,D14*%
X58240000Y-28225000D03*
X62960000Y-28225000D03*
%TD*%
D12*
%TO.C,LED10*%
X47450000Y-80560000D03*
X45350000Y-80560000D03*
%TD*%
D20*
%TO.C,C16*%
X25280000Y-67515000D03*
X32720000Y-67515000D03*
%TD*%
D34*
%TO.C,H2*%
X106000000Y-80000000D03*
%TD*%
D53*
%TO.C,PTC1*%
X4150000Y-98957000D03*
X7850000Y-98957000D03*
%TD*%
D20*
%TO.C,C5*%
X64280000Y-91247000D03*
X71720000Y-91247000D03*
%TD*%
D25*
%TO.C,Q17*%
X97720000Y-40520000D03*
D26*
X100000000Y-33940000D03*
D25*
X102280000Y-40520000D03*
%TD*%
D11*
%TO.C,R30*%
X53050000Y-76125000D03*
X54550000Y-76125000D03*
%TD*%
%TO.C,R28*%
X53050000Y-73055000D03*
X54550000Y-73055000D03*
%TD*%
D54*
%TO.C,U3*%
X52970000Y-121557000D03*
X52970000Y-119257000D03*
X52970000Y-116957000D03*
D55*
X47030000Y-119257000D03*
%TD*%
D11*
%TO.C,R35*%
X75450000Y-73055000D03*
X76950000Y-73055000D03*
%TD*%
D14*
%TO.C,D11*%
X39040000Y-56315000D03*
X43760000Y-56315000D03*
%TD*%
D56*
%TO.C,J9*%
X11500000Y-142800000D03*
X10500000Y-142800000D03*
X9500000Y-142800000D03*
X8500000Y-142800000D03*
D57*
X7250000Y-139200000D03*
X12750000Y-139200000D03*
%TD*%
D34*
%TO.C,H3*%
X4000000Y-133000000D03*
%TD*%
D13*
%TO.C,J6*%
X75810000Y-8000000D03*
X72000000Y-8000000D03*
X68190000Y-8000000D03*
%TD*%
D30*
%TO.C,TP4*%
X106000000Y-102852000D03*
%TD*%
D11*
%TO.C,R26*%
X9650000Y-83560000D03*
X11150000Y-83560000D03*
%TD*%
%TO.C,R17*%
X33450000Y-73055000D03*
X34950000Y-73055000D03*
%TD*%
D58*
%TO.C,U5*%
X61550000Y-122464500D03*
X62830000Y-122464500D03*
X64100000Y-122464500D03*
X65370000Y-122464500D03*
X66630000Y-122464500D03*
X67900000Y-122464500D03*
X69170000Y-122464500D03*
X70450000Y-122464500D03*
X70450000Y-116724500D03*
X69170000Y-116724500D03*
X67900000Y-116724500D03*
X66630000Y-116724500D03*
X65370000Y-116724500D03*
X64100000Y-116724500D03*
X62830000Y-116724500D03*
X61550000Y-116724500D03*
%TD*%
D23*
%TO.C,C10*%
X77000000Y-97827000D03*
X79000000Y-97827000D03*
%TD*%
D13*
%TO.C,J4*%
X47810000Y-8000000D03*
X44000000Y-8000000D03*
X40190000Y-8000000D03*
%TD*%
D12*
%TO.C,LED6*%
X19410000Y-80560000D03*
X17310000Y-80560000D03*
%TD*%
D11*
%TO.C,R65*%
X35250000Y-97587000D03*
X36750000Y-97587000D03*
%TD*%
M02*
