%TF.GenerationSoftware,KiCad,Pcbnew,10.0.5*%
%TF.CreationDate,2026-08-13T11:25:59+08:00*%
%TF.ProjectId,cct-main,6363742d-6d61-4696-9e2e-6b696361645f,rev?*%
%TF.SameCoordinates,Original*%
%TF.FileFunction,Paste,Top*%
%TF.FilePolarity,Positive*%
%FSLAX46Y46*%
G04 Gerber Fmt 4.6, Leading zero omitted, Abs format (unit mm)*
G04 Created by KiCad (PCBNEW 10.0.5) date 2026-08-13 11:25:59*
%MOMM*%
%LPD*%
G01*
G04 APERTURE LIST*
G04 Aperture macros list*
%AMFreePoly0*
4,1,17,0.335278,0.685443,0.349923,0.650088,0.349923,-0.649935,0.335278,-0.685290,0.299923,-0.699935,0.000318,-0.699935,-0.000051,-0.700088,-0.300050,-0.700088,-0.335405,-0.685443,-0.350050,-0.650088,-0.350050,0.649935,-0.335405,0.685290,-0.300050,0.699935,-0.000445,0.699935,-0.000076,0.700088,0.299923,0.700088,0.335278,0.685443,0.335278,0.685443,$1*%
%AMFreePoly1*
4,1,17,0.335431,0.685290,0.350076,0.649935,0.350076,-0.650037,0.335431,-0.685392,0.300076,-0.700037,0.000187,-0.700037,0.000127,-0.700062,-0.299898,-0.700062,-0.335253,-0.685417,-0.349898,-0.650062,-0.349898,0.649910,-0.335253,0.685265,-0.299898,0.699910,-0.000009,0.699910,0.000051,0.699935,0.300076,0.699935,0.335431,0.685290,0.335431,0.685290,$1*%
%AMFreePoly2*
4,1,13,0.335227,0.685443,0.349872,0.650088,0.349872,-0.649884,0.335227,-0.685239,0.299872,-0.699884,-0.300152,-0.699884,-0.335507,-0.685239,-0.350152,-0.649884,-0.350152,0.650088,-0.335507,0.685443,-0.300152,0.700088,0.299872,0.700088,0.335227,0.685443,0.335227,0.685443,$1*%
G04 Aperture macros list end*
%ADD10R,1.635000X2.700000*%
%ADD11R,0.806000X0.864000*%
%ADD12R,1.000000X1.400000*%
%ADD13R,2.047000X2.192000*%
%ADD14R,0.800000X0.900000*%
%ADD15R,1.037000X0.532000*%
%ADD16R,3.800000X3.000000*%
%ADD17R,4.600000X1.600000*%
%ADD18R,0.800000X0.800000*%
%ADD19R,1.283000X3.456000*%
%ADD20R,1.410000X1.350000*%
%ADD21R,0.900000X0.800000*%
%ADD22R,1.600000X3.000000*%
%ADD23R,6.000000X6.500000*%
%ADD24R,0.300000X1.300000*%
%ADD25R,1.000000X0.650000*%
%ADD26R,0.910000X1.220000*%
%ADD27R,0.979000X2.409000*%
%ADD28R,5.548000X5.711000*%
%ADD29O,0.364000X1.742000*%
%ADD30R,2.900000X5.400000*%
%ADD31R,1.000000X0.750000*%
%ADD32R,0.950000X2.100000*%
%ADD33R,2.100000X0.950000*%
%ADD34R,0.900000X0.900000*%
%ADD35C,0.610000*%
%ADD36O,0.574000X2.038000*%
%ADD37R,2.000000X2.000000*%
%ADD38FreePoly0,180.000000*%
%ADD39FreePoly1,180.000000*%
%ADD40FreePoly2,180.000000*%
%ADD41R,0.864000X0.806000*%
%ADD42R,1.407000X3.499000*%
%ADD43R,2.500000X1.100000*%
%ADD44R,2.340000X3.600000*%
%ADD45R,0.700000X1.600000*%
%ADD46R,1.000000X2.300000*%
%ADD47O,0.560000X1.745000*%
G04 APERTURE END LIST*
D10*
%TO.C,C32*%
X89520000Y-46493000D03*
X86480000Y-46493000D03*
%TD*%
D11*
%TO.C,R18*%
X84950000Y-68875000D03*
X83450000Y-68875000D03*
%TD*%
D12*
%TO.C,LED8*%
X68950000Y-64440000D03*
X71050000Y-64440000D03*
%TD*%
D11*
%TO.C,R24*%
X70950000Y-68875000D03*
X69450000Y-68875000D03*
%TD*%
%TO.C,R58*%
X55750000Y-10000000D03*
X54250000Y-10000000D03*
%TD*%
D13*
%TO.C,D13*%
X56960000Y-121205000D03*
X52240000Y-121205000D03*
%TD*%
D14*
%TO.C,C40*%
X67700000Y-33963000D03*
X66300000Y-33963000D03*
%TD*%
D12*
%TO.C,LED7*%
X88950000Y-67040000D03*
X91050000Y-67040000D03*
%TD*%
%TO.C,LED5*%
X95350000Y-64440000D03*
X97450000Y-64440000D03*
%TD*%
D13*
%TO.C,D20*%
X37760000Y-84255000D03*
X33040000Y-84255000D03*
%TD*%
D11*
%TO.C,R40*%
X28950000Y-71945000D03*
X27450000Y-71945000D03*
%TD*%
%TO.C,R49*%
X6550000Y-68875000D03*
X5050000Y-68875000D03*
%TD*%
D13*
%TO.C,D15*%
X56960000Y-88685000D03*
X52240000Y-88685000D03*
%TD*%
D10*
%TO.C,C36*%
X75520000Y-27493000D03*
X72480000Y-27493000D03*
%TD*%
D11*
%TO.C,R51*%
X12350000Y-61440000D03*
X10850000Y-61440000D03*
%TD*%
D15*
%TO.C,Q5*%
X34900000Y-18608000D03*
X34900000Y-20508000D03*
X37100000Y-19558000D03*
%TD*%
D11*
%TO.C,R62*%
X78750000Y-47413000D03*
X77250000Y-47413000D03*
%TD*%
D16*
%TO.C,F5*%
X41400000Y-126335000D03*
X34600000Y-126335000D03*
%TD*%
D17*
%TO.C,C3*%
X73720000Y-53753000D03*
X66280000Y-53753000D03*
%TD*%
D18*
%TO.C,LED1*%
X52250000Y-47323000D03*
X53750000Y-47323000D03*
%TD*%
D11*
%TO.C,R22*%
X70950000Y-71945000D03*
X69450000Y-71945000D03*
%TD*%
D17*
%TO.C,C18*%
X70720000Y-77485000D03*
X63280000Y-77485000D03*
%TD*%
%TO.C,C35*%
X53720000Y-37993000D03*
X46280000Y-37993000D03*
%TD*%
D19*
%TO.C,RS1*%
X102070000Y-98685000D03*
X95930000Y-98685000D03*
%TD*%
D11*
%TO.C,R48*%
X14950000Y-68875000D03*
X13450000Y-68875000D03*
%TD*%
%TO.C,R44*%
X64350000Y-61440000D03*
X62850000Y-61440000D03*
%TD*%
D12*
%TO.C,LED13*%
X10550000Y-67040000D03*
X12650000Y-67040000D03*
%TD*%
D13*
%TO.C,D27*%
X14960000Y-88685000D03*
X10240000Y-88685000D03*
%TD*%
D12*
%TO.C,LED12*%
X12190000Y-64440000D03*
X14290000Y-64440000D03*
%TD*%
D20*
%TO.C,C42*%
X65000000Y-12500000D03*
X63000000Y-12500000D03*
%TD*%
D11*
%TO.C,R50*%
X15550000Y-61440000D03*
X14050000Y-61440000D03*
%TD*%
D21*
%TO.C,C15*%
X46000000Y-64625000D03*
X46000000Y-66025000D03*
%TD*%
D11*
%TO.C,R20*%
X106750000Y-61440000D03*
X105250000Y-61440000D03*
%TD*%
D13*
%TO.C,D21*%
X28960000Y-121205000D03*
X24240000Y-121205000D03*
%TD*%
D22*
%TO.C,Q12*%
X54280000Y-92650000D03*
D23*
X52000000Y-99230000D03*
D22*
X49720000Y-92650000D03*
%TD*%
D16*
%TO.C,F7*%
X14300000Y-126335000D03*
X7500000Y-126335000D03*
%TD*%
D24*
%TO.C,U1*%
X102000000Y-90800000D03*
X101500000Y-90800000D03*
X101000000Y-90800000D03*
X100500000Y-90800000D03*
X100000000Y-90800000D03*
X100000000Y-95500000D03*
X100500000Y-95500000D03*
X101000000Y-95500000D03*
X101500000Y-95500000D03*
X102000000Y-95500000D03*
%TD*%
D14*
%TO.C,C25*%
X25700000Y-71845000D03*
X24300000Y-71845000D03*
%TD*%
D22*
%TO.C,Q9*%
X68280000Y-104480000D03*
D23*
X66000000Y-111060000D03*
D22*
X63720000Y-104480000D03*
%TD*%
D20*
%TO.C,C12*%
X42000000Y-47173000D03*
X40000000Y-47173000D03*
%TD*%
D25*
%TO.C,Q3*%
X102000000Y-101875000D03*
X102000000Y-103775000D03*
X104000000Y-102825000D03*
%TD*%
D11*
%TO.C,R4*%
X45750000Y-47413000D03*
X44250000Y-47413000D03*
%TD*%
D13*
%TO.C,D23*%
X28960000Y-88685000D03*
X24240000Y-88685000D03*
%TD*%
D11*
%TO.C,R38*%
X70750000Y-61440000D03*
X69250000Y-61440000D03*
%TD*%
D26*
%TO.C,DZ1*%
X104640000Y-107905000D03*
X101360000Y-107905000D03*
%TD*%
D14*
%TO.C,C31*%
X43700000Y-12500000D03*
X42300000Y-12500000D03*
%TD*%
D25*
%TO.C,Q6*%
X32000000Y-64285000D03*
X32000000Y-66185000D03*
X34000000Y-65235000D03*
%TD*%
D11*
%TO.C,R27*%
X97150000Y-61440000D03*
X95650000Y-61440000D03*
%TD*%
%TO.C,R52*%
X98750000Y-47413000D03*
X97250000Y-47413000D03*
%TD*%
D14*
%TO.C,C29*%
X51700000Y-12500000D03*
X50300000Y-12500000D03*
%TD*%
D13*
%TO.C,D3*%
X70360000Y-27183000D03*
X65640000Y-27183000D03*
%TD*%
D17*
%TO.C,C4*%
X59720000Y-53753000D03*
X52280000Y-53753000D03*
%TD*%
D13*
%TO.C,D9*%
X70960000Y-121205000D03*
X66240000Y-121205000D03*
%TD*%
D27*
%TO.C,Q1*%
X100110000Y-119105500D03*
D28*
X102400000Y-112265500D03*
D27*
X104690000Y-119105500D03*
%TD*%
D13*
%TO.C,D6*%
X79760000Y-116775000D03*
X75040000Y-116775000D03*
%TD*%
D11*
%TO.C,R33*%
X90750000Y-61440000D03*
X89250000Y-61440000D03*
%TD*%
D13*
%TO.C,D1*%
X101360000Y-87685000D03*
X96640000Y-87685000D03*
%TD*%
D11*
%TO.C,R3*%
X96250000Y-105665000D03*
X94750000Y-105665000D03*
%TD*%
D12*
%TO.C,LED11*%
X16950000Y-64440000D03*
X19050000Y-64440000D03*
%TD*%
D14*
%TO.C,C17*%
X81700000Y-71845000D03*
X80300000Y-71845000D03*
%TD*%
D17*
%TO.C,C1*%
X101720000Y-53753000D03*
X94280000Y-53753000D03*
%TD*%
D29*
%TO.C,U6*%
X78930000Y-60229000D03*
X78280000Y-60229000D03*
X77630000Y-60229000D03*
X76980000Y-60229000D03*
X76320000Y-60229000D03*
X75670000Y-60229000D03*
X75020000Y-60229000D03*
X74370000Y-60229000D03*
X73720000Y-60229000D03*
X73070000Y-60229000D03*
X73070000Y-65969000D03*
X73720000Y-65969000D03*
X74370000Y-65969000D03*
X75020000Y-65969000D03*
X75670000Y-65969000D03*
X76320000Y-65969000D03*
X76980000Y-65969000D03*
X77630000Y-65969000D03*
X78280000Y-65969000D03*
X78930000Y-65969000D03*
%TD*%
D22*
%TO.C,Q7*%
X82280000Y-104480000D03*
D23*
X80000000Y-111060000D03*
D22*
X77720000Y-104480000D03*
%TD*%
D13*
%TO.C,D18*%
X37760000Y-116775000D03*
X33040000Y-116775000D03*
%TD*%
D20*
%TO.C,C41*%
X62000000Y-20188000D03*
X60000000Y-20188000D03*
%TD*%
D12*
%TO.C,LED9*%
X67310000Y-67040000D03*
X69410000Y-67040000D03*
%TD*%
D11*
%TO.C,R61*%
X43750000Y-10000000D03*
X42250000Y-10000000D03*
%TD*%
%TO.C,R23*%
X62550000Y-71945000D03*
X61050000Y-71945000D03*
%TD*%
D13*
%TO.C,D17*%
X42960000Y-121205000D03*
X38240000Y-121205000D03*
%TD*%
D11*
%TO.C,R11*%
X32750000Y-28413000D03*
X31250000Y-28413000D03*
%TD*%
D13*
%TO.C,D19*%
X42960000Y-88685000D03*
X38240000Y-88685000D03*
%TD*%
D30*
%TO.C,L1*%
X101450000Y-35973000D03*
X90550000Y-35973000D03*
%TD*%
D22*
%TO.C,Q11*%
X54280000Y-104480000D03*
D23*
X52000000Y-111060000D03*
D22*
X49720000Y-104480000D03*
%TD*%
D11*
%TO.C,R15*%
X24750000Y-66105000D03*
X23250000Y-66105000D03*
%TD*%
%TO.C,R46*%
X14950000Y-71945000D03*
X13450000Y-71945000D03*
%TD*%
%TO.C,R63*%
X79750000Y-28413000D03*
X78250000Y-28413000D03*
%TD*%
D14*
%TO.C,C23*%
X39700000Y-71845000D03*
X38300000Y-71845000D03*
%TD*%
%TO.C,C43*%
X64700000Y-10000000D03*
X63300000Y-10000000D03*
%TD*%
D11*
%TO.C,R21*%
X103550000Y-61440000D03*
X102050000Y-61440000D03*
%TD*%
D14*
%TO.C,C27*%
X11700000Y-71845000D03*
X10300000Y-71845000D03*
%TD*%
D11*
%TO.C,R60*%
X47750000Y-10000000D03*
X46250000Y-10000000D03*
%TD*%
%TO.C,R16*%
X84950000Y-71945000D03*
X83450000Y-71945000D03*
%TD*%
D14*
%TO.C,C28*%
X55700000Y-12500000D03*
X54300000Y-12500000D03*
%TD*%
D16*
%TO.C,F2*%
X83400000Y-126335000D03*
X76600000Y-126335000D03*
%TD*%
D11*
%TO.C,R41*%
X20550000Y-71945000D03*
X19050000Y-71945000D03*
%TD*%
D13*
%TO.C,D28*%
X9760000Y-84255000D03*
X5040000Y-84255000D03*
%TD*%
D11*
%TO.C,R45*%
X18750000Y-61440000D03*
X17250000Y-61440000D03*
%TD*%
%TO.C,R32*%
X93950000Y-61440000D03*
X92450000Y-61440000D03*
%TD*%
D12*
%TO.C,LED2*%
X104950000Y-64440000D03*
X107050000Y-64440000D03*
%TD*%
D13*
%TO.C,D4*%
X70360000Y-19198000D03*
X65640000Y-19198000D03*
%TD*%
D31*
%TO.C,SW2*%
X71000000Y-47323000D03*
X65000000Y-47323000D03*
X71000000Y-43623000D03*
X65000000Y-43623000D03*
%TD*%
D11*
%TO.C,R43*%
X20550000Y-68875000D03*
X19050000Y-68875000D03*
%TD*%
%TO.C,R66*%
X71750000Y-41563000D03*
X70250000Y-41563000D03*
%TD*%
D13*
%TO.C,D5*%
X84960000Y-121205000D03*
X80240000Y-121205000D03*
%TD*%
D11*
%TO.C,R5*%
X36750000Y-47413000D03*
X35250000Y-47413000D03*
%TD*%
%TO.C,R64*%
X79750000Y-20428000D03*
X78250000Y-20428000D03*
%TD*%
%TO.C,R34*%
X42950000Y-71945000D03*
X41450000Y-71945000D03*
%TD*%
%TO.C,R2*%
X96250000Y-108175000D03*
X94750000Y-108175000D03*
%TD*%
%TO.C,R54*%
X55750000Y-7500000D03*
X54250000Y-7500000D03*
%TD*%
%TO.C,R53*%
X94750000Y-47413000D03*
X93250000Y-47413000D03*
%TD*%
D22*
%TO.C,Q8*%
X82280000Y-92650000D03*
D23*
X80000000Y-99230000D03*
D22*
X77720000Y-92650000D03*
%TD*%
D11*
%TO.C,R39*%
X67550000Y-61440000D03*
X66050000Y-61440000D03*
%TD*%
D14*
%TO.C,C21*%
X53700000Y-71845000D03*
X52300000Y-71845000D03*
%TD*%
D11*
%TO.C,R19*%
X76550000Y-68875000D03*
X75050000Y-68875000D03*
%TD*%
D13*
%TO.C,D24*%
X23760000Y-84255000D03*
X19040000Y-84255000D03*
%TD*%
D11*
%TO.C,R42*%
X28950000Y-68875000D03*
X27450000Y-68875000D03*
%TD*%
D21*
%TO.C,C14*%
X84000000Y-64625000D03*
X84000000Y-66025000D03*
%TD*%
D31*
%TO.C,SW1*%
X62000000Y-47323000D03*
X56000000Y-47323000D03*
X62000000Y-43623000D03*
X56000000Y-43623000D03*
%TD*%
D11*
%TO.C,R55*%
X51750000Y-7500000D03*
X50250000Y-7500000D03*
%TD*%
%TO.C,R56*%
X47750000Y-7500000D03*
X46250000Y-7500000D03*
%TD*%
D15*
%TO.C,Q4*%
X34900000Y-26593000D03*
X34900000Y-28493000D03*
X37100000Y-27543000D03*
%TD*%
D14*
%TO.C,C19*%
X67700000Y-71845000D03*
X66300000Y-71845000D03*
%TD*%
D17*
%TO.C,C20*%
X56720000Y-77485000D03*
X49280000Y-77485000D03*
%TD*%
D11*
%TO.C,R25*%
X62550000Y-68875000D03*
X61050000Y-68875000D03*
%TD*%
D14*
%TO.C,C13*%
X52700000Y-28313000D03*
X51300000Y-28313000D03*
%TD*%
D11*
%TO.C,R59*%
X51750000Y-10000000D03*
X50250000Y-10000000D03*
%TD*%
%TO.C,R1*%
X103750000Y-105665000D03*
X102250000Y-105665000D03*
%TD*%
D22*
%TO.C,Q13*%
X40280000Y-104480000D03*
D23*
X38000000Y-111060000D03*
D22*
X35720000Y-104480000D03*
%TD*%
D14*
%TO.C,C11*%
X28700000Y-47313000D03*
X27300000Y-47313000D03*
%TD*%
D29*
%TO.C,U7*%
X56930000Y-60229000D03*
X56280000Y-60229000D03*
X55630000Y-60229000D03*
X54980000Y-60229000D03*
X54320000Y-60229000D03*
X53670000Y-60229000D03*
X53020000Y-60229000D03*
X52370000Y-60229000D03*
X51720000Y-60229000D03*
X51070000Y-60229000D03*
X51070000Y-65969000D03*
X51720000Y-65969000D03*
X52370000Y-65969000D03*
X53020000Y-65969000D03*
X53670000Y-65969000D03*
X54320000Y-65969000D03*
X54980000Y-65969000D03*
X55630000Y-65969000D03*
X56280000Y-65969000D03*
X56930000Y-65969000D03*
%TD*%
D11*
%TO.C,R37*%
X34550000Y-68875000D03*
X33050000Y-68875000D03*
%TD*%
D32*
%TO.C,U4*%
X5000000Y-21000000D03*
X6270000Y-21000000D03*
X7540000Y-21000000D03*
X8810000Y-21000000D03*
X10080000Y-21000000D03*
X11350000Y-21000000D03*
X12620000Y-21000000D03*
X13890000Y-21000000D03*
X15160000Y-21000000D03*
X16430000Y-21000000D03*
X17700000Y-21000000D03*
X18970000Y-21000000D03*
X20240000Y-21000000D03*
X21510000Y-21000000D03*
D33*
X23000000Y-17710000D03*
X23000000Y-16440000D03*
X23000000Y-15170000D03*
X23000000Y-13900000D03*
X23000000Y-12630000D03*
X23000000Y-11360000D03*
X23000000Y-10090000D03*
X23000000Y-8820000D03*
X23000000Y-7550000D03*
X23000000Y-6280000D03*
D32*
X21510000Y-3000000D03*
X20240000Y-3000000D03*
X18970000Y-3000000D03*
X17700000Y-3000000D03*
X16430000Y-3000000D03*
X15160000Y-3000000D03*
X13890000Y-3000000D03*
X12620000Y-3000000D03*
X11350000Y-3000000D03*
X10080000Y-3000000D03*
X8810000Y-3000000D03*
X7540000Y-3000000D03*
X6270000Y-3000000D03*
X5000000Y-3000000D03*
D34*
X11280000Y-12100000D03*
X11280000Y-13500000D03*
X11280000Y-14900000D03*
X12680000Y-12100000D03*
X12680000Y-13500000D03*
X12680000Y-14900000D03*
X14080000Y-12100000D03*
X14080000Y-13500000D03*
X14080000Y-14900000D03*
%TD*%
D14*
%TO.C,C30*%
X47700000Y-12500000D03*
X46300000Y-12500000D03*
%TD*%
D16*
%TO.C,F6*%
X27400000Y-126335000D03*
X20600000Y-126335000D03*
%TD*%
D11*
%TO.C,R67*%
X71750000Y-34063000D03*
X70250000Y-34063000D03*
%TD*%
%TO.C,R8*%
X49750000Y-47413000D03*
X48250000Y-47413000D03*
%TD*%
D17*
%TO.C,C22*%
X42720000Y-77485000D03*
X35280000Y-77485000D03*
%TD*%
D12*
%TO.C,LED4*%
X98550000Y-67040000D03*
X100650000Y-67040000D03*
%TD*%
D22*
%TO.C,Q16*%
X26280000Y-92650000D03*
D23*
X24000000Y-99230000D03*
D22*
X21720000Y-92650000D03*
%TD*%
D14*
%TO.C,C6*%
X94700000Y-95315000D03*
X93300000Y-95315000D03*
%TD*%
D22*
%TO.C,Q14*%
X40280000Y-92650000D03*
D23*
X38000000Y-99230000D03*
D22*
X35720000Y-92650000D03*
%TD*%
D21*
%TO.C,C34*%
X83000000Y-45933000D03*
X83000000Y-47333000D03*
%TD*%
D11*
%TO.C,R13*%
X38750000Y-66105000D03*
X37250000Y-66105000D03*
%TD*%
D17*
%TO.C,C2*%
X87720000Y-53753000D03*
X80280000Y-53753000D03*
%TD*%
D13*
%TO.C,D10*%
X65760000Y-116775000D03*
X61040000Y-116775000D03*
%TD*%
%TO.C,D26*%
X9760000Y-116775000D03*
X5040000Y-116775000D03*
%TD*%
%TO.C,D22*%
X23760000Y-116775000D03*
X19040000Y-116775000D03*
%TD*%
D11*
%TO.C,R9*%
X60750000Y-12500000D03*
X59250000Y-12500000D03*
%TD*%
D35*
%TO.C,U2*%
X78500000Y-39009000D03*
X78500000Y-38009000D03*
X77500000Y-39009000D03*
X77500000Y-38009000D03*
D36*
X79900000Y-35739000D03*
X78630000Y-35739000D03*
X77370000Y-35739000D03*
X76100000Y-35739000D03*
X76100000Y-41279000D03*
X77370000Y-41279000D03*
X78630000Y-41279000D03*
X79900000Y-41279000D03*
D37*
X78000000Y-38509000D03*
%TD*%
D27*
%TO.C,Q2*%
X93310000Y-119105500D03*
D28*
X95600000Y-112265500D03*
D27*
X97890000Y-119105500D03*
%TD*%
D14*
%TO.C,C39*%
X67700000Y-41463000D03*
X66300000Y-41463000D03*
%TD*%
D13*
%TO.C,D16*%
X51760000Y-84255000D03*
X47040000Y-84255000D03*
%TD*%
%TO.C,D12*%
X65760000Y-84255000D03*
X61040000Y-84255000D03*
%TD*%
D11*
%TO.C,R36*%
X42950000Y-68875000D03*
X41450000Y-68875000D03*
%TD*%
D22*
%TO.C,Q18*%
X12280000Y-92650000D03*
D23*
X10000000Y-99230000D03*
D22*
X7720000Y-92650000D03*
%TD*%
%TO.C,Q15*%
X26280000Y-104480000D03*
D23*
X24000000Y-111060000D03*
D22*
X21720000Y-104480000D03*
%TD*%
D11*
%TO.C,R57*%
X43750000Y-7500000D03*
X42250000Y-7500000D03*
%TD*%
D13*
%TO.C,D25*%
X14960000Y-121205000D03*
X10240000Y-121205000D03*
%TD*%
D14*
%TO.C,C38*%
X63700000Y-33963000D03*
X62300000Y-33963000D03*
%TD*%
D13*
%TO.C,D2*%
X88360000Y-27183000D03*
X83640000Y-27183000D03*
%TD*%
D10*
%TO.C,C33*%
X87520000Y-40643000D03*
X84480000Y-40643000D03*
%TD*%
D38*
%TO.C,J2*%
X37200000Y-6470000D03*
D39*
X36400000Y-6470000D03*
D24*
X35250000Y-6470000D03*
X34250000Y-6470000D03*
X33750000Y-6470000D03*
X32750000Y-6470000D03*
D40*
X30800000Y-6470000D03*
X31600000Y-6470000D03*
D24*
X32250000Y-6470000D03*
X33250000Y-6470000D03*
X34750000Y-6470000D03*
X35750000Y-6470000D03*
%TD*%
D22*
%TO.C,Q10*%
X68280000Y-92650000D03*
D23*
X66000000Y-99230000D03*
D22*
X63720000Y-92650000D03*
%TD*%
D11*
%TO.C,R31*%
X48550000Y-68875000D03*
X47050000Y-68875000D03*
%TD*%
%TO.C,R29*%
X48550000Y-71945000D03*
X47050000Y-71945000D03*
%TD*%
D13*
%TO.C,D7*%
X84960000Y-88685000D03*
X80240000Y-88685000D03*
%TD*%
D11*
%TO.C,R47*%
X6550000Y-71945000D03*
X5050000Y-71945000D03*
%TD*%
D16*
%TO.C,F3*%
X69400000Y-126335000D03*
X62600000Y-126335000D03*
%TD*%
D10*
%TO.C,C37*%
X75520000Y-19508000D03*
X72480000Y-19508000D03*
%TD*%
D16*
%TO.C,F4*%
X55400000Y-126335000D03*
X48600000Y-126335000D03*
%TD*%
D13*
%TO.C,D8*%
X79760000Y-84255000D03*
X75040000Y-84255000D03*
%TD*%
D17*
%TO.C,C26*%
X14720000Y-77485000D03*
X7280000Y-77485000D03*
%TD*%
D41*
%TO.C,R10*%
X40400000Y-9250000D03*
X40400000Y-7750000D03*
%TD*%
D12*
%TO.C,LED3*%
X100190000Y-64440000D03*
X102290000Y-64440000D03*
%TD*%
D11*
%TO.C,R14*%
X28750000Y-66105000D03*
X27250000Y-66105000D03*
%TD*%
%TO.C,R12*%
X32750000Y-20428000D03*
X31250000Y-20428000D03*
%TD*%
D17*
%TO.C,C24*%
X28720000Y-77485000D03*
X21280000Y-77485000D03*
%TD*%
D13*
%TO.C,D14*%
X51760000Y-116775000D03*
X47040000Y-116775000D03*
%TD*%
D12*
%TO.C,LED10*%
X62550000Y-64440000D03*
X64650000Y-64440000D03*
%TD*%
D17*
%TO.C,C16*%
X84720000Y-77485000D03*
X77280000Y-77485000D03*
%TD*%
D42*
%TO.C,PTC1*%
X105850000Y-46043000D03*
X102150000Y-46043000D03*
%TD*%
D17*
%TO.C,C5*%
X45720000Y-53753000D03*
X38280000Y-53753000D03*
%TD*%
D22*
%TO.C,Q17*%
X12280000Y-104480000D03*
D23*
X10000000Y-111060000D03*
D22*
X7720000Y-104480000D03*
%TD*%
D11*
%TO.C,R30*%
X56950000Y-68875000D03*
X55450000Y-68875000D03*
%TD*%
%TO.C,R28*%
X56950000Y-71945000D03*
X55450000Y-71945000D03*
%TD*%
D43*
%TO.C,U3*%
X57030000Y-23443000D03*
X57030000Y-25743000D03*
X57030000Y-28043000D03*
D44*
X62970000Y-25743000D03*
%TD*%
D11*
%TO.C,R35*%
X34550000Y-71945000D03*
X33050000Y-71945000D03*
%TD*%
D13*
%TO.C,D11*%
X70960000Y-88685000D03*
X66240000Y-88685000D03*
%TD*%
D45*
%TO.C,J9*%
X98500000Y-2200000D03*
X99500000Y-2200000D03*
X100500000Y-2200000D03*
X101500000Y-2200000D03*
D46*
X102750000Y-5800000D03*
X97250000Y-5800000D03*
%TD*%
D11*
%TO.C,R26*%
X100350000Y-61440000D03*
X98850000Y-61440000D03*
%TD*%
%TO.C,R17*%
X76550000Y-71945000D03*
X75050000Y-71945000D03*
%TD*%
D47*
%TO.C,U5*%
X48450000Y-22535500D03*
X47170000Y-22535500D03*
X45900000Y-22535500D03*
X44630000Y-22535500D03*
X43370000Y-22535500D03*
X42100000Y-22535500D03*
X40830000Y-22535500D03*
X39550000Y-22535500D03*
X39550000Y-28275500D03*
X40830000Y-28275500D03*
X42100000Y-28275500D03*
X43370000Y-28275500D03*
X44630000Y-28275500D03*
X45900000Y-28275500D03*
X47170000Y-28275500D03*
X48450000Y-28275500D03*
%TD*%
D20*
%TO.C,C10*%
X33000000Y-47173000D03*
X31000000Y-47173000D03*
%TD*%
D12*
%TO.C,LED6*%
X90590000Y-64440000D03*
X92690000Y-64440000D03*
%TD*%
D11*
%TO.C,R65*%
X74750000Y-47413000D03*
X73250000Y-47413000D03*
%TD*%
M02*
