%TF.GenerationSoftware,KiCad,Pcbnew,10.0.5*%
%TF.CreationDate,2026-08-18T14:59:27+08:00*%
%TF.ProjectId,cct-main,6363742d-6d61-4696-9e2e-6b696361645f,rev?*%
%TF.SameCoordinates,Original*%
%TF.FileFunction,Legend,Bot*%
%TF.FilePolarity,Positive*%
%FSLAX46Y46*%
G04 Gerber Fmt 4.6, Leading zero omitted, Abs format (unit mm)*
G04 Created by KiCad (PCBNEW 10.0.5) date 2026-08-18 14:59:27*
%MOMM*%
%LPD*%
G01*
G04 APERTURE LIST*
%ADD10R,3.000000X3.000000*%
%ADD11C,3.000000*%
%ADD12C,3.200000*%
%ADD13R,1.700000X1.700000*%
%ADD14C,1.700000*%
%ADD15C,2.500000*%
%ADD16C,0.600000*%
%ADD17O,1.200000X2.000000*%
%ADD18O,1.200000X1.800000*%
%ADD19C,2.000000*%
G04 APERTURE END LIST*
%LPC*%
D10*
%TO.C,J1*%
X112190000Y-141200000D03*
D11*
X119810000Y-141200000D03*
%TD*%
D12*
%TO.C,H4*%
X4000000Y-71000000D03*
%TD*%
%TO.C,H9*%
X117000000Y-158000000D03*
%TD*%
D13*
%TO.C,J10*%
X70250000Y-5000000D03*
D14*
X72750000Y-5000000D03*
X75250000Y-5000000D03*
X77750000Y-5000000D03*
%TD*%
D15*
%TO.C,J7*%
X24190000Y-141200000D03*
X28000000Y-141200000D03*
X31810000Y-141200000D03*
%TD*%
%TO.C,J3*%
X88190000Y-141200000D03*
X92000000Y-141200000D03*
X95810000Y-141200000D03*
%TD*%
D12*
%TO.C,H3*%
X61000000Y-5000000D03*
%TD*%
D16*
%TO.C,J2*%
X54900000Y-7710000D03*
X49100000Y-7710000D03*
D17*
X47670000Y-8210000D03*
D18*
X47670000Y-4030000D03*
X56330000Y-4030000D03*
D17*
X56330000Y-8210000D03*
%TD*%
D12*
%TO.C,H8*%
X85000000Y-158000000D03*
%TD*%
D15*
%TO.C,J6*%
X40190000Y-141200000D03*
X44000000Y-141200000D03*
X47810000Y-141200000D03*
%TD*%
%TO.C,J8*%
X8190000Y-141200000D03*
X12000000Y-141200000D03*
X15810000Y-141200000D03*
%TD*%
%TO.C,J4*%
X72190000Y-141200000D03*
X76000000Y-141200000D03*
X79810000Y-141200000D03*
%TD*%
D12*
%TO.C,H2*%
X126000000Y-12000000D03*
%TD*%
%TO.C,H6*%
X15000000Y-158000000D03*
%TD*%
%TO.C,H7*%
X50000000Y-158000000D03*
%TD*%
%TO.C,H1*%
X4000000Y-36000000D03*
%TD*%
D15*
%TO.C,J5*%
X56190000Y-141200000D03*
X60000000Y-141200000D03*
X63810000Y-141200000D03*
%TD*%
%TO.C,F1*%
X109260000Y-125610000D03*
X109260000Y-129010000D03*
X122740000Y-125610000D03*
X122740000Y-129010000D03*
%TD*%
D19*
%TO.C,J11*%
X31920000Y-5000000D03*
X34460000Y-5000000D03*
X37000000Y-5000000D03*
X39540000Y-5000000D03*
X42080000Y-5000000D03*
%TD*%
D12*
%TO.C,H5*%
X126000000Y-66000000D03*
%TD*%
%LPD*%
M02*
