M48
; DRILL file KiCad 10.0.5 date 2026-08-07T09:07:40
; FORMAT={-:-/ absolute / metric / decimal}
; #@! TF.CreationDate,2026-08-07T09:07:40+08:00
; #@! TF.GenerationSoftware,Kicad,Pcbnew,10.0.5
; #@! TF.FileFunction,Plated,1,2,PTH
FMAT,2
METRIC
; #@! TA.AperFunction,Plated,PTH,ViaDrill
T1C0.300
; #@! TA.AperFunction,Plated,PTH,ComponentDrill
T2C0.300
; #@! TA.AperFunction,Plated,PTH,ViaDrill
T3C0.400
; #@! TA.AperFunction,Plated,PTH,ViaDrill
T4C0.500
; #@! TA.AperFunction,Plated,PTH,ComponentDrill
T5C0.600
; #@! TA.AperFunction,Plated,PTH,ComponentDrill
T6C0.800
; #@! TA.AperFunction,Plated,PTH,ComponentDrill
T7C1.000
; #@! TA.AperFunction,Plated,PTH,ComponentDrill
T8C1.300
; #@! TA.AperFunction,Plated,PTH,ComponentDrill
T9C1.600
; #@! TA.AperFunction,Plated,PTH,ComponentDrill
T10C1.800
%
G90
G05
T1
X9.488Y-130.464
X13.75Y-40.35
X13.75Y-43.12
X14.026Y-70.888
X16.05Y-82.7
X16.28Y-103.044
X17.5Y-81.2
X18.114Y-82.598
X18.116Y-93.636
X20.133Y-86.633
X20.223Y-79.175
X20.436Y-80.434
X20.869Y-84.497
X21.442Y-85.057
X21.877Y-81.061
X21.974Y-81.873
X22.534Y-86.191
X22.594Y-77.826
X24.194Y-79.209
X24.303Y-50.835
X24.828Y-79.787
X24.828Y-87.157
X25.05Y-74.323
X25.127Y-85.508
X26.398Y-86.028
X27.037Y-85.268
X27.171Y-81.61
X29.038Y-41.952
X29.619Y-83.623
X30.1Y-109.8
X30.394Y-113.167
X31.25Y-100.612
X31.37Y-109.8
X31.702Y-81.542
X31.72Y-87.339
X31.941Y-82.344
X32.086Y-83.146
X32.28Y-77.644
X32.329Y-88.683
X32.37Y-86.744
X33.02Y-83.377
X33.443Y-86.655
X33.531Y-105.664
X34.32Y-107.774
X34.33Y-77.648
X34.937Y-77.064
X34.977Y-101.929
X34.98Y-80.434
X34.98Y-88.46
X35.63Y-81.063
X35.63Y-87.61
X36.117Y-110.064
X36.28Y-88.133
X37.357Y-82.465
X38.141Y-76.071
X39.0Y-98.561
X39.05Y-74.02
X39.5Y-105.2
X40.208Y-74.004
X40.593Y-40.52
X40.75Y-57.05
X41.962Y-82.505
X42.3Y-110.064
X42.447Y-57.844
X42.847Y-54.703
X42.896Y-75.873
X43.049Y-136.291
X44.36Y-127.1
X45.8Y-111.6
X46.517Y-77.73
X48.0Y-98.774
X48.687Y-85.455
X52.256Y-133.851
X52.476Y-77.833
X53.05Y-74.573
X53.475Y-80.407
X53.72Y-87.568
X54.37Y-86.804
X54.593Y-40.52
X54.593Y-61.941
X55.02Y-80.415
X55.02Y-87.294
X55.6Y-72.4
X55.68Y-76.903
X55.68Y-86.277
X56.091Y-140.554
X57.122Y-77.643
X58.25Y-136.291
X58.629Y-97.007
X60.579Y-139.911
X60.667Y-134.72
X61.0Y-133.091
X61.295Y-133.947
X61.45Y-74.141
X63.85Y-137.3
X64.562Y-68.889
X64.701Y-135.174
X66.114Y-78.296
X66.25Y-140.257
X68.0Y-101.413
X68.656Y-135.352
X69.6Y-135.45
X70.976Y-134.713
X71.037Y-40.838
X71.605Y-98.99
X71.697Y-135.161
X72.75Y-77.932
X73.3Y-130.6
X73.6Y-140.9
X75.128Y-140.144
X75.45Y-74.013
X76.089Y-111.774
X76.9Y-135.9
X77.98Y-123.629
X78.22Y-140.9
X78.404Y-130.465
X79.189Y-71.431
X79.563Y-106.433
X80.128Y-74.958
X81.353Y-129.736
X81.781Y-73.883
X82.552Y-129.117
X82.593Y-40.52
X82.593Y-57.941
X83.2Y-120.437
X83.6Y-72.4
X84.784Y-80.165
X87.417Y-125.377
X88.651Y-130.921
X88.661Y-72.266
X91.286Y-128.419
X91.937Y-130.921
X92.3Y-125.559
X92.743Y-117.797
X92.842Y-76.671
X92.976Y-130.73
X93.57Y-86.277
X93.978Y-130.601
X94.053Y-80.791
X95.05Y-75.178
X95.564Y-122.432
X95.725Y-129.143
X96.593Y-40.52
X96.593Y-61.188
X96.983Y-79.174
X97.38Y-129.092
X97.6Y-72.4
X98.65Y-128.079
X99.631Y-135.161
X99.981Y-129.297
X100.453Y-77.948
X100.561Y-134.258
X100.763Y-127.645
X102.46Y-128.441
X103.45Y-74.611
X103.73Y-127.083
T2
X31.5Y-105.991
X31.5Y-106.991
X32.5Y-105.991
X32.5Y-106.991
T3
X3.7Y-99.3
X4.6Y-99.3
X5.0Y-3.0
X5.0Y-142.0
X10.5Y-119.797
X15.25Y-98.721
X15.4Y-57.31
X17.0Y-41.23
X17.05Y-36.83
X17.05Y-39.34
X17.378Y-109.027
X22.23Y-75.816
X22.628Y-87.705
X23.15Y-54.35
X24.216Y-88.455
X24.958Y-98.338
X25.04Y-25.8
X25.28Y-65.8
X28.5Y-36.2
X28.535Y-84.012
X28.896Y-102.25
X29.145Y-115.628
X30.0Y-3.0
X30.24Y-27.0
X32.9Y-54.4
X33.28Y-41.82
X36.2Y-67.5
X39.04Y-25.8
X39.04Y-54.35
X39.278Y-88.68
X42.5Y-36.2
X42.594Y-123.368
X43.7Y-108.099
X44.24Y-27.0
X44.24Y-47.5
X44.24Y-62.3
X44.576Y-102.694
X46.628Y-122.265
X46.7Y-134.55
X46.9Y-54.4
X47.28Y-41.82
X52.022Y-87.316
X52.792Y-93.749
X53.04Y-25.8
X53.04Y-54.6
X53.28Y-65.8
X55.0Y-3.0
X55.355Y-119.869
X56.5Y-36.2
X58.24Y-27.0
X58.7Y-118.151
X60.245Y-94.357
X60.9Y-54.4
X61.28Y-41.82
X61.778Y-106.68
X67.04Y-25.8
X67.04Y-58.3
X67.28Y-65.8
X69.245Y-98.857
X70.5Y-36.2
X72.24Y-27.0
X74.9Y-54.4
X75.28Y-41.82
X80.0Y-3.0
X81.04Y-25.8
X81.04Y-54.6
X81.28Y-65.8
X81.3Y-96.535
X84.5Y-36.2
X86.24Y-27.0
X88.9Y-54.4
X89.28Y-41.82
X95.04Y-25.8
X95.04Y-54.35
X95.28Y-65.8
X98.5Y-36.2
X100.24Y-27.0
X102.9Y-54.4
X103.28Y-41.82
X104.687Y-104.165
X105.0Y-3.0
T4
X2.0Y-91.447
X3.6Y-44.6
X3.6Y-46.6
X5.0Y-31.879
X5.0Y-91.447
X5.2Y-44.6
X5.2Y-46.6
X8.0Y-31.879
X8.0Y-91.447
X11.0Y-91.447
X18.32Y-91.247
X20.4Y-14.6
X20.4Y-18.0
X20.4Y-24.0
X20.4Y-30.0
X20.4Y-36.0
X20.4Y-42.0
X20.4Y-45.3
X20.4Y-47.3
X21.7Y-14.6
X21.7Y-18.0
X21.7Y-24.0
X21.7Y-30.0
X21.7Y-36.0
X21.7Y-42.0
X21.7Y-45.3
X21.7Y-47.3
X25.7Y-15.965
X27.5Y-15.965
X32.32Y-91.247
X39.7Y-15.965
X41.5Y-15.965
X46.32Y-91.247
X53.7Y-15.965
X55.5Y-15.965
X60.32Y-91.247
X67.7Y-15.965
X69.5Y-15.965
X74.32Y-91.247
X81.7Y-15.965
X83.5Y-15.965
X94.8Y-15.965
X96.6Y-15.965
T5
X73.1Y-139.79
X78.9Y-139.79
T7
X18.25Y-141.0
X20.75Y-141.0
X23.25Y-141.0
X25.75Y-141.0
T8
X30.92Y-142.0
X33.46Y-142.0
X36.0Y-142.0
X38.54Y-142.0
X41.08Y-142.0
T9
X7.19Y-8.0
X14.81Y-8.0
X26.19Y-8.0
X30.0Y-8.0
X33.81Y-8.0
X40.19Y-8.0
X44.0Y-8.0
X47.81Y-8.0
X54.19Y-8.0
X58.0Y-8.0
X61.81Y-8.0
X68.19Y-8.0
X72.0Y-8.0
X75.81Y-8.0
X82.19Y-8.0
X86.0Y-8.0
X89.81Y-8.0
X96.19Y-8.0
X100.0Y-8.0
X103.81Y-8.0
T10
X4.26Y-17.795
X4.26Y-21.195
X17.74Y-17.795
X17.74Y-21.195
T6
X71.67Y-138.94G85X71.67Y-139.64
G05
X71.67Y-143.27G85X71.67Y-143.67
G05
X80.33Y-138.94G85X80.33Y-139.64
G05
X80.33Y-143.27G85X80.33Y-143.67
G05
M30
