%TF.GenerationSoftware,KiCad,Pcbnew,10.0.5*%
%TF.CreationDate,2026-08-12T10:49:37+08:00*%
%TF.ProjectId,cct-main,6363742d-6d61-4696-9e2e-6b696361645f,rev?*%
%TF.SameCoordinates,Original*%
%TF.FileFunction,Legend,Bot*%
%TF.FilePolarity,Positive*%
%FSLAX46Y46*%
G04 Gerber Fmt 4.6, Leading zero omitted, Abs format (unit mm)*
G04 Created by KiCad (PCBNEW 10.0.5) date 2026-08-12 10:49:37*
%MOMM*%
%LPD*%
G01*
G04 APERTURE LIST*
%ADD10C,2.500000*%
%ADD11R,3.000000X3.000000*%
%ADD12C,3.000000*%
%ADD13C,3.200000*%
%ADD14C,2.000000*%
%ADD15R,1.700000X1.700000*%
%ADD16C,1.700000*%
%ADD17C,0.610000*%
%ADD18C,0.600000*%
%ADD19O,1.200000X2.000000*%
%ADD20O,1.200000X1.800000*%
G04 APERTURE END LIST*
%LPC*%
D10*
%TO.C,J7*%
X89810000Y-8000000D03*
X86000000Y-8000000D03*
X82190000Y-8000000D03*
%TD*%
%TO.C,F1*%
X4260000Y-17795000D03*
X4260000Y-21195000D03*
X17740000Y-17795000D03*
X17740000Y-21195000D03*
%TD*%
D11*
%TO.C,J1*%
X14810000Y-8000000D03*
D12*
X7190000Y-8000000D03*
%TD*%
D10*
%TO.C,J8*%
X103810000Y-8000000D03*
X100000000Y-8000000D03*
X96190000Y-8000000D03*
%TD*%
D13*
%TO.C,H1*%
X4000000Y-66000000D03*
%TD*%
D10*
%TO.C,J5*%
X61810000Y-8000000D03*
X58000000Y-8000000D03*
X54190000Y-8000000D03*
%TD*%
D14*
%TO.C,J11*%
X41080000Y-142000000D03*
X38540000Y-142000000D03*
X36000000Y-142000000D03*
X33460000Y-142000000D03*
X30920000Y-142000000D03*
%TD*%
D15*
%TO.C,J10*%
X25750000Y-141000000D03*
D16*
X23250000Y-141000000D03*
X20750000Y-141000000D03*
X18250000Y-141000000D03*
%TD*%
D13*
%TO.C,H4*%
X106000000Y-115000000D03*
%TD*%
D17*
%TO.C,U2*%
X31500000Y-105991000D03*
X31500000Y-106991000D03*
X32500000Y-105991000D03*
X32500000Y-106991000D03*
%TD*%
D10*
%TO.C,J3*%
X33810000Y-8000000D03*
X30000000Y-8000000D03*
X26190000Y-8000000D03*
%TD*%
D18*
%TO.C,J2*%
X73100000Y-139790000D03*
X78900000Y-139790000D03*
D19*
X80330000Y-139290000D03*
D20*
X80330000Y-143470000D03*
X71670000Y-143470000D03*
D19*
X71670000Y-139290000D03*
%TD*%
D13*
%TO.C,H2*%
X106000000Y-80000000D03*
%TD*%
%TO.C,H3*%
X4000000Y-133000000D03*
%TD*%
D10*
%TO.C,J6*%
X75810000Y-8000000D03*
X72000000Y-8000000D03*
X68190000Y-8000000D03*
%TD*%
%TO.C,J4*%
X47810000Y-8000000D03*
X44000000Y-8000000D03*
X40190000Y-8000000D03*
%TD*%
%LPD*%
M02*
