M48
; DRILL file KiCad 10.0.5 date 2026-08-18T14:59:27
; FORMAT={-:-/ absolute / metric / decimal}
; #@! TF.CreationDate,2026-08-18T14:59:27+08:00
; #@! TF.GenerationSoftware,Kicad,Pcbnew,10.0.5
; #@! TF.FileFunction,Plated,1,2,PTH
FMAT,2
METRIC
; #@! TA.AperFunction,Plated,PTH,ViaDrill
T1C0.300
; #@! TA.AperFunction,Plated,PTH,ComponentDrill
T2C0.300
; #@! TA.AperFunction,Plated,PTH,ComponentDrill
T3C0.800
; #@! TA.AperFunction,Plated,PTH,ComponentDrill
T4C1.000
; #@! TA.AperFunction,Plated,PTH,ComponentDrill
T5C1.300
; #@! TA.AperFunction,Plated,PTH,ComponentDrill
T6C1.600
; #@! TA.AperFunction,Plated,PTH,ComponentDrill
T7C1.800
%
G90
G05
T1
X3.0Y-28.0
X3.0Y-33.0
X3.0Y-43.0
X3.0Y-48.0
X3.0Y-53.0
X3.0Y-58.0
X3.0Y-79.0
X3.0Y-84.0
X3.0Y-89.0
X3.0Y-94.0
X3.0Y-99.0
X3.0Y-104.0
X3.0Y-109.0
X3.0Y-114.0
X3.0Y-119.0
X3.0Y-124.0
X3.0Y-129.0
X3.0Y-134.0
X3.0Y-139.0
X3.0Y-144.0
X4.65Y-118.84
X6.6Y-102.4
X6.6Y-119.3
X8.0Y-48.0
X8.0Y-53.0
X8.0Y-58.0
X8.0Y-79.0
X8.0Y-144.0
X8.87Y-6.2
X8.87Y-45.8
X10.0Y-118.04
X10.0Y-129.75
X10.0Y-132.15
X10.0Y-134.15
X10.14Y-6.2
X10.14Y-45.05
X10.5Y-59.8
X11.0Y-20.0
X11.0Y-32.0
X11.41Y-1.15
X12.0Y-19.75
X12.0Y-32.25
X12.68Y-2.0
X13.0Y-8.0
X13.0Y-13.0
X13.0Y-18.0
X13.0Y-38.0
X13.0Y-43.0
X13.0Y-48.0
X13.0Y-53.0
X13.0Y-58.0
X13.0Y-99.0
X13.0Y-144.0
X13.25Y-31.5
X13.25Y-35.0
X13.5Y-59.0
X13.95Y-6.2
X13.95Y-44.3
X14.0Y-118.04
X14.0Y-129.75
X14.0Y-132.15
X14.0Y-134.15
X14.75Y-30.75
X14.75Y-35.0
X15.7Y-55.45
X15.709Y-30.495
X16.49Y-6.2
X16.49Y-43.55
X17.0Y-94.0
X17.0Y-100.0
X17.0Y-113.2
X17.0Y-136.0
X17.0Y-143.0
X17.5Y-67.5
X17.5Y-71.0
X17.5Y-74.5
X17.76Y-6.2
X17.76Y-42.8
X18.0Y-48.0
X18.0Y-89.0
X18.0Y-99.0
X18.0Y-109.0
X18.0Y-114.0
X18.0Y-139.0
X18.0Y-144.0
X19.03Y-6.2
X19.03Y-39.05
X19.35Y-118.84
X19.66Y-19.0
X19.66Y-46.55
X20.3Y-6.2
X20.3Y-42.05
X20.5Y-67.5
X20.5Y-71.0
X20.5Y-74.5
X20.65Y-118.84
X21.57Y-6.2
X21.57Y-41.3
X22.21Y-19.0
X22.21Y-40.55
X22.28Y-56.0
X22.6Y-102.4
X22.6Y-119.3
X22.84Y-6.2
X22.84Y-38.3
X22.93Y-50.0
X23.0Y-144.0
X23.5Y-67.5
X23.5Y-71.0
X23.5Y-74.5
X24.0Y-15.75
X24.03Y-17.04
X24.03Y-39.8
X24.75Y-32.25
X24.872Y-33.168
X25.543Y-30.625
X26.0Y-32.0
X26.0Y-36.25
X26.0Y-118.04
X26.0Y-129.75
X26.0Y-132.15
X26.0Y-134.15
X26.25Y-30.0
X26.25Y-33.25
X26.25Y-44.25
X26.25Y-46.5
X26.5Y-59.0
X27.0Y-31.5
X27.0Y-35.5
X27.75Y-7.05
X27.75Y-8.918
X27.75Y-15.5
X27.75Y-30.75
X27.75Y-32.25
X27.75Y-34.75
X28.0Y-48.0
X28.0Y-53.0
X28.0Y-58.0
X28.0Y-84.0
X28.0Y-89.0
X28.0Y-94.0
X28.0Y-99.0
X28.0Y-114.0
X28.0Y-124.0
X28.0Y-129.0
X28.0Y-134.0
X28.0Y-144.0
X28.6Y-23.68
X29.4Y-23.0
X29.5Y-59.8
X30.0Y-118.04
X30.0Y-129.75
X30.0Y-132.15
X30.0Y-134.15
X30.7Y-8.15
X30.8Y-20.2
X30.8Y-27.76
X31.25Y-15.5
X32.2Y-19.95
X32.5Y-67.5
X32.5Y-71.0
X32.5Y-74.5
X33.0Y-3.0
X33.0Y-8.0
X33.0Y-53.0
X33.0Y-89.0
X33.0Y-94.0
X33.0Y-99.0
X33.0Y-100.0
X33.0Y-109.0
X33.0Y-113.2
X33.0Y-114.0
X33.0Y-136.0
X33.0Y-143.0
X33.0Y-144.0
X33.653Y-30.8
X34.25Y-15.5
X34.3Y-20.2
X34.3Y-27.08
X35.0Y-16.5
X35.35Y-118.84
X35.5Y-67.5
X35.5Y-71.0
X35.5Y-74.5
X35.7Y-19.95
X36.65Y-118.84
X37.75Y-15.5
X37.8Y-20.2
X37.8Y-29.12
X38.0Y-3.0
X38.0Y-33.0
X38.0Y-48.0
X38.0Y-84.0
X38.0Y-89.0
X38.0Y-99.0
X38.0Y-144.0
X38.5Y-16.5
X38.5Y-67.5
X38.5Y-71.0
X38.5Y-74.5
X38.6Y-102.4
X38.6Y-119.3
X39.2Y-19.95
X40.3Y-16.9
X41.25Y-15.5
X41.3Y-20.2
X41.3Y-28.44
X42.0Y-16.5
X42.0Y-18.0
X42.0Y-118.04
X42.0Y-129.75
X42.0Y-132.15
X42.0Y-134.15
X42.5Y-59.8
X42.7Y-19.95
X43.0Y-3.0
X43.0Y-8.0
X43.0Y-28.0
X43.0Y-33.0
X43.0Y-48.0
X43.0Y-99.0
X43.0Y-144.0
X43.25Y-50.0
X43.75Y-54.5
X44.25Y-16.9
X44.25Y-18.0
X44.25Y-22.25
X44.25Y-27.25
X44.75Y-56.0
X45.5Y-59.0
X45.7Y-18.95
X46.0Y-118.04
X46.0Y-129.75
X46.0Y-132.15
X46.0Y-134.15
X47.0Y-46.5
X47.0Y-56.0
X48.0Y-18.0
X48.0Y-33.0
X48.0Y-53.0
X48.0Y-89.0
X48.0Y-99.0
X48.0Y-109.0
X48.0Y-114.0
X48.0Y-124.0
X48.0Y-144.0
X48.83Y-22.07
X48.83Y-23.68
X49.0Y-94.0
X49.0Y-100.0
X49.0Y-113.2
X49.0Y-136.0
X49.0Y-143.0
X49.3Y-10.9
X50.1Y-22.07
X50.1Y-23.0
X50.25Y-46.5
X50.4Y-13.6
X50.5Y-27.25
X50.5Y-67.5
X50.5Y-71.0
X50.5Y-74.5
X50.9Y-12.2
X51.25Y-48.26
X51.35Y-118.84
X51.9Y-13.6
X52.0Y-18.75
X52.0Y-45.5
X52.25Y-7.75
X52.6Y-12.2
X52.65Y-118.84
X52.75Y-13.75
X52.75Y-18.0
X52.75Y-20.75
X52.75Y-22.5
X52.75Y-27.25
X52.9Y-44.934
X53.0Y-3.0
X53.0Y-23.5
X53.0Y-28.25
X53.0Y-33.0
X53.0Y-53.0
X53.0Y-84.0
X53.0Y-89.0
X53.0Y-144.0
X53.5Y-67.5
X53.5Y-71.0
X53.5Y-74.5
X53.9Y-13.6
X53.9Y-22.47
X54.0Y-20.75
X54.25Y-23.5
X54.25Y-27.25
X54.6Y-102.4
X54.6Y-119.3
X54.7Y-10.9
X54.75Y-13.0
X55.5Y-18.0
X55.625Y-8.646
X56.0Y-19.5
X56.0Y-46.5
X57.3Y-10.9
X58.0Y-3.0
X58.0Y-53.0
X58.0Y-58.0
X58.0Y-118.04
X58.0Y-129.75
X58.0Y-132.15
X58.0Y-134.15
X58.0Y-144.0
X58.5Y-61.4
X61.5Y-60.6
X62.0Y-118.04
X62.0Y-129.75
X62.0Y-132.15
X62.0Y-134.15
X62.25Y-54.5
X63.0Y-8.0
X63.0Y-13.0
X63.0Y-28.0
X63.0Y-48.0
X63.0Y-58.0
X63.0Y-89.0
X63.0Y-99.0
X63.0Y-144.0
X64.65Y-54.5
X65.0Y-94.0
X65.0Y-100.0
X65.0Y-113.2
X65.0Y-136.0
X65.0Y-143.0
X65.5Y-67.5
X65.5Y-71.0
X65.5Y-74.5
X67.35Y-118.84
X68.0Y-3.0
X68.0Y-8.0
X68.0Y-13.0
X68.0Y-28.0
X68.0Y-84.0
X68.0Y-89.0
X68.0Y-124.0
X68.0Y-129.0
X68.0Y-134.0
X68.0Y-139.0
X68.0Y-144.0
X68.5Y-67.5
X68.5Y-71.0
X68.5Y-74.5
X68.65Y-118.84
X70.25Y-9.5
X70.28Y-56.0
X70.6Y-102.4
X70.6Y-119.3
X70.65Y-28.703
X70.75Y-37.25
X70.93Y-50.0
X71.5Y-67.5
X71.5Y-71.0
X71.5Y-74.5
X73.0Y-3.0
X73.0Y-8.0
X73.0Y-13.0
X73.0Y-18.0
X73.0Y-58.0
X73.0Y-144.0
X74.0Y-118.04
X74.0Y-129.75
X74.0Y-132.15
X74.0Y-134.15
X74.25Y-35.568
X74.25Y-41.5
X74.25Y-45.8
X74.5Y-60.6
X75.25Y-6.2
X75.25Y-25.04
X76.72Y-31.55
X77.5Y-61.4
X77.75Y-6.2
X77.75Y-24.36
X78.0Y-3.0
X78.0Y-53.0
X78.0Y-58.0
X78.0Y-99.0
X78.0Y-118.04
X78.0Y-129.75
X78.0Y-132.15
X78.0Y-134.15
X78.0Y-139.0
X78.0Y-144.0
X78.25Y-38.2
X79.7Y-44.95
X80.48Y-29.05
X80.5Y-67.5
X80.5Y-71.0
X80.5Y-74.5
X81.0Y-94.0
X81.0Y-100.0
X81.0Y-113.2
X81.0Y-136.0
X81.0Y-143.0
X81.25Y-32.0
X82.75Y-38.0
X83.0Y-3.0
X83.0Y-8.0
X83.0Y-13.0
X83.0Y-18.0
X83.0Y-53.0
X83.0Y-58.0
X83.0Y-84.0
X83.0Y-89.0
X83.0Y-139.0
X83.0Y-144.0
X83.35Y-118.84
X83.5Y-67.5
X83.5Y-71.0
X83.5Y-74.5
X83.75Y-43.0
X84.0Y-31.75
X84.65Y-118.84
X85.48Y-29.05
X86.1Y-40.57
X86.25Y-45.0
X86.5Y-67.5
X86.5Y-71.0
X86.5Y-74.5
X86.6Y-102.4
X86.6Y-119.3
X86.75Y-41.5
X87.0Y-30.5
X87.37Y-40.57
X88.0Y-3.0
X88.0Y-8.0
X88.0Y-13.0
X88.0Y-18.0
X88.0Y-53.0
X88.0Y-58.0
X88.0Y-144.0
X88.25Y-31.75
X88.626Y-39.211
X90.0Y-118.04
X90.0Y-129.75
X90.0Y-132.15
X90.0Y-134.15
X90.088Y-30.0
X90.5Y-59.0
X93.0Y-3.0
X93.0Y-8.0
X93.0Y-13.0
X93.0Y-18.0
X93.0Y-43.0
X93.0Y-48.0
X93.0Y-53.0
X93.0Y-58.0
X93.0Y-99.0
X93.0Y-144.0
X93.5Y-59.8
X94.0Y-118.04
X94.0Y-129.75
X94.0Y-132.15
X94.0Y-134.15
X97.0Y-94.0
X97.0Y-100.0
X97.0Y-113.2
X97.0Y-136.0
X97.0Y-143.0
X98.0Y-3.0
X98.0Y-8.0
X98.0Y-13.0
X98.0Y-18.0
X98.0Y-43.0
X98.0Y-48.0
X98.0Y-53.0
X98.0Y-58.0
X98.0Y-89.0
X98.0Y-99.0
X98.0Y-109.0
X98.0Y-139.0
X98.0Y-144.0
X98.5Y-67.5
X98.5Y-71.0
X98.5Y-74.5
X99.35Y-118.84
X101.5Y-61.0
X101.5Y-67.5
X101.5Y-71.0
X101.5Y-74.5
X101.5Y-137.0
X101.5Y-142.0
X103.0Y-3.0
X103.0Y-8.0
X103.0Y-13.0
X103.0Y-18.0
X103.0Y-43.0
X103.0Y-48.0
X103.0Y-53.0
X103.0Y-58.0
X104.5Y-67.5
X104.5Y-71.0
X104.5Y-74.5
X106.5Y-38.0
X106.5Y-61.0
X106.5Y-132.0
X106.5Y-137.0
X106.5Y-142.0
X108.0Y-3.0
X108.0Y-43.0
X108.0Y-48.0
X108.0Y-53.0
X108.0Y-58.0
X108.25Y-63.6
X108.25Y-68.13
X108.75Y-9.8
X108.75Y-13.2
X108.75Y-26.4
X108.75Y-59.8
X109.475Y-79.695
X109.475Y-90.795
X109.475Y-101.895
X109.75Y-36.0
X111.5Y-61.0
X111.5Y-66.0
X112.036Y-36.0
X112.75Y-108.25
X113.0Y-43.0
X113.0Y-48.0
X113.0Y-53.0
X113.0Y-58.0
X113.25Y-9.8
X113.25Y-13.2
X113.25Y-25.72
X113.52Y-30.95
X116.0Y-41.75
X116.0Y-43.75
X116.3Y-65.78
X116.48Y-37.35
X116.5Y-61.0
X116.5Y-137.0
X116.5Y-142.0
X117.0Y-90.75
X117.0Y-102.0
X117.0Y-106.0
X117.75Y-34.25
X117.8Y-43.7
X118.0Y-53.0
X118.0Y-58.0
X118.75Y-108.5
X119.0Y-43.0
X119.0Y-44.5
X119.0Y-45.75
X119.52Y-30.95
X120.76Y-36.0
X121.0Y-45.95
X121.25Y-108.5
X121.338Y-36.95
X121.5Y-61.0
X121.5Y-66.0
X121.5Y-71.0
X121.5Y-137.0
X121.58Y-30.0
X121.75Y-27.25
X121.75Y-33.25
X122.875Y-90.795
X122.875Y-101.895
X123.0Y-3.0
X123.0Y-8.0
X123.041Y-79.649
X123.653Y-112.216
X124.25Y-63.0
X124.75Y-30.0
X124.75Y-32.25
X125.75Y-45.0
X126.5Y-61.0
X126.5Y-71.0
X126.5Y-132.0
X126.5Y-137.0
X126.5Y-142.0
X126.505Y-76.505
X128.0Y-30.95
T2
X87.5Y-35.5
X87.5Y-36.5
X88.5Y-35.5
X88.5Y-36.5
T4
X70.25Y-5.0
X72.75Y-5.0
X75.25Y-5.0
X77.75Y-5.0
T5
X31.92Y-5.0
X34.46Y-5.0
X37.0Y-5.0
X39.54Y-5.0
X42.08Y-5.0
T6
X8.19Y-141.2
X12.0Y-141.2
X15.81Y-141.2
X24.19Y-141.2
X28.0Y-141.2
X31.81Y-141.2
X40.19Y-141.2
X44.0Y-141.2
X47.81Y-141.2
X56.19Y-141.2
X60.0Y-141.2
X63.81Y-141.2
X72.19Y-141.2
X76.0Y-141.2
X79.81Y-141.2
X88.19Y-141.2
X92.0Y-141.2
X95.81Y-141.2
X112.19Y-141.2
X119.81Y-141.2
T7
X109.26Y-125.61
X109.26Y-129.01
X122.74Y-125.61
X122.74Y-129.01
T3
X47.67Y-4.23G85X47.67Y-3.83
G05
X47.67Y-8.56G85X47.67Y-7.86
G05
X56.33Y-4.23G85X56.33Y-3.83
G05
X56.33Y-8.56G85X56.33Y-7.86
G05
M30
