%TF.GenerationSoftware,KiCad,Pcbnew,10.0.5*%
%TF.CreationDate,2026-08-18T14:59:27+08:00*%
%TF.ProjectId,cct-main,6363742d-6d61-4696-9e2e-6b696361645f,rev?*%
%TF.SameCoordinates,Original*%
%TF.FileFunction,Paste,Top*%
%TF.FilePolarity,Positive*%
%FSLAX46Y46*%
G04 Gerber Fmt 4.6, Leading zero omitted, Abs format (unit mm)*
G04 Created by KiCad (PCBNEW 10.0.5) date 2026-08-18 14:59:27*
%MOMM*%
%LPD*%
G01*
G04 APERTURE LIST*
G04 Aperture macros list*
%AMRoundRect*
0 Rectangle with rounded corners*
0 $1 Rounding radius*
0 $2 $3 $4 $5 $6 $7 $8 $9 X,Y pos of 4 corners*
0 Add a 4 corners polygon primitive as box body*
4,1,4,$2,$3,$4,$5,$6,$7,$8,$9,$2,$3,0*
0 Add four circle primitives for the rounded corners*
1,1,$1+$1,$2,$3*
1,1,$1+$1,$4,$5*
1,1,$1+$1,$6,$7*
1,1,$1+$1,$8,$9*
0 Add four rect primitives between the rounded corners*
20,1,$1+$1,$2,$3,$4,$5,0*
20,1,$1+$1,$4,$5,$6,$7,0*
20,1,$1+$1,$6,$7,$8,$9,0*
20,1,$1+$1,$8,$9,$2,$3,0*%
%AMFreePoly0*
4,1,17,0.260297,0.685443,0.274942,0.650088,0.274942,-0.649935,0.260297,-0.685290,0.224942,-0.699935,0.000331,-0.699935,-0.000038,-0.700088,-0.225038,-0.700088,-0.260393,-0.685443,-0.275038,-0.650088,-0.275038,0.649935,-0.260393,0.685290,-0.225038,0.699935,-0.000426,0.699935,-0.000057,0.700088,0.224942,0.700088,0.260297,0.685443,0.260297,0.685443,$1*%
%AMFreePoly1*
4,1,17,0.260412,0.685290,0.275057,0.649935,0.275057,-0.650037,0.260412,-0.685392,0.225057,-0.700037,0.000155,-0.700037,0.000095,-0.700062,-0.224923,-0.700062,-0.260278,-0.685417,-0.274923,-0.650062,-0.274923,0.649910,-0.260278,0.685265,-0.224923,0.699910,-0.000022,0.699910,0.000038,0.699935,0.225057,0.699935,0.260412,0.685290,0.260412,0.685290,$1*%
%AMFreePoly2*
4,1,13,0.260259,0.685443,0.274904,0.650088,0.274904,-0.649884,0.260259,-0.685239,0.224904,-0.699884,-0.225114,-0.699884,-0.260469,-0.685239,-0.275114,-0.649884,-0.275114,0.650088,-0.260469,0.685443,-0.225114,0.700088,0.224904,0.700088,0.260259,0.685443,0.260259,0.685443,$1*%
G04 Aperture macros list end*
%ADD10R,3.800000X3.000000*%
%ADD11R,0.800000X0.900000*%
%ADD12R,0.806000X0.864000*%
%ADD13R,1.000000X1.400000*%
%ADD14R,1.600000X3.000000*%
%ADD15R,6.000000X6.500000*%
%ADD16R,2.700000X1.635000*%
%ADD17R,2.047000X2.192000*%
%ADD18R,4.600000X1.600000*%
%ADD19R,1.635000X2.700000*%
%ADD20R,1.410000X1.350000*%
%ADD21R,0.910000X1.220000*%
%ADD22R,1.000000X0.650000*%
%ADD23R,1.000000X0.750000*%
%ADD24R,0.979000X2.409000*%
%ADD25R,5.548000X5.711000*%
%ADD26O,0.574000X2.038000*%
%ADD27R,1.600000X1.600000*%
%ADD28FreePoly0,180.000000*%
%ADD29FreePoly1,180.000000*%
%ADD30R,0.300000X1.300000*%
%ADD31FreePoly2,180.000000*%
%ADD32R,1.283000X3.456000*%
%ADD33O,0.364000X1.742000*%
%ADD34R,2.500000X1.100000*%
%ADD35R,2.340000X3.600000*%
%ADD36R,1.037000X0.532000*%
%ADD37RoundRect,0.250000X-0.312500X-0.625000X0.312500X-0.625000X0.312500X0.625000X-0.312500X0.625000X0*%
%ADD38R,2.900000X5.400000*%
%ADD39R,0.800000X0.800000*%
%ADD40O,0.560000X1.745000*%
%ADD41R,0.700000X1.600000*%
%ADD42R,1.000000X2.300000*%
%ADD43R,0.950000X2.100000*%
%ADD44R,2.100000X0.950000*%
%ADD45R,0.900000X0.900000*%
%ADD46R,1.407000X3.499000*%
G04 APERTURE END LIST*
D10*
%TO.C,F4*%
X63400000Y-81670000D03*
X56600000Y-81670000D03*
%TD*%
D11*
%TO.C,C19*%
X75300000Y-120840000D03*
X76700000Y-120840000D03*
%TD*%
D12*
%TO.C,R32*%
X57770000Y-104780000D03*
X59270000Y-104780000D03*
%TD*%
D13*
%TO.C,LED7*%
X66569999Y-104780000D03*
X64469999Y-104780000D03*
%TD*%
D14*
%TO.C,Q17*%
X10280000Y-124969999D03*
D15*
X8000000Y-131549999D03*
D14*
X5720000Y-124969999D03*
%TD*%
D16*
%TO.C,C46*%
X106300000Y-66520000D03*
X106300000Y-63480000D03*
%TD*%
D11*
%TO.C,C15*%
X14300000Y-54500000D03*
X15700000Y-54500000D03*
%TD*%
D14*
%TO.C,Q12*%
X66280000Y-124969999D03*
D15*
X64000000Y-131549999D03*
D14*
X61720000Y-124969999D03*
%TD*%
D17*
%TO.C,D8*%
X93640000Y-110100000D03*
X98360000Y-110100000D03*
%TD*%
D11*
%TO.C,C34*%
X91700000Y-30000000D03*
X90300000Y-30000000D03*
%TD*%
D17*
%TO.C,D27*%
X10360000Y-110100000D03*
X5640000Y-110100000D03*
%TD*%
D12*
%TO.C,R47*%
X19350000Y-120840000D03*
X17850000Y-120840000D03*
%TD*%
D18*
%TO.C,C24*%
X24280000Y-97130000D03*
X31720000Y-97130000D03*
%TD*%
D12*
%TO.C,R34*%
X36650000Y-120840000D03*
X38150000Y-120840000D03*
%TD*%
D11*
%TO.C,C13*%
X44300000Y-18000000D03*
X45700000Y-18000000D03*
%TD*%
D17*
%TO.C,D26*%
X18360000Y-116240000D03*
X13640000Y-116240000D03*
%TD*%
D12*
%TO.C,R65*%
X74250000Y-44000000D03*
X75750000Y-44000000D03*
%TD*%
D17*
%TO.C,D9*%
X69640000Y-116240000D03*
X74360000Y-116240000D03*
%TD*%
D12*
%TO.C,R18*%
X87950000Y-120840000D03*
X89450000Y-120840000D03*
%TD*%
D17*
%TO.C,D11*%
X74360000Y-110100000D03*
X69640000Y-110100000D03*
%TD*%
D19*
%TO.C,C44*%
X108480000Y-135300000D03*
X111520000Y-135300000D03*
%TD*%
D12*
%TO.C,R48*%
X7950000Y-120840000D03*
X9450000Y-120840000D03*
%TD*%
D11*
%TO.C,C27*%
X11300000Y-120840000D03*
X12700000Y-120840000D03*
%TD*%
%TO.C,C43*%
X123300000Y-45000000D03*
X124700000Y-45000000D03*
%TD*%
D14*
%TO.C,Q15*%
X26280000Y-124969999D03*
D15*
X24000000Y-131549999D03*
D14*
X21720000Y-124969999D03*
%TD*%
%TO.C,Q8*%
X98280000Y-124969999D03*
D15*
X96000000Y-131549999D03*
D14*
X93720000Y-124969999D03*
%TD*%
D12*
%TO.C,R22*%
X68650000Y-120840000D03*
X70150000Y-120840000D03*
%TD*%
D17*
%TO.C,D13*%
X53640000Y-116240000D03*
X58360000Y-116240000D03*
%TD*%
D13*
%TO.C,LED12*%
X5430000Y-104780000D03*
X7530000Y-104780000D03*
%TD*%
D14*
%TO.C,Q11*%
X58280000Y-124969999D03*
D15*
X56000000Y-131549999D03*
D14*
X53720000Y-124969999D03*
%TD*%
D12*
%TO.C,R25*%
X80050000Y-120840000D03*
X78550000Y-120840000D03*
%TD*%
D20*
%TO.C,C42*%
X119000000Y-45000000D03*
X121000000Y-45000000D03*
%TD*%
D12*
%TO.C,R37*%
X48050000Y-120840000D03*
X46550000Y-120840000D03*
%TD*%
D14*
%TO.C,Q10*%
X82280000Y-124969999D03*
D15*
X80000000Y-131549999D03*
D14*
X77720000Y-124969999D03*
%TD*%
D12*
%TO.C,R43*%
X32050000Y-120840000D03*
X30550000Y-120840000D03*
%TD*%
D21*
%TO.C,DZ1*%
X121360000Y-108500000D03*
X124640000Y-108500000D03*
%TD*%
D14*
%TO.C,Q7*%
X90280000Y-124969999D03*
D15*
X88000000Y-131549999D03*
D14*
X85720000Y-124969999D03*
%TD*%
D12*
%TO.C,R54*%
X30750000Y-12000000D03*
X32250000Y-12000000D03*
%TD*%
D17*
%TO.C,D2*%
X83640000Y-43000000D03*
X88360000Y-43000000D03*
%TD*%
D22*
%TO.C,Q6*%
X49000000Y-55450000D03*
X49000000Y-53550000D03*
X47000000Y-54500000D03*
%TD*%
D13*
%TO.C,LED9*%
X50569999Y-104780000D03*
X48469999Y-104780000D03*
%TD*%
D10*
%TO.C,F3*%
X79400000Y-81670000D03*
X72600000Y-81670000D03*
%TD*%
D12*
%TO.C,R35*%
X51350000Y-120840000D03*
X49850000Y-120840000D03*
%TD*%
D18*
%TO.C,C5*%
X103580000Y-79740000D03*
X111020000Y-79740000D03*
%TD*%
D12*
%TO.C,R49*%
X16050000Y-120840000D03*
X14550000Y-120840000D03*
%TD*%
%TO.C,R23*%
X83350000Y-120840000D03*
X81850000Y-120840000D03*
%TD*%
%TO.C,R26*%
X73770000Y-104780000D03*
X75270000Y-104780000D03*
%TD*%
D23*
%TO.C,SW1*%
X19000000Y-33150000D03*
X25000000Y-33150000D03*
X19000000Y-36850000D03*
X25000000Y-36850000D03*
%TD*%
D11*
%TO.C,C28*%
X30800000Y-19000000D03*
X32200000Y-19000000D03*
%TD*%
D12*
%TO.C,R27*%
X78230000Y-104780000D03*
X76730000Y-104780000D03*
%TD*%
%TO.C,R16*%
X84650000Y-120840000D03*
X86150000Y-120840000D03*
%TD*%
%TO.C,R17*%
X99350000Y-120840000D03*
X97850000Y-120840000D03*
%TD*%
%TO.C,R8*%
X27750000Y-10000000D03*
X29250000Y-10000000D03*
%TD*%
%TO.C,R50*%
X9770000Y-104780000D03*
X11270000Y-104780000D03*
%TD*%
D13*
%TO.C,LED8*%
X37430000Y-104780000D03*
X39530000Y-104780000D03*
%TD*%
D11*
%TO.C,C38*%
X91800000Y-34500000D03*
X93200000Y-34500000D03*
%TD*%
D13*
%TO.C,LED6*%
X53430000Y-104780000D03*
X55530000Y-104780000D03*
%TD*%
D12*
%TO.C,R9*%
X58250000Y-13000000D03*
X59750000Y-13000000D03*
%TD*%
D18*
%TO.C,C2*%
X116980000Y-101940000D03*
X124420000Y-101940000D03*
%TD*%
D19*
%TO.C,C36*%
X110480000Y-30000000D03*
X113520000Y-30000000D03*
%TD*%
D17*
%TO.C,D1*%
X118340000Y-79740000D03*
X123060000Y-79740000D03*
%TD*%
D24*
%TO.C,Q1*%
X109290000Y-109120000D03*
D25*
X107000000Y-115960000D03*
D24*
X104710000Y-109120000D03*
%TD*%
D12*
%TO.C,R40*%
X20650000Y-120840000D03*
X22150000Y-120840000D03*
%TD*%
D22*
%TO.C,Q3*%
X35000000Y-55450000D03*
X35000000Y-53550000D03*
X33000000Y-54500000D03*
%TD*%
D14*
%TO.C,Q9*%
X74280000Y-124969999D03*
D15*
X72000000Y-131549999D03*
D14*
X69720000Y-124969999D03*
%TD*%
D12*
%TO.C,R53*%
X111750000Y-12000000D03*
X113250000Y-12000000D03*
%TD*%
%TO.C,R3*%
X37250000Y-54500000D03*
X38750000Y-54500000D03*
%TD*%
D17*
%TO.C,D5*%
X85640000Y-116240000D03*
X90360000Y-116240000D03*
%TD*%
D12*
%TO.C,R41*%
X35350000Y-120840000D03*
X33850000Y-120840000D03*
%TD*%
D26*
%TO.C,U2*%
X89900000Y-33230000D03*
X88630000Y-33230000D03*
X87370000Y-33230000D03*
X86100000Y-33230000D03*
X86100000Y-38770000D03*
X87370000Y-38770000D03*
X88630000Y-38770000D03*
X89900000Y-38770000D03*
D27*
X88000000Y-36000000D03*
%TD*%
D28*
%TO.C,J2*%
X55200000Y-8970000D03*
D29*
X54400000Y-8970000D03*
D30*
X53250000Y-8970000D03*
X52250000Y-8970000D03*
X51750000Y-8970000D03*
X50750000Y-8970000D03*
D31*
X48800000Y-8970000D03*
X49600000Y-8970000D03*
D30*
X50250000Y-8970000D03*
X51250000Y-8970000D03*
X52750000Y-8970000D03*
X53750000Y-8970000D03*
%TD*%
D12*
%TO.C,R31*%
X64050000Y-120840000D03*
X62550000Y-120840000D03*
%TD*%
D17*
%TO.C,D22*%
X34360000Y-116240000D03*
X29640000Y-116240000D03*
%TD*%
D19*
%TO.C,C37*%
X116480000Y-30000000D03*
X119520000Y-30000000D03*
%TD*%
D24*
%TO.C,Q2*%
X117290000Y-109120000D03*
D25*
X115000000Y-115960000D03*
D24*
X112710000Y-109120000D03*
%TD*%
D20*
%TO.C,C10*%
X9500000Y-30800000D03*
X11500000Y-30800000D03*
%TD*%
D32*
%TO.C,RS1*%
X113070000Y-71210000D03*
X106930000Y-71210000D03*
%TD*%
D14*
%TO.C,Q18*%
X18280000Y-124969999D03*
D15*
X16000000Y-131549999D03*
D14*
X13720000Y-124969999D03*
%TD*%
D17*
%TO.C,D6*%
X98360000Y-116240000D03*
X93640000Y-116240000D03*
%TD*%
D11*
%TO.C,C29*%
X34300000Y-19000000D03*
X35700000Y-19000000D03*
%TD*%
D17*
%TO.C,D28*%
X13640000Y-110100000D03*
X18360000Y-110100000D03*
%TD*%
%TO.C,D7*%
X90360000Y-110100000D03*
X85640000Y-110100000D03*
%TD*%
D12*
%TO.C,R12*%
X57250000Y-46500000D03*
X58750000Y-46500000D03*
%TD*%
%TO.C,R5*%
X27750000Y-30800000D03*
X29250000Y-30800000D03*
%TD*%
D17*
%TO.C,D21*%
X21640000Y-116240000D03*
X26360000Y-116240000D03*
%TD*%
D12*
%TO.C,R64*%
X78250000Y-40000000D03*
X79750000Y-40000000D03*
%TD*%
%TO.C,R24*%
X71950000Y-120840000D03*
X73450000Y-120840000D03*
%TD*%
%TO.C,R62*%
X81250000Y-34500000D03*
X82750000Y-34500000D03*
%TD*%
%TO.C,R51*%
X14230000Y-104780000D03*
X12730000Y-104780000D03*
%TD*%
D30*
%TO.C,U1*%
X110250000Y-61630000D03*
X109750000Y-61630000D03*
X109250000Y-61630000D03*
X108750000Y-61630000D03*
X108250000Y-61630000D03*
X108250000Y-66330000D03*
X108750000Y-66330000D03*
X109250000Y-66330000D03*
X109750000Y-66330000D03*
X110250000Y-66330000D03*
%TD*%
D18*
%TO.C,C22*%
X40280000Y-97130000D03*
X47720000Y-97130000D03*
%TD*%
D14*
%TO.C,Q14*%
X50280000Y-124969999D03*
D15*
X48000000Y-131549999D03*
D14*
X45720000Y-124969999D03*
%TD*%
%TO.C,Q16*%
X34280000Y-124969999D03*
D15*
X32000000Y-131549999D03*
D14*
X29720000Y-124969999D03*
%TD*%
D13*
%TO.C,LED5*%
X82570000Y-104780000D03*
X80470000Y-104780000D03*
%TD*%
D12*
%TO.C,R55*%
X34250000Y-12000000D03*
X35750000Y-12000000D03*
%TD*%
%TO.C,R45*%
X30230000Y-104780000D03*
X28730000Y-104780000D03*
%TD*%
D18*
%TO.C,C18*%
X72280000Y-97130000D03*
X79720000Y-97130000D03*
%TD*%
D11*
%TO.C,C31*%
X41300000Y-19000000D03*
X42700000Y-19000000D03*
%TD*%
%TO.C,C14*%
X62300000Y-54500000D03*
X63700000Y-54500000D03*
%TD*%
%TO.C,C39*%
X78300000Y-44000000D03*
X79700000Y-44000000D03*
%TD*%
D17*
%TO.C,D25*%
X5640000Y-116240000D03*
X10360000Y-116240000D03*
%TD*%
%TO.C,D12*%
X77640000Y-110100000D03*
X82360000Y-110100000D03*
%TD*%
D14*
%TO.C,Q13*%
X42280000Y-124969999D03*
D15*
X40000000Y-131549999D03*
D14*
X37720000Y-124969999D03*
%TD*%
D12*
%TO.C,R66*%
X78250000Y-48000000D03*
X79750000Y-48000000D03*
%TD*%
D20*
%TO.C,C41*%
X126000000Y-30000000D03*
X128000000Y-30000000D03*
%TD*%
D13*
%TO.C,LED3*%
X98570000Y-104780000D03*
X96470000Y-104780000D03*
%TD*%
D12*
%TO.C,R46*%
X4650000Y-120840000D03*
X6150000Y-120840000D03*
%TD*%
%TO.C,R33*%
X62230000Y-104780000D03*
X60730000Y-104780000D03*
%TD*%
D18*
%TO.C,C26*%
X8280000Y-97130000D03*
X15720000Y-97130000D03*
%TD*%
D11*
%TO.C,C23*%
X43300000Y-120840000D03*
X44700000Y-120840000D03*
%TD*%
%TO.C,C11*%
X14300000Y-30800000D03*
X15700000Y-30800000D03*
%TD*%
D12*
%TO.C,R52*%
X107250000Y-12000000D03*
X108750000Y-12000000D03*
%TD*%
D13*
%TO.C,LED11*%
X34569999Y-104780000D03*
X32469999Y-104780000D03*
%TD*%
D18*
%TO.C,C20*%
X56280000Y-97130000D03*
X63720000Y-97130000D03*
%TD*%
D17*
%TO.C,D4*%
X118640000Y-36000000D03*
X123360000Y-36000000D03*
%TD*%
D19*
%TO.C,C45*%
X118480000Y-71210000D03*
X121520000Y-71210000D03*
%TD*%
D33*
%TO.C,U7*%
X22930000Y-51630000D03*
X22280000Y-51630000D03*
X21630000Y-51630000D03*
X20980000Y-51630000D03*
X20320000Y-51630000D03*
X19670000Y-51630000D03*
X19020000Y-51630000D03*
X18370000Y-51630000D03*
X17720000Y-51630000D03*
X17070000Y-51630000D03*
X17070000Y-57370000D03*
X17720000Y-57370000D03*
X18370000Y-57370000D03*
X19020000Y-57370000D03*
X19670000Y-57370000D03*
X20320000Y-57370000D03*
X20980000Y-57370000D03*
X21630000Y-57370000D03*
X22280000Y-57370000D03*
X22930000Y-57370000D03*
%TD*%
D19*
%TO.C,C32*%
X83520000Y-30000000D03*
X80480000Y-30000000D03*
%TD*%
D12*
%TO.C,R2*%
X29250000Y-54500000D03*
X30750000Y-54500000D03*
%TD*%
D17*
%TO.C,D3*%
X109640000Y-36000000D03*
X114360000Y-36000000D03*
%TD*%
D34*
%TO.C,U3*%
X115970000Y-48300000D03*
X115970000Y-46000000D03*
X115970000Y-43700000D03*
D35*
X110030000Y-46000000D03*
%TD*%
D36*
%TO.C,Q5*%
X55100000Y-47450000D03*
X55100000Y-45550000D03*
X52900000Y-46500000D03*
%TD*%
D17*
%TO.C,D24*%
X29640000Y-110100000D03*
X34360000Y-110100000D03*
%TD*%
D12*
%TO.C,R44*%
X25770000Y-104780000D03*
X27270000Y-104780000D03*
%TD*%
D17*
%TO.C,D18*%
X50360000Y-116240000D03*
X45640000Y-116240000D03*
%TD*%
D37*
%TO.C,R68*%
X115537500Y-135300000D03*
X118462500Y-135300000D03*
%TD*%
D12*
%TO.C,R14*%
X51250000Y-54500000D03*
X52750000Y-54500000D03*
%TD*%
%TO.C,R67*%
X74250000Y-52000000D03*
X75750000Y-52000000D03*
%TD*%
D11*
%TO.C,C6*%
X116300000Y-63980000D03*
X117700000Y-63980000D03*
%TD*%
D12*
%TO.C,R29*%
X67349999Y-120840000D03*
X65849999Y-120840000D03*
%TD*%
%TO.C,R20*%
X89770000Y-104780000D03*
X91270000Y-104780000D03*
%TD*%
%TO.C,R63*%
X74250000Y-40000000D03*
X75750000Y-40000000D03*
%TD*%
D33*
%TO.C,U6*%
X70930000Y-51630000D03*
X70280000Y-51630000D03*
X69630000Y-51630000D03*
X68980000Y-51630000D03*
X68320000Y-51630000D03*
X67670000Y-51630000D03*
X67020000Y-51630000D03*
X66370000Y-51630000D03*
X65720000Y-51630000D03*
X65070000Y-51630000D03*
X65070000Y-57370000D03*
X65720000Y-57370000D03*
X66370000Y-57370000D03*
X67020000Y-57370000D03*
X67670000Y-57370000D03*
X68320000Y-57370000D03*
X68980000Y-57370000D03*
X69630000Y-57370000D03*
X70280000Y-57370000D03*
X70930000Y-57370000D03*
%TD*%
D11*
%TO.C,C30*%
X37800000Y-19000000D03*
X39200000Y-19000000D03*
%TD*%
D38*
%TO.C,L1*%
X95550000Y-36000000D03*
X106450000Y-36000000D03*
%TD*%
D12*
%TO.C,R19*%
X96050000Y-120840000D03*
X94550000Y-120840000D03*
%TD*%
D10*
%TO.C,F2*%
X95400000Y-81670000D03*
X88600000Y-81670000D03*
%TD*%
D18*
%TO.C,C3*%
X103580000Y-90840000D03*
X111020000Y-90840000D03*
%TD*%
D36*
%TO.C,Q4*%
X47100000Y-47450000D03*
X47100000Y-45550000D03*
X44900000Y-46500000D03*
%TD*%
D13*
%TO.C,LED13*%
X18570000Y-104780000D03*
X16470000Y-104780000D03*
%TD*%
D12*
%TO.C,R30*%
X55950000Y-120840000D03*
X57450000Y-120840000D03*
%TD*%
D11*
%TO.C,C40*%
X74300000Y-48000000D03*
X75700000Y-48000000D03*
%TD*%
D12*
%TO.C,R56*%
X37750000Y-12000000D03*
X39250000Y-12000000D03*
%TD*%
D17*
%TO.C,D17*%
X37640000Y-116240000D03*
X42360000Y-116240000D03*
%TD*%
D12*
%TO.C,R42*%
X23950000Y-120840000D03*
X25450000Y-120840000D03*
%TD*%
D11*
%TO.C,C25*%
X27300000Y-120840000D03*
X28700000Y-120840000D03*
%TD*%
D17*
%TO.C,D16*%
X61640000Y-110100000D03*
X66360000Y-110100000D03*
%TD*%
D12*
%TO.C,R36*%
X39950000Y-120840000D03*
X41450000Y-120840000D03*
%TD*%
%TO.C,R11*%
X49250000Y-46500000D03*
X50750000Y-46500000D03*
%TD*%
%TO.C,R59*%
X34250000Y-15500000D03*
X35750000Y-15500000D03*
%TD*%
D17*
%TO.C,D19*%
X42360000Y-110100000D03*
X37640000Y-110100000D03*
%TD*%
%TO.C,D15*%
X58360000Y-110100000D03*
X53640000Y-110100000D03*
%TD*%
D19*
%TO.C,C33*%
X88520000Y-30000000D03*
X85480000Y-30000000D03*
%TD*%
D12*
%TO.C,R61*%
X41250000Y-15500000D03*
X42750000Y-15500000D03*
%TD*%
D18*
%TO.C,C1*%
X103580000Y-101940000D03*
X111020000Y-101940000D03*
%TD*%
D23*
%TO.C,SW2*%
X8000000Y-33150000D03*
X14000000Y-33150000D03*
X8000000Y-36850000D03*
X14000000Y-36850000D03*
%TD*%
D10*
%TO.C,F6*%
X31400000Y-81670000D03*
X24600000Y-81670000D03*
%TD*%
D12*
%TO.C,R1*%
X122250000Y-112500000D03*
X123750000Y-112500000D03*
%TD*%
%TO.C,R60*%
X37750000Y-15500000D03*
X39250000Y-15500000D03*
%TD*%
D17*
%TO.C,D14*%
X66360000Y-116240000D03*
X61640000Y-116240000D03*
%TD*%
D12*
%TO.C,R15*%
X55250000Y-54500000D03*
X56750000Y-54500000D03*
%TD*%
D10*
%TO.C,F5*%
X47400000Y-81670000D03*
X40600000Y-81670000D03*
%TD*%
%TO.C,F7*%
X15400000Y-81670000D03*
X8600000Y-81670000D03*
%TD*%
D12*
%TO.C,R21*%
X94230000Y-104780000D03*
X92730000Y-104780000D03*
%TD*%
D20*
%TO.C,C12*%
X23000000Y-30800000D03*
X25000000Y-30800000D03*
%TD*%
D39*
%TO.C,LED1*%
X29250000Y-6000000D03*
X27750000Y-6000000D03*
%TD*%
D11*
%TO.C,C21*%
X59300000Y-120840000D03*
X60700000Y-120840000D03*
%TD*%
D12*
%TO.C,R58*%
X30750000Y-15500000D03*
X32250000Y-15500000D03*
%TD*%
%TO.C,R38*%
X41770000Y-104780000D03*
X43270000Y-104780000D03*
%TD*%
D13*
%TO.C,LED2*%
X85430000Y-104780000D03*
X87530000Y-104780000D03*
%TD*%
D18*
%TO.C,C4*%
X116980000Y-90840000D03*
X124420000Y-90840000D03*
%TD*%
D17*
%TO.C,D10*%
X82360000Y-116240000D03*
X77640000Y-116240000D03*
%TD*%
D40*
%TO.C,U5*%
X47550000Y-20870000D03*
X48830000Y-20870000D03*
X50100000Y-20870000D03*
X51370000Y-20870000D03*
X52630000Y-20870000D03*
X53900000Y-20870000D03*
X55170000Y-20870000D03*
X56450000Y-20870000D03*
X56450000Y-15130000D03*
X55170000Y-15130000D03*
X53900000Y-15130000D03*
X52630000Y-15130000D03*
X51370000Y-15130000D03*
X50100000Y-15130000D03*
X48830000Y-15130000D03*
X47550000Y-15130000D03*
%TD*%
D11*
%TO.C,C17*%
X91300000Y-120840000D03*
X92700000Y-120840000D03*
%TD*%
D17*
%TO.C,D23*%
X26360000Y-110100000D03*
X21640000Y-110100000D03*
%TD*%
D12*
%TO.C,R57*%
X41250000Y-12000000D03*
X42750000Y-12000000D03*
%TD*%
D41*
%TO.C,J9*%
X110500000Y-3200000D03*
X111500000Y-3200000D03*
X112500000Y-3200000D03*
X113500000Y-3200000D03*
D42*
X114750000Y-6800000D03*
X109250000Y-6800000D03*
%TD*%
D13*
%TO.C,LED4*%
X69430000Y-104780000D03*
X71530000Y-104780000D03*
%TD*%
%TO.C,LED10*%
X21430000Y-104780000D03*
X23530000Y-104780000D03*
%TD*%
D12*
%TO.C,R39*%
X46230000Y-104780000D03*
X44730000Y-104780000D03*
%TD*%
%TO.C,R13*%
X43250000Y-54500000D03*
X44750000Y-54500000D03*
%TD*%
%TO.C,R4*%
X18750000Y-30800000D03*
X20250000Y-30800000D03*
%TD*%
D43*
%TO.C,U4*%
X7600000Y-21600000D03*
X8870000Y-21600000D03*
X10140000Y-21600000D03*
X11410000Y-21600000D03*
X12680000Y-21600000D03*
X13950000Y-21600000D03*
X15220000Y-21600000D03*
X16490000Y-21600000D03*
X17760000Y-21600000D03*
X19030000Y-21600000D03*
X20300000Y-21600000D03*
X21570000Y-21600000D03*
X22840000Y-21600000D03*
X24110000Y-21600000D03*
D44*
X25600000Y-18310000D03*
X25600000Y-17040000D03*
X25600000Y-15770000D03*
X25600000Y-14500000D03*
X25600000Y-13230000D03*
X25600000Y-11960000D03*
X25600000Y-10690000D03*
X25600000Y-9420000D03*
X25600000Y-8150000D03*
X25600000Y-6880000D03*
D43*
X24110000Y-3600000D03*
X22840000Y-3600000D03*
X21570000Y-3600000D03*
X20300000Y-3600000D03*
X19030000Y-3600000D03*
X17760000Y-3600000D03*
X16490000Y-3600000D03*
X15220000Y-3600000D03*
X13950000Y-3600000D03*
X12680000Y-3600000D03*
X11410000Y-3600000D03*
X10140000Y-3600000D03*
X8870000Y-3600000D03*
X7600000Y-3600000D03*
D45*
X13880000Y-12700000D03*
X13880000Y-14100000D03*
X13880000Y-15500000D03*
X15280000Y-12700000D03*
X15280000Y-14100000D03*
X15280000Y-15500000D03*
X16680000Y-12700000D03*
X16680000Y-14100000D03*
X16680000Y-15500000D03*
%TD*%
D17*
%TO.C,D20*%
X45640000Y-110100000D03*
X50360000Y-110100000D03*
%TD*%
D12*
%TO.C,R10*%
X45750000Y-11500000D03*
X44250000Y-11500000D03*
%TD*%
D46*
%TO.C,PTC1*%
X127850000Y-56730000D03*
X124150000Y-56730000D03*
%TD*%
D18*
%TO.C,C35*%
X69280000Y-32500000D03*
X76720000Y-32500000D03*
%TD*%
D12*
%TO.C,R28*%
X52650000Y-120840000D03*
X54150000Y-120840000D03*
%TD*%
D18*
%TO.C,C16*%
X88280000Y-97130000D03*
X95720000Y-97130000D03*
%TD*%
M02*
