#VRML V2.0 utf8
# 3D model generated by easyeda2kicad.py (https://github.com/uPesy/easyeda2kicad.py)

Shape{
    appearance Appearance {
        material  Material 	{
            diffuseColor 0.7529411764705882 0.7529411764705882 0.7529411764705882
            specularColor 0.3764705882352941 0.3764705882352941 0.3764705882352941
            ambientIntensity 0.7529
            transparency 0.0
            shininess 0.5
        }
    }
    geometry IndexedFaceSet {
        ccw TRUE
        solid FALSE
        coord DEF co Coordinate {
            point [
                -0.9843 -0.9176 0.1493, -0.9843 -0.8165 0.2504, -1.0827 -0.9176 0.1493, -1.0827 -0.8165 0.2504, -1.0827 -0.8165 0.9591, -0.9843 -0.8165 0.9591, -1.0827 0.2402 0.9591, -0.9843 0.2402 0.9591, -1.0827 0.2402 1.0433, -0.9843 0.2402 1.0433, -1.0827 0.3189 1.122, -0.9843 0.3189 1.122, -1.0827 0.4994 1.122, -0.9843 0.4994 1.122, -0.9843 0.5273 1.1105, -0.9843 0.5436 1.0942, -1.0827 0.5273 1.1105, -1.0827 0.5436 1.0942, -0.9843 0.5551 1.0664, -0.9843 0.5551 0.5845, -1.0827 0.5551 1.0664, -1.0827 0.5551 0.5845, -0.9843 0.5436 0.5567, -0.9843 0.5342 0.5473, -1.0827 0.5436 0.5567, -1.0827 0.5342 0.5473, -1.0827 0.5342 0.4684, -0.9843 0.5342 0.4684, -1.0827 0.5471 0.4513, -0.9843 0.5471 0.4513, -0.9843 0.5551 0.4276, -0.9843 0.5551 0.0984, -1.0827 0.5551 0.4276, -1.0827 0.5551 0.0984, -0.9843 0.5541 0.0897, -1.0827 0.5541 0.0897, -0.9843 0.5512 0.0813, -1.0827 0.5512 0.0813, -0.9843 0.5465 0.0739, -1.0827 0.5465 0.0739, -0.9843 0.5403 0.0676, -1.0827 0.5403 0.0676, -0.9843 0.5328 0.063, -1.0827 0.5328 0.063, -0.9843 0.5245 0.06, -1.0827 0.5245 0.06, -0.9843 0.5157 0.0591, -1.0827 0.5157 0.0591, -1.0827 -0.4322 0.0591, -0.9843 -0.4322 0.0591, -1.0827 -0.5945 0.0, -0.9843 -0.5945 0.0, -1.0827 -0.8931 0.0, -0.9843 -0.8931 0.0, -1.0827 -0.9291 0.1215, -1.0827 -0.9291 0.036, -0.9843 -0.9291 0.1215, -0.9843 -0.9291 0.036, -1.0827 0.5521 0.5694, -1.0827 0.5485 0.5626, -1.0827 0.5096 1.1207, -1.0827 0.5498 1.0861, -1.0827 0.5538 1.0766, -1.0827 0.5544 0.5768, -1.0827 0.5191 1.1168, -1.0827 -0.9114 0.0045, -1.0827 -0.9192 0.0099, -1.0827 -0.9246 0.0177, -1.0827 -0.928 0.0266, -1.0827 -0.9278 0.1317, -1.0827 0.5515 0.444, -1.0827 -0.9239 0.1412, -1.0827 -0.9026 0.0011, -1.0827 0.5542 0.436, -0.9843 0.5191 1.1168, -0.9843 0.5096 1.1207, -0.9843 0.5485 0.5626, -0.9843 0.5515 0.444, -0.9843 0.5538 1.0766, -0.9843 0.5498 1.0861, -0.9843 0.5521 0.5694, -0.9843 0.5544 0.5768, -0.9843 -0.9239 0.1412, -0.9843 -0.928 0.0266, -0.9843 -0.9246 0.0177, -0.9843 0.5542 0.436, -0.9843 -0.9278 0.1317, -0.9843 -0.9192 0.0099, -0.9843 -0.9114 0.0045, -0.9843 -0.9026 0.0011, 0.9843 -0.8165 0.2504, 0.9843 -0.9176 0.1493, 1.0827 -0.8165 0.2504, 1.0827 -0.9176 0.1493, 1.0827 -0.8165 0.9591, 0.9843 -0.8165 0.9591, 1.0827 0.2402 0.9591, 0.9843 0.2402 0.9591, 1.0827 0.2402 1.0433, 0.9843 0.2402 1.0433, 1.0827 0.3189 1.122, 0.9843 0.3189 1.122, 1.0827 0.4994 1.122, 0.9843 0.4994 1.122, 0.9843 0.5436 1.0942, 0.9843 0.5273 1.1105, 1.0827 0.5436 1.0942, 1.0827 0.5273 1.1105, 0.9843 0.5551 0.5845, 0.9843 0.5551 1.0664, 1.0827 0.5551 0.5845, 1.0827 0.5551 1.0664, 0.9843 0.5342 0.5473, 0.9843 0.5436 0.5567, 1.0827 0.5342 0.5473, 1.0827 0.5436 0.5567, 1.0827 0.5342 0.4684, 0.9843 0.5342 0.4684, 1.0827 0.5471 0.4513, 0.9843 0.5471 0.4513, 0.9843 0.5551 0.0984, 0.9843 0.5551 0.4276, 1.0827 0.5551 0.0984, 1.0827 0.5551 0.4276, 1.0827 0.5157 0.0591, 0.9843 0.5157 0.0591, 0.9843 0.5245 0.06, 1.0827 0.5245 0.06, 0.9843 0.5328 0.063, 1.0827 0.5328 0.063, 0.9843 0.5403 0.0676, 1.0827 0.5403 0.0676, 0.9843 0.5465 0.0739, 1.0827 0.5465 0.0739, 0.9843 0.5512 0.0813, 1.0827 0.5512 0.0813, 0.9843 0.5541 0.0897, 1.0827 0.5541 0.0897, 1.0827 -0.4322 0.0591, 0.9843 -0.4322 0.0591, 1.0827 -0.5945 0.0, 0.9843 -0.5945 0.0, 1.0827 -0.8931 0.0, 0.9843 -0.8931 0.0, 1.0827 -0.9291 0.036, 1.0827 -0.9291 0.1215, 0.9843 -0.9291 0.036, 0.9843 -0.9291 0.1215, 1.0827 0.5538 1.0766, 1.0827 0.5498 1.0861, 1.0827 0.5521 0.5694, 1.0827 0.5485 0.5626, 1.0827 0.5544 0.5768, 1.0827 0.5191 1.1168, 1.0827 0.5096 1.1207, 1.0827 0.5542 0.436, 1.0827 -0.9239 0.1412, 1.0827 -0.928 0.0266, 1.0827 -0.9246 0.0177, 1.0827 0.5515 0.444, 1.0827 -0.9278 0.1317, 1.0827 -0.9192 0.0099, 1.0827 -0.9114 0.0045, 1.0827 -0.9026 0.0011, 0.9843 0.5096 1.1207, 0.9843 0.5191 1.1168, 0.9843 0.5544 0.5768, 0.9843 0.5521 0.5694, 0.9843 0.5485 0.5626, 0.9843 0.5498 1.0861, 0.9843 0.5538 1.0766, 0.9843 -0.9114 0.0045, 0.9843 -0.9192 0.0099, 0.9843 -0.9246 0.0177, 0.9843 -0.928 0.0266, 0.9843 -0.9278 0.1317, 0.9843 -0.9239 0.1412, 0.9843 0.5515 0.444, 0.9843 0.5542 0.436, 0.9843 -0.9026 0.0011
            ]
        }
        coordIndex [
            0,1,2,-1,2,1,3,-1,4,3,5,-1,5,3,1,-1,6,4,7,-1,7,4,5,-1,8,6,9,-1,9,6,7,-1,10,8,11,-1,11,8,9,-1,12,10,13,-1,13,10,11,-1,14,15,16,-1,16,15,17,-1,18,19,20,-1,20,19,21,-1,22,23,24,-1,24,23,25,-1,26,25,27,-1,27,25,23,-1,28,26,29,-1,29,26,27,-1,30,31,32,-1,32,31,33,-1,33,31,34,-1,33,34,35,-1,35,34,36,-1,35,36,37,-1,37,36,38,-1,37,38,39,-1,39,38,40,-1,39,40,41,-1,41,40,42,-1,41,42,43,-1,43,42,44,-1,43,44,45,-1,45,44,46,-1,45,46,47,-1,48,47,49,-1,49,47,46,-1,50,48,51,-1,51,48,49,-1,52,50,53,-1,53,50,51,-1,54,55,56,-1,56,55,57,-1,58,59,6,-1,6,59,24,-1,6,24,4,-1,8,10,6,-1,6,10,12,-1,21,12,60,-1,61,62,20,-1,12,21,6,-1,6,21,63,-1,6,63,58,-1,60,64,21,-1,21,64,16,-1,21,16,20,-1,20,16,17,-1,20,17,61,-1,65,66,67,-1,68,55,52,-1,52,55,54,-1,52,54,69,-1,25,26,48,-1,48,26,28,-1,48,28,70,-1,24,25,4,-1,4,25,48,-1,4,48,3,-1,3,48,50,-1,3,50,2,-1,2,50,52,-1,2,52,71,-1,71,52,69,-1,68,52,67,-1,67,52,72,-1,67,72,65,-1,70,73,48,-1,48,73,32,-1,48,32,47,-1,47,32,33,-1,47,33,35,-1,39,41,43,-1,35,37,47,-1,47,37,39,-1,47,39,45,-1,45,39,43,-1,53,51,49,-1,13,11,9,-1,74,75,19,-1,19,75,13,-1,19,13,7,-1,7,13,9,-1,23,22,7,-1,7,22,76,-1,77,29,49,-1,78,79,18,-1,18,79,15,-1,18,15,19,-1,19,15,14,-1,19,14,74,-1,7,5,23,-1,23,5,49,-1,23,49,27,-1,27,49,29,-1,76,80,7,-1,7,80,81,-1,7,81,19,-1,5,1,49,-1,49,1,0,-1,49,0,82,-1,49,57,53,-1,53,57,83,-1,53,83,84,-1,34,31,46,-1,46,31,30,-1,46,30,49,-1,49,30,85,-1,49,85,77,-1,82,86,49,-1,49,86,56,-1,49,56,57,-1,87,88,84,-1,84,88,89,-1,84,89,53,-1,42,40,38,-1,42,38,44,-1,44,38,46,-1,46,38,36,-1,46,36,34,-1,12,13,75,-1,12,75,60,-1,60,75,74,-1,60,74,64,-1,64,74,14,-1,64,14,16,-1,17,15,79,-1,17,79,61,-1,61,79,78,-1,61,78,62,-1,62,78,18,-1,62,18,20,-1,28,29,77,-1,28,77,70,-1,70,77,85,-1,70,85,73,-1,73,85,30,-1,73,30,32,-1,21,19,81,-1,21,81,63,-1,63,81,80,-1,63,80,58,-1,58,80,76,-1,58,76,59,-1,59,76,22,-1,59,22,24,-1,54,56,86,-1,54,86,69,-1,69,86,82,-1,69,82,71,-1,71,82,0,-1,71,0,2,-1,52,53,89,-1,52,89,72,-1,72,89,88,-1,72,88,65,-1,65,88,87,-1,65,87,66,-1,66,87,84,-1,66,84,67,-1,67,84,83,-1,67,83,68,-1,68,83,57,-1,68,57,55,-1,90,91,92,-1,92,91,93,-1,92,94,90,-1,90,94,95,-1,94,96,95,-1,95,96,97,-1,96,98,97,-1,97,98,99,-1,98,100,99,-1,99,100,101,-1,100,102,101,-1,101,102,103,-1,104,105,106,-1,106,105,107,-1,108,109,110,-1,110,109,111,-1,112,113,114,-1,114,113,115,-1,114,116,112,-1,112,116,117,-1,116,118,117,-1,117,118,119,-1,120,121,122,-1,122,121,123,-1,124,125,126,-1,124,126,127,-1,127,126,128,-1,127,128,129,-1,129,128,130,-1,129,130,131,-1,131,130,132,-1,131,132,133,-1,133,132,134,-1,133,134,135,-1,135,134,136,-1,135,136,137,-1,137,136,120,-1,137,120,122,-1,124,138,125,-1,125,138,139,-1,138,140,139,-1,139,140,141,-1,140,142,141,-1,141,142,143,-1,144,145,146,-1,146,145,147,-1,142,140,138,-1,138,116,114,-1,148,149,106,-1,100,98,102,-1,102,98,96,-1,150,96,151,-1,151,96,115,-1,111,102,110,-1,110,102,96,-1,110,96,152,-1,152,96,150,-1,153,154,107,-1,107,154,102,-1,107,102,106,-1,106,102,111,-1,106,111,148,-1,115,96,114,-1,114,96,94,-1,114,94,138,-1,124,123,138,-1,138,123,155,-1,94,92,138,-1,138,92,93,-1,138,93,156,-1,138,144,142,-1,142,144,157,-1,142,157,158,-1,155,159,138,-1,138,159,118,-1,138,118,116,-1,156,160,138,-1,138,160,145,-1,138,145,144,-1,161,162,158,-1,158,162,163,-1,158,163,142,-1,124,133,135,-1,127,129,124,-1,124,129,131,-1,124,131,133,-1,135,137,124,-1,124,137,122,-1,124,122,123,-1,109,108,103,-1,99,101,97,-1,97,101,103,-1,164,165,105,-1,103,108,97,-1,97,108,166,-1,97,166,167,-1,167,168,97,-1,97,168,113,-1,97,113,95,-1,169,170,104,-1,104,170,109,-1,104,109,105,-1,105,109,103,-1,105,103,164,-1,171,172,173,-1,174,146,143,-1,143,146,147,-1,143,147,175,-1,113,112,95,-1,95,112,139,-1,95,139,90,-1,90,139,141,-1,90,141,91,-1,91,141,143,-1,91,143,176,-1,176,143,175,-1,112,117,139,-1,139,117,119,-1,139,119,177,-1,177,178,139,-1,139,178,121,-1,139,121,125,-1,125,121,120,-1,174,143,173,-1,173,143,179,-1,173,179,171,-1,120,136,125,-1,125,136,134,-1,125,134,132,-1,132,130,125,-1,125,130,128,-1,125,128,126,-1,107,105,165,-1,107,165,153,-1,153,165,164,-1,153,164,154,-1,154,164,103,-1,154,103,102,-1,111,109,170,-1,111,170,148,-1,148,170,169,-1,148,169,149,-1,149,169,104,-1,149,104,106,-1,123,121,178,-1,123,178,155,-1,155,178,177,-1,155,177,159,-1,159,177,119,-1,159,119,118,-1,115,113,168,-1,115,168,151,-1,151,168,167,-1,151,167,150,-1,150,167,166,-1,150,166,152,-1,152,166,108,-1,152,108,110,-1,93,91,176,-1,93,176,156,-1,156,176,175,-1,156,175,160,-1,160,175,147,-1,160,147,145,-1,161,172,171,-1,161,171,162,-1,162,171,179,-1,162,179,163,-1,163,179,143,-1,163,143,142,-1,144,146,174,-1,144,174,157,-1,157,174,173,-1,157,173,158,-1,158,173,172,-1,158,172,161,-1,
        ]
    }
}
Shape{
    appearance Appearance {
        material  Material 	{
            diffuseColor 1.0 0.9764705882352941 0.9058823529411765
            specularColor 0.5019607843137255 0.48627450980392156 0.45098039215686275
            ambientIntensity 0.9755
            transparency 0.0
            shininess 0.5
        }
    }
    geometry IndexedFaceSet {
        ccw TRUE
        solid FALSE
        coord DEF co Coordinate {
            point [
                -1.1811 0.3504 0.1693, -1.1811 -0.9488 0.1693, -1.1811 0.3504 1.0967, -1.1811 -0.9488 1.2402, -1.1811 0.3504 1.2402, -0.9843 -0.8504 0.1693, -0.9843 -0.9488 0.1693, -1.0827 -0.8504 0.1693, -1.0827 0.3504 0.1693, -1.0827 0.3504 1.1535, -1.0827 -0.8504 1.1535, -1.0827 0.3504 1.0967, 0.0279 -0.095 0.0394, 0.0949 -0.0938 0.0394, 0.0891 -0.0942 0.0394, 0.0663 -0.1004 0.0394, 0.0663 -0.1268 0.0394, 0.0279 -0.2918 0.0394, 0.0886 -0.1173 0.0394, 0.1124 -0.1142 0.0394, 0.1222 -0.117 0.0394, 0.0663 -0.26 0.0394, 0.0907 -0.2697 0.0394, 0.1169 -0.2726 0.0394, 0.1664 -0.1376 0.0394, 0.1733 -0.1457 0.0394, 0.1389 -0.2675 0.0394, 0.1786 -0.1561 0.0394, 0.1829 -0.1714 0.0394, 0.1864 -0.1955 0.0394, 0.1817 -0.2194 0.0394, 0.1527 -0.2623 0.0394, -0.0729 -0.1166 0.0394, -0.0777 -0.2702 0.0394, -0.0969 -0.0938 0.0394, -0.0969 -0.9488 0.0394, -0.0777 -0.2918 0.0394, -0.0729 -0.095 0.0394, 0.0015 -0.203 0.0394, 0.0015 -0.2702 0.0394, -0.0681 -0.203 0.0394, -0.0681 -0.1814 0.0394, 0.0015 -0.1814 0.0394, 0.0015 -0.1166 0.0394, 0.1545 -0.1293 0.0394, 0.1748 -0.2401 0.0394, 0.1681 -0.2506 0.0394, 0.1621 -0.2566 0.0394, 0.2296 -0.2918 0.0394, 0.1442 -0.2908 0.0394, 0.2296 -0.2702 0.0394, 0.1651 -0.2844 0.0394, 0.1792 -0.2757 0.0394, 0.0663 -0.2816 0.0394, 0.0927 -0.2914 0.0394, 0.1205 -0.2942 0.0394, 0.2044 -0.1521 0.0394, 0.1945 -0.1328 0.0394, 0.304 -0.095 0.0394, 0.18 -0.1164 0.0394, 0.1641 -0.1055 0.0394, 0.1915 -0.2637 0.0394, 0.2018 -0.2476 0.0394, 0.304 -0.2702 0.0394, 0.2089 -0.226 0.0394, 0.2128 -0.1971 0.0394, 0.211 -0.1813 0.0394, 0.9843 -0.9488 0.0394, 0.3304 -0.2918 0.0394, 0.9843 -0.0938 0.0394, 0.3304 -0.095 0.0394, 0.1198 -0.0938 0.0394, 0.1422 -0.0975 0.0394, 0.9843 0.3504 0.0394, 0.5463 0.3504 0.0394, 0.2411 0.3504 0.0394, 0.1526 0.3504 0.0394, -0.3634 -0.095 0.0394, -0.3898 -0.095 0.0394, -0.1696 -0.2918 0.0394, -0.1161 -0.2918 0.0394, -0.2623 -0.1418 0.0394, -0.27 -0.1632 0.0394, -0.4179 -0.2366 0.0394, -0.3366 -0.2366 0.0394, -0.4378 -0.2918 0.0394, -0.3178 -0.2918 0.0394, -0.2005 -0.2874 0.0394, -0.289 -0.2918 0.0394, -0.9843 -0.9488 0.0394, -0.4666 -0.2918 0.0394, -0.2182 -0.104 0.0394, -0.2369 -0.1139 0.0394, -0.2522 -0.1273 0.0394, -0.2746 -0.1909 0.0394, -0.2717 -0.212 0.0394, -0.2648 -0.237 0.0394, -0.2558 -0.2529 0.0394, -0.2407 -0.2687 0.0394, -0.2232 -0.2799 0.0394, -0.1161 -0.095 0.0394, -0.1717 -0.095 0.0394, -0.1898 -0.0971 0.0394, -0.9843 0.3504 0.0394, -0.9055 0.3504 0.0394, -0.9843 -0.0938 0.0394, -0.5463 0.3504 0.0394, -0.2411 0.3504 0.0394, 0.1127 -0.0926 0.0394, -0.0969 0.3504 0.0394, -0.1526 0.3504 0.0394, 0.748 0.1929 0.2756, 0.2362 0.1929 0.4823, 0.1575 0.1929 0.4823, -0.748 0.1929 0.2756, -0.5512 0.1929 0.4823, -0.748 0.1929 0.4055, -0.6299 0.1929 0.4823, -0.6299 0.1929 0.6398, -0.748 0.1929 1.0039, -0.2362 0.1929 0.6398, -0.1575 0.1929 0.6398, -0.8465 0.1929 0.4055, -0.8465 0.1929 0.8465, -0.748 0.1929 0.8465, -0.5512 0.1929 0.6398, 0.5512 0.1929 0.4823, 0.5512 0.1929 0.6398, 0.2362 0.1929 0.6398, 0.1575 0.1929 0.6398, -0.1575 0.1929 0.4823, -0.2362 0.1929 0.4823, 0.748 0.1929 1.0039, 0.748 0.1929 0.8465, 0.8465 0.1929 0.8465, 0.6299 0.1929 0.6398, 0.6299 0.1929 0.4823, 0.8465 0.1929 0.4055, 0.748 0.1929 0.4055, -0.748 -0.8898 0.4055, -0.8465 -0.8898 0.4055, -0.8465 -0.8898 0.8465, -0.748 -0.8898 0.8465, 0.8465 -0.8898 0.4055, 0.748 -0.8898 0.4055, 0.748 -0.8898 0.8465, 0.8465 -0.8898 0.8465, -0.748 -0.8898 1.0039, 0.748 -0.8898 1.0039, 1.0827 0.3504 0.1693, 1.1811 0.3504 0.1693, 1.0827 -0.8504 0.1693, 1.1811 -0.9488 0.1693, 0.9843 -0.8504 0.1693, 0.9843 -0.9488 0.1693, 0.9843 0.5472 1.122, 0.9843 0.5472 0.0787, 0.6791 0.5472 1.122, 0.6791 0.5472 0.0787, 0.6398 0.4791 0.0787, 0.9843 0.3504 0.0787, 0.6398 0.3504 0.0787, 0.1083 0.5472 1.122, 0.1083 0.5472 0.0787, -0.1083 0.5472 1.122, -0.1083 0.5472 0.0787, -0.2854 0.5472 1.122, -0.2854 0.5472 0.0787, -0.502 0.5472 1.122, -0.502 0.5472 0.0787, 0.1476 0.3504 0.0787, -0.1476 0.3504 0.0787, -0.1476 0.4791 0.0787, 0.1476 0.4791 0.0787, -0.5413 0.4791 0.0787, -0.2461 0.4791 0.0787, -0.5413 0.3504 0.0787, -0.2461 0.3504 0.0787, 0.502 0.5472 1.122, 0.502 0.5472 0.0787, 0.2854 0.5472 1.122, 0.2854 0.5472 0.0787, 0.2461 0.4791 0.0787, 0.5413 0.4791 0.0787, 0.2461 0.3504 0.0787, 0.5413 0.3504 0.0787, -0.6791 0.5472 1.122, -0.6791 0.5472 0.0787, -0.9843 0.5472 1.122, -0.9843 0.5472 0.0787, 1.1811 0.3504 1.2402, 1.1811 -0.9488 1.2402, 1.1811 0.3504 1.0967, 0.5463 0.3504 1.2402, 0.2411 0.3504 1.2402, 0.1526 0.3504 1.2402, -0.1526 0.3504 1.2402, -0.2411 0.3504 1.2402, -0.5463 0.3504 1.2402, -0.9055 0.3504 1.2402, -0.9055 -0.9488 0.9055, -0.9055 -0.9488 0.3465, -0.8071 -0.9488 0.3465, -0.8071 -0.9488 0.2165, -0.8071 -0.9488 0.9055, -0.8071 -0.9488 1.063, 0.8071 -0.9488 1.063, 0.8071 -0.9488 0.2165, 0.8071 -0.9488 0.3465, 0.9055 -0.9488 0.3465, 0.9055 -0.9488 0.9055, 0.8071 -0.9488 0.9055, -0.9843 -0.8504 1.1535, -0.9843 0.3504 1.1535, -0.9843 0.3504 1.122, -0.9843 0.3504 0.0787, 0.9843 0.3504 1.122, 0.9843 0.3504 1.1535, 0.9843 -0.8504 1.1535, -0.9055 0.3504 0.0787, -0.6398 0.4791 0.0787, -0.6398 0.3504 0.0787, 0.1526 0.3504 0.0946, 1.0827 0.3504 1.0967, 0.6398 0.3504 0.0946, 0.5463 0.3504 0.0946, 0.6299 0.3504 1.0714, 0.5512 0.3504 1.0714, 0.5463 0.3504 1.0967, 0.5512 0.3504 0.1104, 0.6299 0.3504 0.1104, 0.6398 0.3504 1.0967, 1.0827 0.3504 1.1535, 0.6398 0.3504 1.122, -0.5512 0.3504 1.0714, -0.6299 0.3504 1.0714, -0.6398 0.3504 1.0967, -0.6398 0.3504 0.0946, -0.6299 0.3504 0.1104, -0.5463 0.3504 0.0946, -0.5512 0.3504 0.1104, -0.5463 0.3504 1.0967, -0.6398 0.3504 1.122, -0.9055 0.3504 1.122, 0.5413 0.3504 1.122, 0.5413 0.3504 1.0967, 0.2411 0.3504 0.0946, 0.2461 0.3504 0.0946, 0.2461 0.3504 1.122, 0.2461 0.3504 1.0967, 0.2411 0.3504 1.0967, 0.1476 0.3504 1.122, 0.1476 0.3504 0.0946, 0.1476 0.3504 1.0967, 0.1526 0.3504 1.0967, -0.1476 0.3504 1.122, -0.1476 0.3504 1.0967, -0.1526 0.3504 1.0967, -0.1476 0.3504 0.0946, -0.2461 0.3504 1.122, -0.5413 0.3504 1.122, -0.2461 0.3504 0.0946, -0.2411 0.3504 0.0946, -0.2461 0.3504 1.0967, -0.2411 0.3504 1.0967, -0.5413 0.3504 1.0967, -0.5413 0.3504 0.0946, 0.5413 0.3504 0.0946, -0.1526 0.3504 0.0946, 0.2362 0.3504 1.0714, 0.1575 0.3504 1.0714, 0.1575 0.3504 0.1104, 0.2362 0.3504 0.1104, -0.1575 0.3504 1.0714, -0.2362 0.3504 1.0714, -0.2362 0.3504 0.1104, -0.1575 0.3504 0.1104, 0.2461 0.4791 1.122, 0.1476 0.4791 1.122, -0.5413 0.4791 1.122, -0.6398 0.4791 1.122, -0.1476 0.4791 1.122, -0.2461 0.4791 1.122, 0.6398 0.4791 1.122, 0.5413 0.4791 1.122, 1.0827 -0.8504 1.1535, 0.748 -0.8898 0.2756, -0.748 -0.8898 0.2756
            ]
        }
        coordIndex [
            0,1,2,-1,2,1,3,-1,2,3,4,-1,5,6,7,-1,7,6,1,-1,7,1,8,-1,8,1,0,-1,9,10,11,-1,11,10,7,-1,11,7,8,-1,12,13,14,-1,14,15,12,-1,12,15,16,-1,12,16,17,-1,18,19,20,-1,16,18,21,-1,21,18,20,-1,21,20,22,-1,22,20,23,-1,24,25,26,-1,26,25,27,-1,26,27,28,-1,28,29,26,-1,26,29,30,-1,26,30,31,-1,32,33,34,-1,35,36,17,-1,13,12,34,-1,34,12,37,-1,34,37,32,-1,38,39,40,-1,40,39,33,-1,40,33,41,-1,41,33,32,-1,41,32,42,-1,42,32,43,-1,23,20,26,-1,26,20,44,-1,26,44,24,-1,45,46,30,-1,30,46,47,-1,30,47,31,-1,48,49,50,-1,50,49,51,-1,50,51,52,-1,16,21,17,-1,17,21,53,-1,17,53,35,-1,35,53,54,-1,35,54,55,-1,56,57,58,-1,58,57,59,-1,58,59,60,-1,52,61,50,-1,50,61,62,-1,50,62,63,-1,62,64,63,-1,63,64,65,-1,63,65,58,-1,58,65,66,-1,58,66,56,-1,55,49,35,-1,35,49,48,-1,35,48,67,-1,67,48,68,-1,67,68,69,-1,69,68,70,-1,69,70,71,-1,71,70,58,-1,71,58,72,-1,72,58,60,-1,73,69,74,-1,74,69,71,-1,74,71,75,-1,75,71,76,-1,34,77,78,-1,79,80,35,-1,35,80,34,-1,35,34,36,-1,36,34,33,-1,77,81,82,-1,83,84,85,-1,85,84,86,-1,87,79,88,-1,88,79,35,-1,88,35,86,-1,86,35,89,-1,86,89,85,-1,85,89,90,-1,91,92,77,-1,77,92,93,-1,77,93,81,-1,82,94,77,-1,77,94,95,-1,77,95,88,-1,88,95,96,-1,88,96,97,-1,97,98,88,-1,88,98,99,-1,88,99,87,-1,80,100,34,-1,34,100,101,-1,34,101,77,-1,77,101,102,-1,77,102,91,-1,103,104,105,-1,105,104,106,-1,90,89,78,-1,78,89,105,-1,78,105,34,-1,34,105,106,-1,34,106,107,-1,71,108,76,-1,76,108,13,-1,76,13,109,-1,109,13,34,-1,109,34,110,-1,110,34,107,-1,111,112,113,-1,114,115,116,-1,116,115,117,-1,116,117,118,-1,119,120,121,-1,122,116,123,-1,123,116,118,-1,123,118,124,-1,124,118,125,-1,126,127,128,-1,128,127,119,-1,128,119,129,-1,129,119,121,-1,129,121,113,-1,113,121,130,-1,113,130,111,-1,111,130,131,-1,132,119,133,-1,133,119,127,-1,133,127,134,-1,134,127,135,-1,134,135,136,-1,137,134,138,-1,138,134,136,-1,138,136,111,-1,111,136,126,-1,111,126,112,-1,112,126,128,-1,119,124,120,-1,120,124,125,-1,120,125,131,-1,131,125,115,-1,131,115,111,-1,111,115,114,-1,139,116,140,-1,140,116,122,-1,141,123,142,-1,142,123,124,-1,143,137,144,-1,144,137,138,-1,145,133,146,-1,146,133,134,-1,147,119,148,-1,148,119,132,-1,149,150,151,-1,151,150,152,-1,151,152,153,-1,153,152,154,-1,155,156,157,-1,157,156,158,-1,158,156,159,-1,159,156,160,-1,159,160,161,-1,162,163,164,-1,164,163,165,-1,166,167,168,-1,168,167,169,-1,170,171,172,-1,165,163,172,-1,172,163,173,-1,172,173,170,-1,169,167,174,-1,174,167,175,-1,174,175,176,-1,176,175,177,-1,178,179,180,-1,180,179,181,-1,181,179,182,-1,182,179,183,-1,182,183,184,-1,184,183,185,-1,186,187,188,-1,188,187,189,-1,190,191,192,-1,192,191,152,-1,192,152,150,-1,191,190,193,-1,193,194,191,-1,191,194,195,-1,191,195,3,-1,3,195,196,-1,3,196,197,-1,197,198,3,-1,3,198,199,-1,3,199,4,-1,200,3,201,-1,201,3,1,-1,201,1,202,-1,202,1,6,-1,202,6,203,-1,200,204,3,-1,3,204,205,-1,3,205,191,-1,191,205,206,-1,6,89,203,-1,203,89,35,-1,203,35,207,-1,207,35,67,-1,207,67,208,-1,208,67,154,-1,208,154,209,-1,209,154,152,-1,209,152,210,-1,210,152,191,-1,210,191,211,-1,211,191,206,-1,212,213,214,-1,188,189,214,-1,214,189,215,-1,214,215,212,-1,215,103,212,-1,212,103,105,-1,212,105,5,-1,5,105,89,-1,5,89,6,-1,216,217,218,-1,69,73,160,-1,160,156,155,-1,154,67,153,-1,153,67,69,-1,153,69,218,-1,218,69,160,-1,218,160,216,-1,216,160,155,-1,219,215,189,-1,189,187,219,-1,219,187,220,-1,219,220,221,-1,75,76,222,-1,150,149,223,-1,160,73,161,-1,161,73,74,-1,161,74,224,-1,224,74,225,-1,226,227,228,-1,228,227,225,-1,225,227,229,-1,225,229,224,-1,224,229,230,-1,224,230,231,-1,193,190,217,-1,217,190,232,-1,230,226,231,-1,231,226,228,-1,231,228,233,-1,233,228,193,-1,233,193,216,-1,216,193,217,-1,232,190,223,-1,223,190,192,-1,223,192,150,-1,0,2,8,-1,8,2,11,-1,11,2,9,-1,9,2,4,-1,9,4,213,-1,213,4,199,-1,213,199,214,-1,234,235,236,-1,236,235,237,-1,235,238,237,-1,237,238,239,-1,237,239,221,-1,221,239,106,-1,221,106,219,-1,219,106,104,-1,219,104,215,-1,215,104,103,-1,238,240,239,-1,239,240,234,-1,239,234,241,-1,241,234,236,-1,241,236,198,-1,198,236,242,-1,198,242,199,-1,199,242,243,-1,199,243,214,-1,194,193,244,-1,244,193,228,-1,244,228,245,-1,245,228,225,-1,246,247,184,-1,248,249,250,-1,250,249,247,-1,196,195,251,-1,252,253,222,-1,222,253,254,-1,252,222,170,-1,170,222,76,-1,170,76,171,-1,171,76,109,-1,171,109,110,-1,255,256,257,-1,257,256,258,-1,197,259,198,-1,198,259,260,-1,198,260,241,-1,177,261,262,-1,262,261,263,-1,262,263,264,-1,260,265,241,-1,241,265,266,-1,241,266,239,-1,239,266,176,-1,239,176,106,-1,106,176,107,-1,222,246,75,-1,75,246,184,-1,75,184,74,-1,74,184,185,-1,74,185,225,-1,225,185,267,-1,225,267,245,-1,176,177,107,-1,107,177,262,-1,107,262,110,-1,110,262,268,-1,110,268,171,-1,171,268,258,-1,247,246,250,-1,250,246,269,-1,250,269,254,-1,254,269,270,-1,254,270,222,-1,222,270,271,-1,222,271,246,-1,246,271,272,-1,246,272,269,-1,258,268,257,-1,257,268,273,-1,257,273,264,-1,264,273,274,-1,264,274,262,-1,262,274,275,-1,262,275,268,-1,268,275,276,-1,268,276,273,-1,253,251,254,-1,254,251,195,-1,254,195,250,-1,250,195,194,-1,250,194,248,-1,248,194,244,-1,263,259,264,-1,264,259,197,-1,264,197,257,-1,257,197,196,-1,257,196,255,-1,255,196,251,-1,249,248,277,-1,249,277,247,-1,247,277,182,-1,247,182,184,-1,170,173,252,-1,252,173,278,-1,252,278,253,-1,253,278,251,-1,181,182,180,-1,180,182,277,-1,173,163,278,-1,278,163,162,-1,265,260,279,-1,265,279,266,-1,266,279,174,-1,266,174,176,-1,221,220,237,-1,237,220,280,-1,237,280,236,-1,236,280,242,-1,256,255,281,-1,256,281,258,-1,258,281,172,-1,258,172,171,-1,177,175,261,-1,261,175,282,-1,261,282,263,-1,263,282,259,-1,231,233,283,-1,231,283,224,-1,224,283,159,-1,224,159,161,-1,185,183,267,-1,267,183,284,-1,267,284,245,-1,245,284,244,-1,158,159,157,-1,157,159,283,-1,183,179,284,-1,284,179,178,-1,165,172,164,-1,164,172,281,-1,175,167,282,-1,282,167,166,-1,169,174,168,-1,168,174,279,-1,220,187,280,-1,280,187,186,-1,10,212,7,-1,7,212,5,-1,212,10,213,-1,213,10,9,-1,218,285,153,-1,153,285,151,-1,149,151,223,-1,223,151,285,-1,223,285,232,-1,285,218,232,-1,232,218,217,-1,286,111,287,-1,287,111,114,-1,287,114,139,-1,139,114,116,-1,144,138,286,-1,286,138,111,-1,148,132,145,-1,145,132,133,-1,142,124,147,-1,147,124,119,-1,146,134,143,-1,143,134,137,-1,140,122,141,-1,141,122,123,-1,206,148,211,-1,211,148,145,-1,205,147,206,-1,206,147,148,-1,146,210,145,-1,145,210,211,-1,204,142,205,-1,205,142,147,-1,143,209,146,-1,146,209,210,-1,200,141,204,-1,204,141,142,-1,144,208,143,-1,143,208,209,-1,201,140,200,-1,200,140,141,-1,286,207,144,-1,144,207,208,-1,202,139,201,-1,201,139,140,-1,287,203,286,-1,286,203,207,-1,203,287,202,-1,202,287,139,-1,155,157,216,-1,216,157,283,-1,216,283,233,-1,188,214,243,-1,186,188,280,-1,280,188,243,-1,280,243,242,-1,166,168,282,-1,282,168,279,-1,282,279,259,-1,259,279,260,-1,255,251,278,-1,162,164,278,-1,278,164,281,-1,278,281,255,-1,248,244,284,-1,178,180,284,-1,284,180,277,-1,284,277,248,-1,
        ]
    }
}
Shape{
    appearance Appearance {
        material  Material 	{
            diffuseColor 0.7529411764705882 0.7529411764705882 0.7529411764705882
            specularColor 0.3764705882352941 0.3764705882352941 0.3764705882352941
            ambientIntensity 0.7529
            transparency 0.0
            shininess 0.5
        }
    }
    geometry IndexedFaceSet {
        ccw TRUE
        solid FALSE
        coord DEF co Coordinate {
            point [
                -0.2362 0.4567 1.0827, -0.2362 0.378 1.0827, -0.1575 0.4567 1.0827, -0.1575 0.378 1.0827, -0.1575 0.4669 1.0813, -0.2362 0.4669 1.0813, -0.1575 0.4764 1.0774, -0.2362 0.4764 1.0774, -0.1575 0.4845 1.0711, -0.2362 0.4845 1.0711, -0.1575 0.4908 1.063, -0.2362 0.4908 1.063, -0.1575 0.4947 1.0535, -0.2362 0.4947 1.0535, -0.1575 0.4961 1.0433, -0.2362 0.4961 1.0433, -0.2362 0.4961 0.1905, -0.1575 0.4961 0.1905, -0.2362 0.4974 0.1804, -0.1575 0.4974 0.1804, -0.2362 0.5012 0.171, -0.1575 0.5012 0.171, -0.2362 0.5074 0.1629, -0.1575 0.5074 0.1629, -0.2362 0.5154 0.1566, -0.1575 0.5154 0.1566, -0.2362 0.6049 0.1039, -0.1575 0.6049 0.1039, -0.1575 0.6249 0.0984, -0.1575 0.7717 0.0984, -0.2362 0.6249 0.0984, -0.2362 0.7717 0.0984, -0.2362 0.811 0.0394, -0.2362 0.811 0.0591, -0.1575 0.811 0.0394, -0.1575 0.811 0.0591, -0.2362 0.5462 0.0, -0.2362 0.7717 0.0, -0.1575 0.5462 0.0, -0.1575 0.7717 0.0, -0.1575 0.5262 0.0054, -0.1575 0.358 0.1046, -0.2362 0.5262 0.0054, -0.2362 0.358 0.1046, -0.2362 0.6112 0.1009, -0.2362 0.3585 1.0775, -0.2362 0.3679 1.0814, -0.2362 0.3504 0.1104, -0.2362 0.3504 1.0714, -0.2362 0.8057 0.0787, -0.2362 0.7995 0.0869, -0.2362 0.7818 0.0971, -0.2362 0.7913 0.0932, -0.2362 0.5392 0.0006, -0.2362 0.5325 0.0025, -0.2362 0.618 0.099, -0.2362 0.8097 0.0692, -0.2362 0.7913 0.0053, -0.2362 0.8097 0.0292, -0.2362 0.7995 0.0115, -0.2362 0.8057 0.0197, -0.2362 0.7818 0.0013, -0.1575 0.618 0.099, -0.1575 0.3504 0.1104, -0.1575 0.3504 1.0714, -0.1575 0.3585 1.0775, -0.1575 0.3679 1.0814, -0.1575 0.7913 0.0932, -0.1575 0.7818 0.0971, -0.1575 0.7995 0.0869, -0.1575 0.8057 0.0787, -0.1575 0.5325 0.0025, -0.1575 0.8097 0.0692, -0.1575 0.6112 0.1009, -0.1575 0.5392 0.0006, -0.1575 0.7818 0.0013, -0.1575 0.8097 0.0292, -0.1575 0.7913 0.0053, -0.1575 0.7995 0.0115, -0.1575 0.8057 0.0197, -0.1861 -0.685 0.5109, -0.1861 -0.685 0.6111, -0.2076 -0.685 0.5109, -0.2076 -0.685 0.6111, -0.1575 -0.6063 0.6398, -0.1575 0.1929 0.6398, -0.2362 -0.6063 0.6398, -0.2362 0.1929 0.6398, -0.2362 -0.6063 0.4823, -0.2362 0.1929 0.4823, -0.1575 -0.6063 0.4823, -0.1575 0.1929 0.4823, -0.6299 0.4567 1.0827, -0.6299 0.378 1.0827, -0.5512 0.4567 1.0827, -0.5512 0.378 1.0827, -0.5512 0.4669 1.0813, -0.6299 0.4669 1.0813, -0.5512 0.4764 1.0774, -0.6299 0.4764 1.0774, -0.5512 0.4845 1.0711, -0.6299 0.4845 1.0711, -0.5512 0.4908 1.063, -0.6299 0.4908 1.063, -0.5512 0.4947 1.0535, -0.6299 0.4947 1.0535, -0.5512 0.4961 1.0433, -0.6299 0.4961 1.0433, -0.6299 0.4961 0.1905, -0.5512 0.4961 0.1905, -0.6299 0.4974 0.1804, -0.5512 0.4974 0.1804, -0.6299 0.5012 0.171, -0.5512 0.5012 0.171, -0.6299 0.5074 0.1629, -0.5512 0.5074 0.1629, -0.6299 0.5154 0.1566, -0.5512 0.5154 0.1566, -0.6299 0.6049 0.1039, -0.5512 0.6049 0.1039, -0.5512 0.6249 0.0984, -0.5512 0.7717 0.0984, -0.6299 0.6249 0.0984, -0.6299 0.7717 0.0984, -0.6299 0.811 0.0394, -0.6299 0.811 0.0591, -0.5512 0.811 0.0394, -0.5512 0.811 0.0591, -0.6299 0.5462 0.0, -0.6299 0.7717 0.0, -0.5512 0.5462 0.0, -0.5512 0.7717 0.0, -0.5512 0.5262 0.0054, -0.5512 0.358 0.1046, -0.6299 0.5262 0.0054, -0.6299 0.358 0.1046, -0.6299 0.3585 1.0775, -0.6299 0.3679 1.0814, -0.6299 0.6112 0.1009, -0.6299 0.3504 0.1104, -0.6299 0.3504 1.0714, -0.6299 0.8057 0.0787, -0.6299 0.7995 0.0869, -0.6299 0.7818 0.0971, -0.6299 0.7913 0.0932, -0.6299 0.5392 0.0006, -0.6299 0.5325 0.0025, -0.6299 0.618 0.099, -0.6299 0.8097 0.0692, -0.6299 0.8097 0.0292, -0.6299 0.8057 0.0197, -0.6299 0.7995 0.0115, -0.6299 0.7913 0.0053, -0.6299 0.7818 0.0013, -0.5512 0.3504 0.1104, -0.5512 0.618 0.099, -0.5512 0.3504 1.0714, -0.5512 0.3585 1.0775, -0.5512 0.3679 1.0814, -0.5512 0.8097 0.0292, -0.5512 0.7913 0.0932, -0.5512 0.7818 0.0971, -0.5512 0.7995 0.0869, -0.5512 0.8057 0.0787, -0.5512 0.5325 0.0025, -0.5512 0.8097 0.0692, -0.5512 0.6112 0.1009, -0.5512 0.5392 0.0006, -0.5512 0.7818 0.0013, -0.5512 0.7913 0.0053, -0.5512 0.7995 0.0115, -0.5512 0.8057 0.0197, -0.5798 -0.685 0.5109, -0.5798 -0.685 0.6111, -0.6013 -0.685 0.5109, -0.6013 -0.685 0.6111, -0.5512 -0.6063 0.6398, -0.5512 0.1929 0.6398, -0.6299 -0.6063 0.6398, -0.6299 0.1929 0.6398, -0.6299 -0.6063 0.4823, -0.6299 0.1929 0.4823, -0.5512 -0.6063 0.4823, -0.5512 0.1929 0.4823, 0.1575 0.4567 1.0827, 0.1575 0.378 1.0827, 0.2362 0.4567 1.0827, 0.2362 0.378 1.0827, 0.2362 0.4669 1.0813, 0.1575 0.4669 1.0813, 0.2362 0.4764 1.0774, 0.1575 0.4764 1.0774, 0.2362 0.4845 1.0711, 0.1575 0.4845 1.0711, 0.2362 0.4908 1.063, 0.1575 0.4908 1.063, 0.2362 0.4947 1.0535, 0.1575 0.4947 1.0535, 0.2362 0.4961 1.0433, 0.1575 0.4961 1.0433, 0.1575 0.4961 0.1905, 0.2362 0.4961 0.1905, 0.1575 0.4974 0.1804, 0.2362 0.4974 0.1804, 0.1575 0.5012 0.171, 0.2362 0.5012 0.171, 0.1575 0.5074 0.1629, 0.2362 0.5074 0.1629, 0.1575 0.5154 0.1566, 0.2362 0.5154 0.1566, 0.1575 0.6049 0.1039, 0.2362 0.6049 0.1039, 0.2362 0.6249 0.0984, 0.2362 0.7717 0.0984, 0.1575 0.6249 0.0984, 0.1575 0.7717 0.0984, 0.1575 0.811 0.0394, 0.1575 0.811 0.0591, 0.2362 0.811 0.0394, 0.2362 0.811 0.0591, 0.1575 0.5462 0.0, 0.1575 0.7717 0.0, 0.2362 0.5462 0.0, 0.2362 0.7717 0.0, 0.2362 0.5262 0.0054, 0.2362 0.358 0.1046, 0.1575 0.5262 0.0054, 0.1575 0.358 0.1046, 0.1575 0.3585 1.0775, 0.1575 0.3679 1.0814, 0.1575 0.6112 0.1009, 0.1575 0.3504 0.1104, 0.1575 0.3504 1.0714, 0.1575 0.8057 0.0787, 0.1575 0.7995 0.0869, 0.1575 0.7818 0.0971, 0.1575 0.7913 0.0932, 0.1575 0.5392 0.0006, 0.1575 0.5325 0.0025, 0.1575 0.618 0.099, 0.1575 0.8097 0.0692, 0.1575 0.8097 0.0292, 0.1575 0.8057 0.0197, 0.1575 0.7995 0.0115, 0.1575 0.7913 0.0053, 0.1575 0.7818 0.0013, 0.2362 0.3504 0.1104, 0.2362 0.618 0.099, 0.2362 0.3504 1.0714, 0.2362 0.3585 1.0775, 0.2362 0.3679 1.0814, 0.2362 0.8097 0.0292, 0.2362 0.7913 0.0932, 0.2362 0.7818 0.0971, 0.2362 0.7995 0.0869, 0.2362 0.8057 0.0787, 0.2362 0.5325 0.0025, 0.2362 0.8097 0.0692, 0.2362 0.6112 0.1009, 0.2362 0.5392 0.0006, 0.2362 0.7818 0.0013, 0.2362 0.7913 0.0053, 0.2362 0.7995 0.0115, 0.2362 0.8057 0.0197, 0.2076 -0.685 0.5109, 0.2076 -0.685 0.6111, 0.1861 -0.685 0.5109, 0.1861 -0.685 0.6111, 0.2362 -0.6063 0.6398, 0.2362 0.1929 0.6398, 0.1575 -0.6063 0.6398, 0.1575 0.1929 0.6398, 0.1575 -0.6063 0.4823, 0.1575 0.1929 0.4823, 0.2362 -0.6063 0.4823, 0.2362 0.1929 0.4823, 0.5512 0.4567 1.0827, 0.5512 0.378 1.0827, 0.6299 0.4567 1.0827, 0.6299 0.378 1.0827, 0.6299 0.4669 1.0813, 0.5512 0.4669 1.0813, 0.6299 0.4764 1.0774, 0.5512 0.4764 1.0774, 0.6299 0.4845 1.0711, 0.5512 0.4845 1.0711, 0.6299 0.4908 1.063, 0.5512 0.4908 1.063, 0.6299 0.4947 1.0535, 0.5512 0.4947 1.0535, 0.6299 0.4961 1.0433, 0.5512 0.4961 1.0433, 0.5512 0.4961 0.1905, 0.6299 0.4961 0.1905, 0.5512 0.4974 0.1804, 0.6299 0.4974 0.1804, 0.5512 0.5012 0.171, 0.6299 0.5012 0.171, 0.5512 0.5074 0.1629, 0.6299 0.5074 0.1629, 0.5512 0.5154 0.1566, 0.6299 0.5154 0.1566, 0.5512 0.6049 0.1039, 0.6299 0.6049 0.1039, 0.6299 0.6249 0.0984, 0.6299 0.7717 0.0984, 0.5512 0.6249 0.0984, 0.5512 0.7717 0.0984, 0.5512 0.811 0.0394, 0.5512 0.811 0.0591, 0.6299 0.811 0.0394, 0.6299 0.811 0.0591, 0.5512 0.5462 0.0, 0.5512 0.7717 0.0, 0.6299 0.5462 0.0, 0.6299 0.7717 0.0, 0.6299 0.5262 0.0054, 0.6299 0.358 0.1046, 0.5512 0.5262 0.0054, 0.5512 0.358 0.1046, 0.5512 0.3585 1.0775, 0.5512 0.3679 1.0814, 0.5512 0.6112 0.1009, 0.5512 0.3504 0.1104, 0.5512 0.3504 1.0714, 0.5512 0.8057 0.0787, 0.5512 0.7995 0.0869, 0.5512 0.7818 0.0971, 0.5512 0.7913 0.0932, 0.5512 0.5392 0.0006, 0.5512 0.5325 0.0025, 0.5512 0.618 0.099, 0.5512 0.8097 0.0692, 0.5512 0.8097 0.0292, 0.5512 0.8057 0.0197, 0.5512 0.7995 0.0115, 0.5512 0.7913 0.0053, 0.5512 0.7818 0.0013, 0.6299 0.3504 0.1104, 0.6299 0.618 0.099, 0.6299 0.3504 1.0714, 0.6299 0.3585 1.0775, 0.6299 0.3679 1.0814, 0.6299 0.8097 0.0292, 0.6299 0.7913 0.0932, 0.6299 0.7818 0.0971, 0.6299 0.7995 0.0869, 0.6299 0.8057 0.0787, 0.6299 0.5325 0.0025, 0.6299 0.8097 0.0692, 0.6299 0.6112 0.1009, 0.6299 0.5392 0.0006, 0.6299 0.7818 0.0013, 0.6299 0.7913 0.0053, 0.6299 0.7995 0.0115, 0.6299 0.8057 0.0197, 0.6013 -0.685 0.5109, 0.6013 -0.685 0.6111, 0.5798 -0.685 0.5109, 0.5798 -0.685 0.6111, 0.6299 -0.6063 0.6398, 0.6299 0.1929 0.6398, 0.5512 -0.6063 0.6398, 0.5512 0.1929 0.6398, 0.5512 -0.6063 0.4823, 0.5512 0.1929 0.4823, 0.6299 -0.6063 0.4823, 0.6299 0.1929 0.4823
            ]
        }
        coordIndex [
            0,1,2,-1,2,1,3,-1,0,2,4,-1,0,4,5,-1,5,4,6,-1,5,6,7,-1,7,6,8,-1,7,8,9,-1,9,8,10,-1,9,10,11,-1,11,10,12,-1,11,12,13,-1,13,12,14,-1,13,14,15,-1,16,15,17,-1,17,15,14,-1,16,17,18,-1,18,17,19,-1,18,19,20,-1,20,19,21,-1,20,21,22,-1,22,21,23,-1,22,23,24,-1,24,23,25,-1,26,24,27,-1,27,24,25,-1,28,29,30,-1,30,29,31,-1,32,33,34,-1,34,33,35,-1,36,37,38,-1,38,37,39,-1,40,41,42,-1,42,41,43,-1,37,36,33,-1,26,44,36,-1,45,46,16,-1,16,46,1,-1,16,1,0,-1,20,43,18,-1,18,43,47,-1,18,47,16,-1,16,47,48,-1,16,48,45,-1,20,22,43,-1,43,22,24,-1,43,24,42,-1,42,24,26,-1,49,31,50,-1,50,31,51,-1,50,51,52,-1,5,13,0,-1,0,13,15,-1,0,15,16,-1,5,7,13,-1,13,7,9,-1,13,9,11,-1,36,53,26,-1,26,53,54,-1,26,54,42,-1,44,55,36,-1,36,55,30,-1,36,30,33,-1,33,30,31,-1,33,31,56,-1,56,31,49,-1,57,58,59,-1,59,58,60,-1,33,32,37,-1,37,32,58,-1,37,58,61,-1,61,58,57,-1,28,62,38,-1,25,23,41,-1,41,23,21,-1,41,21,63,-1,63,21,19,-1,63,19,17,-1,28,38,29,-1,2,3,17,-1,35,38,39,-1,64,63,65,-1,65,63,17,-1,65,17,66,-1,66,17,3,-1,67,68,69,-1,69,68,29,-1,69,29,70,-1,25,41,27,-1,27,41,40,-1,27,40,71,-1,38,35,29,-1,29,35,72,-1,29,72,70,-1,62,73,38,-1,38,73,27,-1,38,27,74,-1,74,27,71,-1,6,12,8,-1,8,12,10,-1,17,14,2,-1,2,14,12,-1,2,12,4,-1,4,12,6,-1,75,76,39,-1,39,76,34,-1,39,34,35,-1,75,77,76,-1,76,77,78,-1,76,78,79,-1,41,63,43,-1,43,63,47,-1,48,64,65,-1,48,65,45,-1,45,65,66,-1,45,66,46,-1,46,66,3,-1,46,3,1,-1,80,81,82,-1,82,81,83,-1,84,85,86,-1,86,85,87,-1,88,89,90,-1,90,89,91,-1,86,87,88,-1,88,87,89,-1,90,91,84,-1,84,91,85,-1,28,30,62,-1,62,30,55,-1,62,55,73,-1,73,55,44,-1,73,44,27,-1,27,44,26,-1,36,38,74,-1,36,74,53,-1,53,74,71,-1,53,71,54,-1,54,71,40,-1,54,40,42,-1,32,34,76,-1,32,76,58,-1,58,76,79,-1,58,79,60,-1,60,79,78,-1,60,78,59,-1,59,78,77,-1,59,77,57,-1,57,77,75,-1,57,75,61,-1,61,75,39,-1,61,39,37,-1,31,29,68,-1,31,68,51,-1,51,68,67,-1,51,67,52,-1,52,67,69,-1,52,69,50,-1,50,69,70,-1,50,70,49,-1,49,70,72,-1,49,72,56,-1,56,72,35,-1,56,35,33,-1,86,83,84,-1,84,83,81,-1,88,82,86,-1,86,82,83,-1,80,90,81,-1,81,90,84,-1,90,80,88,-1,88,80,82,-1,92,93,94,-1,94,93,95,-1,92,94,96,-1,92,96,97,-1,97,96,98,-1,97,98,99,-1,99,98,100,-1,99,100,101,-1,101,100,102,-1,101,102,103,-1,103,102,104,-1,103,104,105,-1,105,104,106,-1,105,106,107,-1,108,107,109,-1,109,107,106,-1,108,109,110,-1,110,109,111,-1,110,111,112,-1,112,111,113,-1,112,113,114,-1,114,113,115,-1,114,115,116,-1,116,115,117,-1,118,116,119,-1,119,116,117,-1,120,121,122,-1,122,121,123,-1,124,125,126,-1,126,125,127,-1,128,129,130,-1,130,129,131,-1,132,133,134,-1,134,133,135,-1,129,128,125,-1,136,137,108,-1,108,137,93,-1,108,93,92,-1,118,138,128,-1,112,135,110,-1,110,135,139,-1,110,139,108,-1,108,139,140,-1,108,140,136,-1,97,105,92,-1,92,105,107,-1,92,107,108,-1,97,99,105,-1,105,99,101,-1,105,101,103,-1,112,114,135,-1,135,114,116,-1,135,116,134,-1,134,116,118,-1,141,123,142,-1,142,123,143,-1,142,143,144,-1,128,145,118,-1,118,145,146,-1,118,146,134,-1,138,147,128,-1,128,147,122,-1,128,122,125,-1,125,122,123,-1,125,123,148,-1,148,123,141,-1,125,124,129,-1,129,124,149,-1,129,149,150,-1,150,151,129,-1,129,151,152,-1,129,152,153,-1,117,115,133,-1,133,115,113,-1,133,113,154,-1,154,113,111,-1,154,111,109,-1,94,95,109,-1,120,155,130,-1,120,130,121,-1,156,154,157,-1,157,154,109,-1,157,109,158,-1,158,109,95,-1,159,126,131,-1,131,126,127,-1,131,127,130,-1,98,104,100,-1,100,104,102,-1,109,106,94,-1,94,106,104,-1,94,104,96,-1,96,104,98,-1,160,161,162,-1,162,161,121,-1,162,121,163,-1,117,133,119,-1,119,133,132,-1,119,132,164,-1,130,127,121,-1,121,127,165,-1,121,165,163,-1,155,166,130,-1,130,166,119,-1,130,119,167,-1,167,119,164,-1,131,168,169,-1,169,170,131,-1,131,170,171,-1,131,171,159,-1,133,154,135,-1,135,154,139,-1,140,156,157,-1,140,157,136,-1,136,157,158,-1,136,158,137,-1,137,158,95,-1,137,95,93,-1,172,173,174,-1,174,173,175,-1,176,177,178,-1,178,177,179,-1,180,181,182,-1,182,181,183,-1,178,179,180,-1,180,179,181,-1,182,183,176,-1,176,183,177,-1,184,185,186,-1,186,185,187,-1,184,186,188,-1,184,188,189,-1,189,188,190,-1,189,190,191,-1,191,190,192,-1,191,192,193,-1,193,192,194,-1,193,194,195,-1,195,194,196,-1,195,196,197,-1,197,196,198,-1,197,198,199,-1,200,199,201,-1,201,199,198,-1,200,201,202,-1,202,201,203,-1,202,203,204,-1,204,203,205,-1,204,205,206,-1,206,205,207,-1,206,207,208,-1,208,207,209,-1,210,208,211,-1,211,208,209,-1,212,213,214,-1,214,213,215,-1,216,217,218,-1,218,217,219,-1,220,221,222,-1,222,221,223,-1,224,225,226,-1,226,225,227,-1,221,220,217,-1,228,229,200,-1,200,229,185,-1,200,185,184,-1,210,230,220,-1,204,227,202,-1,202,227,231,-1,202,231,200,-1,200,231,232,-1,200,232,228,-1,189,197,184,-1,184,197,199,-1,184,199,200,-1,189,191,197,-1,197,191,193,-1,197,193,195,-1,204,206,227,-1,227,206,208,-1,227,208,226,-1,226,208,210,-1,233,215,234,-1,234,215,235,-1,234,235,236,-1,220,237,210,-1,210,237,238,-1,210,238,226,-1,230,239,220,-1,220,239,214,-1,220,214,217,-1,217,214,215,-1,217,215,240,-1,240,215,233,-1,217,216,221,-1,221,216,241,-1,221,241,242,-1,242,243,221,-1,221,243,244,-1,221,244,245,-1,209,207,225,-1,225,207,205,-1,225,205,246,-1,246,205,203,-1,246,203,201,-1,186,187,201,-1,212,247,222,-1,212,222,213,-1,248,246,249,-1,249,246,201,-1,249,201,250,-1,250,201,187,-1,251,218,223,-1,223,218,219,-1,223,219,222,-1,190,196,192,-1,192,196,194,-1,201,198,186,-1,186,198,196,-1,186,196,188,-1,188,196,190,-1,252,253,254,-1,254,253,213,-1,254,213,255,-1,209,225,211,-1,211,225,224,-1,211,224,256,-1,222,219,213,-1,213,219,257,-1,213,257,255,-1,247,258,222,-1,222,258,211,-1,222,211,259,-1,259,211,256,-1,223,260,261,-1,261,262,223,-1,223,262,263,-1,223,263,251,-1,225,246,227,-1,227,246,231,-1,232,248,249,-1,232,249,228,-1,228,249,250,-1,228,250,229,-1,229,250,187,-1,229,187,185,-1,264,265,266,-1,266,265,267,-1,268,269,270,-1,270,269,271,-1,272,273,274,-1,274,273,275,-1,270,271,272,-1,272,271,273,-1,274,275,268,-1,268,275,269,-1,276,277,278,-1,278,277,279,-1,276,278,280,-1,276,280,281,-1,281,280,282,-1,281,282,283,-1,283,282,284,-1,283,284,285,-1,285,284,286,-1,285,286,287,-1,287,286,288,-1,287,288,289,-1,289,288,290,-1,289,290,291,-1,292,291,293,-1,293,291,290,-1,292,293,294,-1,294,293,295,-1,294,295,296,-1,296,295,297,-1,296,297,298,-1,298,297,299,-1,298,299,300,-1,300,299,301,-1,302,300,303,-1,303,300,301,-1,304,305,306,-1,306,305,307,-1,308,309,310,-1,310,309,311,-1,312,313,314,-1,314,313,315,-1,316,317,318,-1,318,317,319,-1,313,312,309,-1,320,321,292,-1,292,321,277,-1,292,277,276,-1,302,322,312,-1,296,319,294,-1,294,319,323,-1,294,323,292,-1,292,323,324,-1,292,324,320,-1,281,289,276,-1,276,289,291,-1,276,291,292,-1,281,283,289,-1,289,283,285,-1,289,285,287,-1,296,298,319,-1,319,298,300,-1,319,300,318,-1,318,300,302,-1,325,307,326,-1,326,307,327,-1,326,327,328,-1,312,329,302,-1,302,329,330,-1,302,330,318,-1,322,331,312,-1,312,331,306,-1,312,306,309,-1,309,306,307,-1,309,307,332,-1,332,307,325,-1,309,308,313,-1,313,308,333,-1,313,333,334,-1,334,335,313,-1,313,335,336,-1,313,336,337,-1,301,299,317,-1,317,299,297,-1,317,297,338,-1,338,297,295,-1,338,295,293,-1,278,279,293,-1,304,339,314,-1,304,314,305,-1,340,338,341,-1,341,338,293,-1,341,293,342,-1,342,293,279,-1,343,310,315,-1,315,310,311,-1,315,311,314,-1,282,288,284,-1,284,288,286,-1,293,290,278,-1,278,290,288,-1,278,288,280,-1,280,288,282,-1,344,345,346,-1,346,345,305,-1,346,305,347,-1,301,317,303,-1,303,317,316,-1,303,316,348,-1,314,311,305,-1,305,311,349,-1,305,349,347,-1,339,350,314,-1,314,350,303,-1,314,303,351,-1,351,303,348,-1,315,352,353,-1,353,354,315,-1,315,354,355,-1,315,355,343,-1,317,338,319,-1,319,338,323,-1,324,340,341,-1,324,341,320,-1,320,341,342,-1,320,342,321,-1,321,342,279,-1,321,279,277,-1,356,357,358,-1,358,357,359,-1,360,361,362,-1,362,361,363,-1,364,365,366,-1,366,365,367,-1,362,363,364,-1,364,363,365,-1,366,367,360,-1,360,367,361,-1,120,122,155,-1,155,122,147,-1,155,147,166,-1,166,147,138,-1,166,138,119,-1,119,138,118,-1,128,130,167,-1,128,167,145,-1,145,167,164,-1,145,164,146,-1,146,164,132,-1,146,132,134,-1,124,126,159,-1,124,159,149,-1,149,159,171,-1,149,171,150,-1,150,171,170,-1,150,170,151,-1,151,170,169,-1,151,169,152,-1,152,169,168,-1,152,168,153,-1,153,168,131,-1,153,131,129,-1,123,121,161,-1,123,161,143,-1,143,161,160,-1,143,160,144,-1,144,160,162,-1,144,162,142,-1,142,162,163,-1,142,163,141,-1,141,163,165,-1,141,165,148,-1,148,165,127,-1,148,127,125,-1,212,214,247,-1,247,214,239,-1,247,239,258,-1,258,239,230,-1,258,230,211,-1,211,230,210,-1,220,222,259,-1,220,259,237,-1,237,259,256,-1,237,256,238,-1,238,256,224,-1,238,224,226,-1,216,218,251,-1,216,251,241,-1,241,251,263,-1,241,263,242,-1,242,263,262,-1,242,262,243,-1,243,262,261,-1,243,261,244,-1,244,261,260,-1,244,260,245,-1,245,260,223,-1,245,223,221,-1,215,213,253,-1,215,253,235,-1,235,253,252,-1,235,252,236,-1,236,252,254,-1,236,254,234,-1,234,254,255,-1,234,255,233,-1,233,255,257,-1,233,257,240,-1,240,257,219,-1,240,219,217,-1,304,306,339,-1,339,306,331,-1,339,331,350,-1,350,331,322,-1,350,322,303,-1,303,322,302,-1,312,314,351,-1,312,351,329,-1,329,351,348,-1,329,348,330,-1,330,348,316,-1,330,316,318,-1,308,310,343,-1,308,343,333,-1,333,343,355,-1,333,355,334,-1,334,355,354,-1,334,354,335,-1,335,354,353,-1,335,353,336,-1,336,353,352,-1,336,352,337,-1,337,352,315,-1,337,315,313,-1,307,305,345,-1,307,345,327,-1,327,345,344,-1,327,344,328,-1,328,344,346,-1,328,346,326,-1,326,346,347,-1,326,347,325,-1,325,347,349,-1,325,349,332,-1,332,349,311,-1,332,311,309,-1,178,175,176,-1,176,175,173,-1,180,174,178,-1,178,174,175,-1,172,182,173,-1,173,182,176,-1,182,172,180,-1,180,172,174,-1,270,267,268,-1,268,267,265,-1,272,266,270,-1,270,266,267,-1,264,274,265,-1,265,274,268,-1,274,264,272,-1,272,264,266,-1,362,359,360,-1,360,359,357,-1,364,358,362,-1,362,358,359,-1,356,366,357,-1,357,366,360,-1,366,356,364,-1,364,356,358,-1,
        ]
    }
}
Shape{
    appearance Appearance {
        material  Material 	{
            diffuseColor 0.25098039215686274 0.25098039215686274 0.25098039215686274
            specularColor 0.12549019607843137 0.12549019607843137 0.12549019607843137
            ambientIntensity 0.251
            transparency 0.0
            shininess 0.5
        }
    }
    geometry IndexedFaceSet {
        ccw TRUE
        solid FALSE
        coord DEF co Coordinate {
            point [
                -0.3366 -0.2366 0.0394, -0.3366 -0.2366 0.0433, -0.3178 -0.2918 0.0394, -0.3178 -0.2918 0.0433, -0.4179 -0.2366 0.0394, -0.4179 -0.2366 0.0433, -0.4378 -0.2918 0.0394, -0.4378 -0.2918 0.0433, -0.4666 -0.2918 0.0394, -0.4666 -0.2918 0.0433, -0.3898 -0.095 0.0394, -0.3898 -0.095 0.0433, -0.3634 -0.095 0.0394, -0.3634 -0.095 0.0433, -0.289 -0.2918 0.0394, -0.289 -0.2918 0.0433, -0.3432 -0.215 0.0433, -0.3726 -0.1328 0.0433, -0.3777 -0.1258 0.0433, -0.3757 -0.119 0.0433, -0.3745 -0.1259 0.0433, -0.3794 -0.1328 0.0433, -0.409 -0.215 0.0433, -0.3432 -0.215 0.0394, -0.3726 -0.1328 0.0394, -0.409 -0.215 0.0394, -0.3794 -0.1328 0.0394, -0.3777 -0.1258 0.0394, -0.3757 -0.119 0.0394, -0.3745 -0.1259 0.0394, -0.1161 -0.2918 0.0394, -0.1161 -0.2918 0.0433, -0.1161 -0.095 0.0394, -0.1161 -0.095 0.0433, -0.1696 -0.2918 0.0394, -0.1696 -0.2918 0.0433, -0.2746 -0.1909 0.0394, -0.2746 -0.1909 0.0433, -0.2717 -0.212 0.0433, -0.2717 -0.212 0.0394, -0.2648 -0.237 0.0433, -0.2648 -0.237 0.0394, -0.2558 -0.2529 0.0433, -0.2558 -0.2529 0.0394, -0.2407 -0.2687 0.0433, -0.2407 -0.2687 0.0394, -0.2232 -0.2799 0.0433, -0.2232 -0.2799 0.0394, -0.2005 -0.2874 0.0433, -0.2005 -0.2874 0.0394, -0.1717 -0.095 0.0394, -0.1717 -0.095 0.0433, -0.1898 -0.0971 0.0433, -0.1898 -0.0971 0.0394, -0.2182 -0.104 0.0433, -0.2182 -0.104 0.0394, -0.2369 -0.1139 0.0433, -0.2369 -0.1139 0.0394, -0.2522 -0.1273 0.0433, -0.2522 -0.1273 0.0394, -0.2623 -0.1418 0.0433, -0.2623 -0.1418 0.0394, -0.27 -0.1632 0.0433, -0.27 -0.1632 0.0394, -0.2416 -0.1648 0.0433, -0.2336 -0.1453 0.0433, -0.2264 -0.1353 0.0433, -0.2192 -0.1292 0.0433, -0.2092 -0.1242 0.0433, -0.1946 -0.1201 0.0433, -0.1716 -0.1166 0.0433, -0.1425 -0.1166 0.0433, -0.1425 -0.2702 0.0433, -0.1705 -0.2702 0.0433, -0.1981 -0.2635 0.0433, -0.2183 -0.2554 0.0433, -0.2286 -0.248 0.0433, -0.235 -0.2405 0.0433, -0.2402 -0.2302 0.0433, -0.2445 -0.2151 0.0433, -0.2481 -0.1915 0.0433, -0.2481 -0.1915 0.0394, -0.2416 -0.1648 0.0394, -0.2336 -0.1453 0.0394, -0.2264 -0.1353 0.0394, -0.2192 -0.1292 0.0394, -0.2092 -0.1242 0.0394, -0.1946 -0.1201 0.0394, -0.1716 -0.1166 0.0394, -0.1425 -0.1166 0.0394, -0.1425 -0.2702 0.0394, -0.1705 -0.2702 0.0394, -0.1981 -0.2635 0.0394, -0.2183 -0.2554 0.0394, -0.2286 -0.248 0.0394, -0.235 -0.2405 0.0394, -0.2402 -0.2302 0.0394, -0.2445 -0.2151 0.0394, -0.0681 -0.1814 0.0394, -0.0681 -0.1814 0.0433, -0.0681 -0.203 0.0394, -0.0681 -0.203 0.0433, 0.0015 -0.1814 0.0394, 0.0015 -0.1814 0.0433, 0.0015 -0.1166 0.0394, 0.0015 -0.1166 0.0433, -0.0729 -0.1166 0.0394, -0.0729 -0.1166 0.0433, -0.0729 -0.095 0.0394, -0.0729 -0.095 0.0433, 0.0279 -0.095 0.0394, 0.0279 -0.095 0.0433, 0.0279 -0.2918 0.0394, 0.0279 -0.2918 0.0433, -0.0777 -0.2918 0.0394, -0.0777 -0.2918 0.0433, -0.0777 -0.2702 0.0394, -0.0777 -0.2702 0.0433, 0.0015 -0.2702 0.0394, 0.0015 -0.2702 0.0433, 0.0015 -0.203 0.0394, 0.0015 -0.203 0.0433, 0.0663 -0.1268 0.0394, 0.0663 -0.1268 0.0433, 0.0886 -0.1173 0.0433, 0.0886 -0.1173 0.0394, 0.1124 -0.1142 0.0433, 0.1124 -0.1142 0.0394, 0.0663 -0.1004 0.0394, 0.0663 -0.1004 0.0433, 0.1127 -0.0926 0.0394, 0.1127 -0.0926 0.0433, 0.0949 -0.0938 0.0394, 0.0891 -0.0942 0.0433, 0.0891 -0.0942 0.0394, 0.2128 -0.1971 0.0394, 0.2128 -0.1971 0.0433, 0.211 -0.1813 0.0433, 0.211 -0.1813 0.0394, 0.2044 -0.1521 0.0433, 0.2044 -0.1521 0.0394, 0.1945 -0.1328 0.0433, 0.1945 -0.1328 0.0394, 0.18 -0.1164 0.0433, 0.18 -0.1164 0.0394, 0.1641 -0.1055 0.0433, 0.1641 -0.1055 0.0394, 0.1422 -0.0975 0.0433, 0.1422 -0.0975 0.0394, 0.1198 -0.0938 0.0394, 0.1205 -0.2942 0.0394, 0.1205 -0.2942 0.0433, 0.1442 -0.2908 0.0433, 0.1442 -0.2908 0.0394, 0.1651 -0.2844 0.0433, 0.1651 -0.2844 0.0394, 0.1792 -0.2757 0.0433, 0.1792 -0.2757 0.0394, 0.1915 -0.2637 0.0433, 0.1915 -0.2637 0.0394, 0.2018 -0.2476 0.0433, 0.2018 -0.2476 0.0394, 0.2089 -0.226 0.0433, 0.2089 -0.226 0.0394, 0.0663 -0.2816 0.0394, 0.0663 -0.2816 0.0433, 0.0927 -0.2914 0.0433, 0.0927 -0.2914 0.0394, 0.0663 -0.26 0.0394, 0.0663 -0.26 0.0433, 0.1169 -0.2726 0.0394, 0.1169 -0.2726 0.0433, 0.0907 -0.2697 0.0433, 0.0907 -0.2697 0.0394, 0.1864 -0.1955 0.0394, 0.1864 -0.1955 0.0433, 0.1817 -0.2194 0.0433, 0.1817 -0.2194 0.0394, 0.1748 -0.2401 0.0433, 0.1748 -0.2401 0.0394, 0.1681 -0.2506 0.0433, 0.1681 -0.2506 0.0394, 0.1621 -0.2566 0.0433, 0.1621 -0.2566 0.0394, 0.1527 -0.2623 0.0433, 0.1527 -0.2623 0.0394, 0.1389 -0.2675 0.0433, 0.1389 -0.2675 0.0394, 0.1222 -0.117 0.0433, 0.1222 -0.117 0.0394, 0.1545 -0.1293 0.0433, 0.1545 -0.1293 0.0394, 0.1664 -0.1376 0.0433, 0.1664 -0.1376 0.0394, 0.1733 -0.1457 0.0433, 0.1733 -0.1457 0.0394, 0.1786 -0.1561 0.0433, 0.1786 -0.1561 0.0394, 0.1829 -0.1714 0.0433, 0.1829 -0.1714 0.0394, 0.3304 -0.2918 0.0394, 0.3304 -0.2918 0.0433, 0.3304 -0.095 0.0394, 0.3304 -0.095 0.0433, 0.2296 -0.2918 0.0394, 0.2296 -0.2918 0.0433, 0.2296 -0.2702 0.0394, 0.2296 -0.2702 0.0433, 0.304 -0.2702 0.0394, 0.304 -0.2702 0.0433, 0.304 -0.095 0.0394, 0.304 -0.095 0.0433
            ]
        }
        coordIndex [
            0,1,2,-1,2,1,3,-1,4,5,0,-1,0,5,1,-1,6,7,4,-1,4,7,5,-1,8,9,6,-1,6,9,7,-1,10,11,8,-1,8,11,9,-1,12,13,10,-1,10,13,11,-1,14,15,12,-1,12,15,13,-1,14,2,15,-1,15,2,3,-1,16,17,13,-1,15,3,1,-1,18,11,19,-1,19,11,13,-1,19,13,20,-1,20,13,17,-1,18,21,11,-1,11,21,22,-1,11,22,9,-1,7,9,5,-1,5,9,22,-1,5,22,1,-1,1,22,16,-1,1,16,15,-1,15,16,13,-1,16,23,17,-1,17,23,24,-1,22,25,16,-1,16,25,23,-1,21,26,22,-1,22,26,25,-1,26,21,18,-1,26,18,27,-1,27,18,19,-1,27,19,28,-1,28,19,20,-1,28,20,29,-1,29,20,17,-1,29,17,24,-1,30,31,32,-1,32,31,33,-1,34,35,30,-1,30,35,31,-1,36,37,38,-1,36,38,39,-1,39,38,40,-1,39,40,41,-1,41,40,42,-1,41,42,43,-1,43,42,44,-1,43,44,45,-1,45,44,46,-1,45,46,47,-1,47,46,48,-1,47,48,49,-1,49,48,35,-1,49,35,34,-1,50,51,52,-1,50,52,53,-1,53,52,54,-1,53,54,55,-1,55,54,56,-1,55,56,57,-1,57,56,58,-1,57,58,59,-1,59,58,60,-1,59,60,61,-1,61,60,62,-1,61,62,63,-1,63,62,37,-1,63,37,36,-1,50,32,51,-1,51,32,33,-1,64,60,65,-1,65,60,58,-1,65,58,66,-1,66,58,56,-1,66,56,67,-1,67,56,68,-1,68,56,54,-1,68,54,69,-1,69,54,52,-1,69,52,70,-1,70,52,51,-1,70,51,71,-1,71,51,33,-1,71,33,72,-1,72,33,31,-1,72,31,73,-1,73,31,35,-1,73,35,74,-1,74,35,48,-1,74,48,75,-1,75,48,46,-1,75,46,76,-1,76,46,44,-1,76,44,77,-1,77,44,42,-1,77,42,78,-1,78,42,40,-1,78,40,79,-1,79,40,38,-1,79,38,80,-1,80,38,37,-1,80,37,64,-1,64,37,62,-1,64,62,60,-1,81,80,64,-1,81,64,82,-1,82,64,65,-1,82,65,83,-1,83,65,66,-1,83,66,84,-1,84,66,67,-1,84,67,85,-1,85,67,68,-1,85,68,86,-1,86,68,69,-1,86,69,87,-1,87,69,70,-1,87,70,88,-1,71,89,70,-1,70,89,88,-1,72,90,71,-1,71,90,89,-1,73,91,72,-1,72,91,90,-1,91,73,74,-1,91,74,92,-1,92,74,75,-1,92,75,93,-1,93,75,76,-1,93,76,94,-1,94,76,77,-1,94,77,95,-1,95,77,78,-1,95,78,96,-1,96,78,79,-1,96,79,97,-1,97,79,80,-1,97,80,81,-1,98,99,100,-1,100,99,101,-1,102,103,98,-1,98,103,99,-1,104,105,102,-1,102,105,103,-1,106,107,104,-1,104,107,105,-1,108,109,106,-1,106,109,107,-1,110,111,108,-1,108,111,109,-1,112,113,110,-1,110,113,111,-1,114,115,112,-1,112,115,113,-1,116,117,114,-1,114,117,115,-1,118,119,116,-1,116,119,117,-1,120,121,118,-1,118,121,119,-1,120,100,121,-1,121,100,101,-1,113,115,117,-1,117,119,113,-1,113,119,121,-1,113,121,111,-1,107,109,105,-1,105,109,111,-1,105,111,103,-1,103,111,121,-1,103,121,99,-1,99,121,101,-1,122,123,124,-1,122,124,125,-1,125,124,126,-1,125,126,127,-1,128,129,122,-1,122,129,123,-1,130,131,132,-1,132,131,133,-1,132,133,134,-1,134,133,129,-1,134,129,128,-1,135,136,137,-1,135,137,138,-1,138,137,139,-1,138,139,140,-1,140,139,141,-1,140,141,142,-1,142,141,143,-1,142,143,144,-1,144,143,145,-1,144,145,146,-1,146,145,147,-1,146,147,148,-1,148,147,149,-1,149,147,131,-1,149,131,130,-1,150,151,152,-1,150,152,153,-1,153,152,154,-1,153,154,155,-1,155,154,156,-1,155,156,157,-1,157,156,158,-1,157,158,159,-1,159,158,160,-1,159,160,161,-1,161,160,162,-1,161,162,163,-1,163,162,136,-1,163,136,135,-1,164,165,166,-1,164,166,167,-1,167,166,151,-1,167,151,150,-1,168,169,164,-1,164,169,165,-1,170,171,172,-1,170,172,173,-1,173,172,169,-1,173,169,168,-1,174,175,176,-1,174,176,177,-1,177,176,178,-1,177,178,179,-1,179,178,180,-1,179,180,181,-1,181,180,182,-1,181,182,183,-1,183,182,184,-1,183,184,185,-1,185,184,186,-1,185,186,187,-1,187,186,171,-1,187,171,170,-1,127,126,188,-1,127,188,189,-1,189,188,190,-1,189,190,191,-1,191,190,192,-1,191,192,193,-1,193,192,194,-1,193,194,195,-1,195,194,196,-1,195,196,197,-1,197,196,198,-1,197,198,199,-1,199,198,175,-1,199,175,174,-1,123,129,124,-1,124,129,133,-1,124,133,126,-1,126,133,131,-1,126,131,188,-1,188,131,147,-1,188,147,190,-1,190,147,145,-1,190,145,192,-1,192,145,143,-1,192,143,194,-1,194,143,141,-1,194,141,196,-1,196,141,139,-1,196,139,198,-1,198,139,175,-1,165,169,166,-1,166,169,172,-1,166,172,151,-1,151,172,171,-1,151,171,152,-1,152,171,186,-1,152,186,154,-1,154,186,184,-1,154,184,156,-1,156,184,182,-1,156,182,158,-1,158,182,180,-1,158,180,160,-1,160,180,178,-1,160,178,162,-1,162,178,176,-1,162,176,136,-1,136,176,175,-1,136,175,137,-1,137,175,139,-1,200,201,202,-1,202,201,203,-1,204,205,200,-1,200,205,201,-1,206,207,204,-1,204,207,205,-1,208,209,206,-1,206,209,207,-1,210,211,208,-1,208,211,209,-1,210,202,211,-1,211,202,203,-1,211,203,209,-1,209,203,201,-1,209,201,207,-1,207,201,205,-1,
        ]
    }
}
Shape{
    appearance Appearance {
        material  Material 	{
            diffuseColor 1.0 0.9764705882352941 0.9058823529411765
            specularColor 0.5019607843137255 0.48627450980392156 0.45098039215686275
            ambientIntensity 0.9755
            transparency 0.0
            shininess 0.5
        }
    }
    geometry IndexedFaceSet {
        ccw TRUE
        solid FALSE
        coord DEF co Coordinate {
            point [
                -0.3432 -0.215 0.0394, -0.409 -0.215 0.0394, -0.3726 -0.1328 0.0394, -0.3794 -0.1328 0.0394, -0.3745 -0.1259 0.0394, -0.3777 -0.1258 0.0394, -0.3757 -0.119 0.0394, -0.1716 -0.1166 0.0394, -0.1425 -0.1166 0.0394, -0.2445 -0.2151 0.0394, -0.2402 -0.2302 0.0394, -0.2092 -0.1242 0.0394, -0.1946 -0.1201 0.0394, -0.2416 -0.1648 0.0394, -0.2481 -0.1915 0.0394, -0.1425 -0.2702 0.0394, -0.1705 -0.2702 0.0394, -0.1981 -0.2635 0.0394, -0.2183 -0.2554 0.0394, -0.2286 -0.248 0.0394, -0.235 -0.2405 0.0394, -0.2192 -0.1292 0.0394, -0.2336 -0.1453 0.0394, -0.2264 -0.1353 0.0394
            ]
        }
        coordIndex [
            0,1,2,-1,2,1,3,-1,2,3,4,-1,4,3,5,-1,4,5,6,-1,7,8,9,-1,9,8,10,-1,11,12,13,-1,7,9,12,-1,12,9,14,-1,12,14,13,-1,15,16,8,-1,8,16,17,-1,8,17,18,-1,18,19,8,-1,8,19,20,-1,8,20,10,-1,11,13,21,-1,21,13,22,-1,21,22,23,-1,
        ]
    }
}