#VRML V2.0 utf8
# 3D model generated by easyeda2kicad.py (https://github.com/uPesy/easyeda2kicad.py)

Shape{
    appearance Appearance {
        material  Material 	{
            diffuseColor 0.8 0.8 0.8
            specularColor 1.0 1.0 1.0
            ambientIntensity 1.0
            transparency 0.0
            shininess 0.5
        }
    }
    geometry IndexedFaceSet {
        ccw TRUE
        solid FALSE
        coord DEF co Coordinate {
            point [
                -2.8543 -0.128 -0.1969, -2.4213 -0.128 -0.1969, -2.8543 0.128 -0.1969, -2.4213 0.128 -0.1969, -2.8543 -0.128 -2.5591, -2.8543 0.128 -2.5591, -0.8071 0.0362 -2.7559, -0.8071 -0.0362 -2.7559, -2.6575 0.0362 -2.7559, -2.6575 -0.0362 -2.7559, -0.8071 0.128 -0.8717, -0.8071 -0.128 -0.8717, -0.8071 0.128 -2.5591, -0.8071 -0.128 -2.5591, -1.0039 -0.128 -0.7225, -1.0039 0.128 -0.7225, -1.0039 -0.128 -0.1969, -1.0039 0.128 -0.1969, -1.2402 -0.128 -0.1969, -1.2402 0.128 -0.1969, -1.2402 -0.128 4.1148, -1.2402 0.128 4.1148, -2.4213 -0.128 4.1148, -2.4213 0.128 4.1148, 1.2402 -0.128 -0.1969, 1.2402 -0.128 4.1148, 1.2402 0.128 -0.1969, 1.2402 0.128 4.1148, 1.0039 -0.128 -0.1969, 1.0039 0.128 -0.1969, 1.0039 -0.128 -0.7225, 1.0039 0.128 -0.7225, 0.8071 -0.128 -0.8717, 0.8071 0.128 -0.8717, 0.8071 0.0362 -2.7559, 0.8071 -0.0362 -2.7559, 0.8071 0.128 -2.5591, 0.8071 -0.128 -2.5591, 2.6575 0.0362 -2.7559, 2.6575 -0.0362 -2.7559, 2.8543 0.128 -2.5591, 2.8543 0.128 -0.1969, 2.8543 -0.128 -2.5591, 2.8543 -0.128 -0.1969, 2.4213 -0.128 -0.1969, 2.4213 0.128 -0.1969, 2.4213 -0.128 4.1148, 2.4213 0.128 4.1148
            ]
        }
        coordIndex [
            0,1,2,-1,2,1,3,-1,4,0,5,-1,5,0,2,-1,6,7,8,-1,8,7,9,-1,10,11,12,-1,12,11,13,-1,12,13,6,-1,6,13,7,-1,14,11,15,-1,15,11,10,-1,16,14,17,-1,17,14,15,-1,18,16,19,-1,19,16,17,-1,20,18,21,-1,21,18,19,-1,22,20,23,-1,23,20,21,-1,1,22,3,-1,3,22,23,-1,16,18,14,-1,14,18,4,-1,14,4,11,-1,11,4,13,-1,0,4,1,-1,1,4,18,-1,1,18,22,-1,22,18,20,-1,15,10,12,-1,23,21,3,-1,3,21,19,-1,5,2,12,-1,12,2,3,-1,12,3,15,-1,15,3,19,-1,15,19,17,-1,8,9,5,-1,5,9,4,-1,12,6,5,-1,5,6,8,-1,7,13,9,-1,9,13,4,-1,24,25,26,-1,26,25,27,-1,28,24,29,-1,29,24,26,-1,30,28,31,-1,31,28,29,-1,32,30,33,-1,33,30,31,-1,34,35,36,-1,36,35,37,-1,36,37,33,-1,33,37,32,-1,38,39,34,-1,34,39,35,-1,40,41,42,-1,42,41,43,-1,44,43,45,-1,45,43,41,-1,46,44,47,-1,47,44,45,-1,25,46,27,-1,27,46,47,-1,30,32,37,-1,46,25,44,-1,44,25,24,-1,42,43,37,-1,37,43,44,-1,37,44,30,-1,30,44,24,-1,30,24,28,-1,29,26,31,-1,31,26,40,-1,31,40,33,-1,33,40,36,-1,41,40,45,-1,45,40,26,-1,45,26,47,-1,47,26,27,-1,40,42,38,-1,38,42,39,-1,40,38,36,-1,36,38,34,-1,39,42,35,-1,35,42,37,-1,
        ]
    }
}
Shape{
    appearance Appearance {
        material  Material 	{
            diffuseColor 0.9803921568627451 0.7843137254901961 0.1843137254901961
            specularColor 0.49019607843137253 0.39215686274509803 0.09411764705882353
            ambientIntensity 0.7745
            transparency 0.0
            shininess 0.5
        }
    }
    geometry IndexedFaceSet {
        ccw TRUE
        solid FALSE
        coord DEF co Coordinate {
            point [
                1.7717 -0.4921 -0.1969, 1.7717 -0.8071 -0.1969, 0.7579 -0.8071 -0.1969, -1.7717 -0.4921 -0.1969, -3.3661 -0.4921 -0.1969, -3.3661 -0.4675 -0.1969, -2.4213 -0.0729 -0.1969, -3.3661 -0.0729 -0.1969, -3.3661 0.1263 -0.1969, -1.2402 -0.128 -0.1969, -1.2402 -0.0729 -0.1969, -0.8808 -0.0729 -0.1969, -1.2402 0.1263 -0.1969, -1.7717 0.4921 -0.1969, -1.2402 0.128 -0.1969, -3.3661 0.4921 -0.1969, -2.4213 0.128 -0.1969, -2.4213 0.1263 -0.1969, 1.2402 0.128 -0.1969, 1.7717 0.4921 -0.1969, 2.4213 0.128 -0.1969, 2.8937 0.4921 -0.1969, 2.4213 0.1263 -0.1969, 1.2402 -0.0729 -0.1969, 1.2402 -0.128 -0.1969, 0.7579 -0.4675 -0.1969, 2.8937 -0.4675 -0.1969, 2.4213 -0.128 -0.1969, 2.8937 -0.0729 -0.1969, -1.7717 -0.8071 -0.1969, -0.8808 -0.4675 -0.1969, -2.4213 -0.128 -0.1969, 3.3661 -0.4675 -0.1969, 3.3661 -0.4921 -0.1969, 2.8937 -0.4921 -0.1969, 2.4213 -0.0729 -0.1969, 2.8937 0.1263 -0.1969, 3.3661 0.4921 -0.1969, 0.0116 -0.0399 -0.1969, 0.0116 -0.0615 -0.1969, -0.0076 -0.0729 -0.1969, 0.0326 -0.0701 -0.1969, 0.0405 0.1263 -0.1969, 0.0343 0.1259 -0.1969, -0.0076 0.1263 -0.1969, 0.0116 0.1197 -0.1969, 0.0116 0.0933 -0.1969, 0.0337 0.1028 -0.1969, 0.0151 -0.0419 -0.1969, 0.0577 0.1059 -0.1969, 0.0771 0.1037 -0.1969, 0.0918 0.0984 -0.1969, 0.1054 0.0893 -0.1969, 0.1173 0.0762 -0.1969, 0.1316 0.0246 -0.1969, 0.1296 0.0033 -0.1969, 0.1243 -0.0137 -0.1969, 0.0805 -0.0505 -0.1969, 0.0621 -0.0525 -0.1969, 0.0948 -0.0452 -0.1969, 0.1069 -0.037 -0.1969, 0.1161 -0.0273 -0.1969, 0.036 -0.0496 -0.1969, 0.1254 0.061 -0.1969, 0.1307 0.0399 -0.1969, 0.0579 0.1275 -0.1969, -0.0076 0.8071 -0.1969, 0.0726 0.1263 -0.1969, 0.1664 0.8071 -0.1969, 0.1476 0.0733 -0.1969, 0.1361 0.0917 -0.1969, 0.1664 0.1263 -0.1969, 0.1249 -0.0549 -0.1969, 0.1397 -0.0394 -0.1969, 0.1664 -0.0729 -0.1969, 0.1502 -0.0207 -0.1969, 0.0773 -0.0729 -0.1969, 0.09 -0.0716 -0.1969, 0.1091 -0.0651 -0.1969, 0.1183 0.1088 -0.1969, 0.0996 0.1195 -0.1969, 0.0777 0.1259 -0.1969, 0.1561 0.0002 -0.1969, 0.158 0.023 -0.1969, 0.1552 0.051 -0.1969, 0.0657 -0.0741 -0.1969, 0.1664 -0.4675 -0.1969, 0.0604 -0.074 -0.1969, -0.0076 -0.4675 -0.1969, 0.0524 -0.0729 -0.1969, -0.1517 0.8071 -0.1969, -0.1517 0.1263 -0.1969, -0.3365 0.8071 -0.1969, -0.3365 0.1263 -0.1969, -0.8808 0.8071 -0.1969, -0.8808 0.1263 -0.1969, 0.7579 0.1263 -0.1969, 0.7579 0.8071 -0.1969, 1.7717 0.8071 -0.1969, -0.3725 -0.0717 -0.1969, -0.3437 -0.0717 -0.1969, -0.3365 -0.0729 -0.1969, -0.4926 -0.0717 -0.1969, -0.4726 -0.0165 -0.1969, -0.3913 -0.0165 -0.1969, -0.4181 0.1251 -0.1969, -0.4445 0.1251 -0.1969, -0.5214 -0.0717 -0.1969, -1.7717 0.8071 -0.1969, -0.3195 -0.0178 -0.1969, -0.3082 -0.0354 -0.1969, -0.292 -0.0509 -0.1969, -0.2714 -0.0628 -0.1969, -0.2779 0.114 -0.1969, -0.2993 0.0996 -0.1969, -0.1709 -0.0717 -0.1969, -0.1709 0.1251 -0.1969, -0.2264 0.1251 -0.1969, -0.2549 0.1221 -0.1969, -0.2995 0.0994 -0.1969, -0.3135 0.084 -0.1969, -0.3226 0.0671 -0.1969, -0.2488 -0.0696 -0.1969, -0.2244 -0.0717 -0.1969, -0.1517 -0.0729 -0.1969, -0.3279 0.0477 -0.1969, -0.3293 0.0292 -0.1969, -0.3266 0.0028 -0.1969, -0.1325 -0.0717 -0.1969, -0.0268 -0.0717 -0.1969, -0.1325 -0.0501 -0.1969, -0.0268 0.1251 -0.1969, -0.1277 0.1251 -0.1969, -0.1277 0.1035 -0.1969, -0.0532 0.0171 -0.1969, -0.0532 -0.0501 -0.1969, -0.1229 0.0171 -0.1969, -0.1229 0.0387 -0.1969, -0.0532 0.0387 -0.1969, -0.0532 0.1035 -0.1969, 0.2756 -0.0717 -0.1969, 0.2756 0.1251 -0.1969, 0.2492 0.1251 -0.1969, 0.2492 -0.0501 -0.1969, 0.7579 -0.0729 -0.1969, 0.1748 -0.0717 -0.1969, 0.1748 -0.0501 -0.1969, -0.1517 -0.4675 -0.1969, -0.3365 -0.4675 -0.1969, 1.2402 0.1263 -0.1969, 3.3661 0.1263 -0.1969, 3.3661 -0.0729 -0.1969, 0.1664 -0.8071 -0.1969, -0.0076 -0.8071 -0.1969, -0.1517 -0.8071 -0.1969, -0.3365 -0.8071 -0.1969, -0.8808 -0.8071 -0.1969, -3.6417 0.7087 3.2677, -3.7598 0.5903 3.2677, -3.7598 1.0039 3.2677, 3.6417 0.7087 3.2677, 2.1654 0.7087 3.2677, 2.1654 0.8071 3.2677, -2.1654 0.7087 3.2677, 3.7598 0.5903 3.2677, 3.7598 1.0039 3.2677, -2.1654 0.8071 3.2677, -3.6417 0.5094 0.0787, -2.1654 0.6841 2.874, -1.7717 0.6841 2.874, 2.1654 0.6841 2.874, 3.6417 0.5094 0.0787, 1.7717 0.6841 2.874, 3.6417 -0.7087 3.2677, 2.1654 -0.7087 3.2677, 3.6417 -0.5094 0.0787, 2.1654 -0.6841 2.874, 1.7717 -0.6841 2.874, 3.7598 -1.0039 4.6457, 3.7598 -1.0039 3.2677, 3.7598 1.0039 4.6457, 3.7598 -0.5903 3.2677, 3.7598 0.3984 0.1968, 3.7598 -0.3984 0.1968, -3.7598 -1.0039 3.2677, -3.7598 -1.0039 4.6457, -3.7598 1.0039 4.6457, -3.7598 -0.5903 3.2677, -3.7598 -0.3984 0.1968, -3.7598 0.3984 0.1968, -3.6417 -0.7087 3.2677, -2.1654 -0.7087 3.2677, -2.1654 -0.8071 3.2677, 2.1654 -0.8071 3.2677, 2.4213 0.128 4.6457, 1.2402 0.128 4.6457, -2.4213 -0.128 4.6457, -1.2402 -0.128 4.6457, -2.4213 0.128 4.6457, -1.2402 0.128 4.6457, 1.2402 -0.128 4.6457, 2.4213 -0.128 4.6457, -2.1654 -0.6841 2.874, -1.7717 -0.6841 2.874, -3.6417 -0.5094 0.0787, 2.1654 -0.8071 2.874, 1.7717 -0.8071 2.874, -1.7717 -0.8071 2.874, -2.1654 -0.8071 2.874, -2.1654 0.8071 2.874, -1.7717 0.8071 2.874, 1.7717 0.8071 2.874, 2.1654 0.8071 2.874
            ]
        }
        coordIndex [
            0,1,2,-1,3,4,5,-1,6,7,8,-1,9,10,11,-1,11,10,12,-1,7,6,5,-1,13,14,15,-1,15,14,16,-1,15,16,8,-1,8,16,17,-1,8,17,6,-1,18,19,20,-1,20,19,21,-1,20,21,22,-1,23,24,25,-1,25,24,26,-1,26,24,27,-1,26,27,28,-1,29,3,30,-1,30,3,5,-1,30,5,31,-1,31,5,6,-1,32,33,34,-1,27,35,28,-1,28,35,22,-1,28,22,36,-1,36,22,21,-1,36,21,37,-1,38,39,40,-1,40,39,41,-1,42,43,44,-1,44,43,45,-1,44,45,46,-1,38,47,48,-1,48,47,49,-1,48,49,50,-1,50,51,48,-1,48,51,52,-1,48,52,53,-1,54,55,48,-1,48,55,56,-1,57,58,59,-1,59,58,60,-1,56,61,48,-1,48,61,60,-1,48,60,62,-1,62,60,58,-1,53,63,48,-1,48,63,64,-1,48,64,54,-1,65,66,67,-1,67,66,68,-1,69,70,71,-1,72,73,74,-1,74,73,75,-1,76,77,74,-1,74,77,78,-1,74,78,72,-1,70,79,71,-1,71,79,80,-1,71,80,81,-1,75,82,74,-1,74,82,83,-1,74,83,71,-1,71,83,84,-1,71,84,69,-1,85,86,87,-1,87,86,88,-1,87,88,89,-1,65,42,66,-1,66,42,44,-1,66,44,90,-1,90,44,91,-1,90,91,92,-1,92,91,93,-1,92,93,94,-1,94,93,95,-1,81,67,71,-1,71,67,68,-1,71,68,96,-1,96,68,97,-1,96,97,18,-1,18,97,98,-1,18,98,19,-1,99,100,101,-1,102,103,104,-1,101,100,93,-1,100,105,93,-1,93,105,106,-1,93,106,95,-1,95,106,107,-1,104,99,102,-1,102,99,101,-1,102,101,107,-1,107,101,11,-1,107,11,95,-1,95,11,12,-1,95,12,94,-1,94,12,14,-1,94,14,108,-1,108,14,13,-1,109,110,101,-1,101,110,111,-1,101,111,112,-1,93,113,114,-1,115,116,91,-1,91,116,117,-1,91,117,93,-1,93,117,118,-1,93,118,113,-1,114,119,93,-1,93,119,120,-1,93,120,121,-1,112,122,101,-1,101,122,123,-1,101,123,124,-1,121,125,93,-1,93,125,126,-1,93,126,101,-1,101,126,127,-1,101,127,109,-1,40,124,128,-1,128,129,40,-1,40,129,44,-1,40,44,38,-1,38,44,46,-1,38,46,47,-1,123,115,124,-1,124,115,91,-1,124,91,128,-1,128,91,130,-1,129,131,44,-1,44,131,132,-1,44,132,91,-1,91,132,133,-1,91,133,130,-1,134,135,136,-1,136,135,130,-1,136,130,137,-1,137,130,133,-1,137,133,138,-1,138,133,139,-1,140,141,96,-1,96,141,71,-1,71,141,142,-1,71,142,143,-1,96,144,140,-1,140,144,74,-1,140,74,145,-1,145,74,71,-1,145,71,146,-1,146,71,143,-1,41,89,40,-1,40,89,88,-1,40,88,124,-1,124,88,147,-1,124,147,101,-1,101,147,148,-1,101,148,11,-1,11,148,30,-1,11,30,9,-1,9,30,31,-1,18,149,96,-1,96,149,23,-1,96,23,144,-1,144,23,25,-1,144,25,74,-1,74,25,86,-1,74,86,76,-1,76,86,85,-1,37,150,36,-1,36,150,151,-1,36,151,28,-1,28,151,32,-1,28,32,26,-1,32,34,26,-1,26,34,0,-1,26,0,25,-1,25,0,2,-1,25,2,86,-1,86,2,152,-1,86,152,88,-1,88,152,153,-1,88,153,147,-1,147,153,154,-1,147,154,148,-1,148,154,155,-1,148,155,30,-1,30,155,156,-1,30,156,29,-1,157,158,159,-1,160,161,162,-1,157,159,163,-1,164,160,165,-1,165,160,162,-1,165,162,159,-1,159,162,166,-1,159,166,163,-1,157,163,167,-1,167,163,168,-1,167,168,15,-1,15,168,169,-1,15,169,13,-1,161,160,170,-1,170,160,171,-1,19,172,21,-1,21,172,170,-1,21,170,37,-1,37,170,171,-1,173,174,175,-1,175,174,176,-1,33,175,34,-1,34,175,176,-1,34,176,0,-1,0,176,177,-1,178,179,180,-1,180,179,181,-1,165,180,164,-1,164,180,181,-1,164,181,182,-1,182,181,183,-1,184,179,185,-1,185,179,178,-1,186,159,185,-1,185,159,158,-1,184,185,187,-1,187,185,158,-1,187,158,188,-1,188,158,189,-1,165,159,180,-1,180,159,186,-1,173,181,179,-1,190,191,192,-1,184,187,190,-1,190,192,184,-1,184,192,193,-1,184,193,179,-1,179,193,174,-1,179,174,173,-1,178,180,194,-1,194,180,195,-1,186,185,196,-1,196,185,197,-1,196,198,186,-1,186,198,199,-1,186,199,180,-1,180,199,197,-1,180,197,195,-1,195,197,185,-1,195,185,200,-1,200,185,178,-1,200,178,201,-1,201,178,194,-1,202,191,190,-1,3,203,4,-1,4,203,202,-1,4,202,204,-1,204,202,190,-1,193,205,174,-1,174,205,176,-1,205,206,176,-1,176,206,177,-1,206,1,177,-1,177,1,0,-1,29,207,3,-1,3,207,203,-1,207,208,203,-1,203,208,202,-1,208,192,202,-1,202,192,191,-1,192,208,207,-1,2,1,206,-1,192,207,193,-1,193,207,206,-1,193,206,205,-1,29,156,207,-1,207,156,155,-1,155,154,207,-1,207,154,153,-1,207,153,206,-1,206,153,152,-1,206,152,2,-1,166,209,163,-1,163,209,168,-1,209,210,168,-1,168,210,169,-1,210,108,169,-1,169,108,13,-1,98,211,19,-1,19,211,172,-1,211,212,172,-1,172,212,170,-1,212,162,170,-1,170,162,161,-1,162,212,211,-1,162,211,166,-1,166,211,210,-1,166,210,209,-1,98,97,211,-1,211,97,68,-1,211,68,210,-1,210,68,66,-1,210,66,90,-1,90,92,210,-1,210,92,94,-1,210,94,108,-1,37,171,150,-1,150,171,182,-1,150,182,151,-1,151,182,183,-1,151,183,32,-1,32,183,175,-1,32,175,33,-1,167,15,189,-1,189,15,8,-1,189,8,188,-1,188,8,7,-1,188,7,204,-1,204,7,5,-1,204,5,4,-1,18,195,149,-1,149,195,200,-1,149,200,23,-1,23,200,24,-1,200,201,24,-1,24,201,27,-1,201,194,20,-1,20,22,201,-1,201,22,35,-1,201,35,27,-1,194,195,20,-1,20,195,18,-1,16,198,17,-1,17,198,196,-1,17,196,6,-1,6,196,31,-1,196,197,31,-1,31,197,9,-1,197,199,14,-1,14,12,197,-1,197,12,10,-1,197,10,9,-1,199,198,14,-1,14,198,16,-1,181,173,183,-1,183,173,175,-1,182,171,164,-1,164,171,160,-1,167,189,157,-1,157,189,158,-1,190,187,204,-1,204,187,188,-1,
        ]
    }
}
Shape{
    appearance Appearance {
        material  Material 	{
            diffuseColor 0.4 0.4 0.4
            specularColor 0.5019607843137255 0.5019607843137255 0.5019607843137255
            ambientIntensity 0.502
            transparency 0.0
            shininess 0.5
        }
    }
    geometry IndexedFaceSet {
        ccw TRUE
        solid FALSE
        coord DEF co Coordinate {
            point [
                0.1748 -0.0501 -0.1929, 0.1748 -0.0717 -0.1929, 0.1748 -0.0501 -0.1969, 0.1748 -0.0717 -0.1969, 0.2756 -0.0717 -0.1929, 0.2756 -0.0717 -0.1969, 0.2756 0.1251 -0.1929, 0.2756 0.1251 -0.1969, 0.2492 0.1251 -0.1929, 0.2492 0.1251 -0.1969, 0.2492 -0.0501 -0.1929, 0.2492 -0.0501 -0.1969, 0.0116 -0.0399 -0.1929, 0.0116 -0.0615 -0.1929, 0.0116 -0.0399 -0.1969, 0.0116 -0.0615 -0.1969, 0.0326 -0.0701 -0.1929, 0.0657 -0.0741 -0.1929, 0.0657 -0.0741 -0.1969, 0.0604 -0.074 -0.1969, 0.0604 -0.074 -0.1929, 0.0524 -0.0729 -0.1969, 0.0326 -0.0701 -0.1969, 0.158 0.023 -0.1929, 0.158 0.023 -0.1969, 0.1561 0.0002 -0.1969, 0.1561 0.0002 -0.1929, 0.1502 -0.0207 -0.1969, 0.1502 -0.0207 -0.1929, 0.1397 -0.0394 -0.1969, 0.1397 -0.0394 -0.1929, 0.1249 -0.0549 -0.1969, 0.1249 -0.0549 -0.1929, 0.1091 -0.0651 -0.1969, 0.1091 -0.0651 -0.1929, 0.09 -0.0716 -0.1969, 0.09 -0.0716 -0.1929, 0.0773 -0.0729 -0.1969, 0.0579 0.1275 -0.1929, 0.0579 0.1275 -0.1969, 0.0777 0.1259 -0.1929, 0.0726 0.1263 -0.1969, 0.0777 0.1259 -0.1969, 0.0996 0.1195 -0.1969, 0.0996 0.1195 -0.1929, 0.1183 0.1088 -0.1969, 0.1183 0.1088 -0.1929, 0.1361 0.0917 -0.1969, 0.1361 0.0917 -0.1929, 0.1476 0.0733 -0.1969, 0.1476 0.0733 -0.1929, 0.1552 0.051 -0.1969, 0.1552 0.051 -0.1929, 0.0405 0.1263 -0.1969, 0.0343 0.1259 -0.1929, 0.0343 0.1259 -0.1969, 0.0116 0.1197 -0.1929, 0.0116 0.1197 -0.1969, 0.0116 0.0933 -0.1929, 0.0116 0.0933 -0.1969, 0.0577 0.1059 -0.1929, 0.0577 0.1059 -0.1969, 0.0337 0.1028 -0.1969, 0.0337 0.1028 -0.1929, 0.1316 0.0246 -0.1929, 0.1316 0.0246 -0.1969, 0.1307 0.0399 -0.1969, 0.1307 0.0399 -0.1929, 0.1254 0.061 -0.1969, 0.1254 0.061 -0.1929, 0.1173 0.0762 -0.1969, 0.1173 0.0762 -0.1929, 0.1054 0.0893 -0.1969, 0.1054 0.0893 -0.1929, 0.0918 0.0984 -0.1969, 0.0918 0.0984 -0.1929, 0.0771 0.1037 -0.1969, 0.0771 0.1037 -0.1929, 0.0621 -0.0525 -0.1929, 0.0621 -0.0525 -0.1969, 0.0805 -0.0505 -0.1969, 0.0805 -0.0505 -0.1929, 0.0948 -0.0452 -0.1969, 0.0948 -0.0452 -0.1929, 0.1069 -0.037 -0.1969, 0.1069 -0.037 -0.1929, 0.1161 -0.0273 -0.1969, 0.1161 -0.0273 -0.1929, 0.1243 -0.0137 -0.1969, 0.1243 -0.0137 -0.1929, 0.1296 0.0033 -0.1969, 0.1296 0.0033 -0.1929, 0.0151 -0.0419 -0.1969, 0.0151 -0.0419 -0.1929, 0.036 -0.0496 -0.1969, 0.036 -0.0496 -0.1929, -0.1325 -0.0501 -0.1929, -0.1325 -0.0717 -0.1929, -0.1325 -0.0501 -0.1969, -0.1325 -0.0717 -0.1969, -0.0268 -0.0717 -0.1929, -0.0268 -0.0717 -0.1969, -0.0268 0.1251 -0.1929, -0.0268 0.1251 -0.1969, -0.1277 0.1251 -0.1929, -0.1277 0.1251 -0.1969, -0.1277 0.1035 -0.1929, -0.1277 0.1035 -0.1969, -0.0532 0.1035 -0.1929, -0.0532 0.1035 -0.1969, -0.0532 0.0387 -0.1929, -0.0532 0.0387 -0.1969, -0.1229 0.0387 -0.1929, -0.1229 0.0387 -0.1969, -0.1229 0.0171 -0.1929, -0.1229 0.0171 -0.1969, -0.0532 0.0171 -0.1929, -0.0532 0.0171 -0.1969, -0.0532 -0.0501 -0.1929, -0.0532 -0.0501 -0.1969, -0.2244 -0.0717 -0.1929, -0.1709 -0.0717 -0.1929, -0.2244 -0.0717 -0.1969, -0.1709 -0.0717 -0.1969, -0.1709 0.1251 -0.1929, -0.1709 0.1251 -0.1969, -0.2264 0.1251 -0.1929, -0.2264 0.1251 -0.1969, -0.3293 0.0292 -0.1929, -0.3293 0.0292 -0.1969, -0.3279 0.0477 -0.1969, -0.3279 0.0477 -0.1929, -0.3226 0.0671 -0.1969, -0.3226 0.0671 -0.1929, -0.3135 0.084 -0.1969, -0.3135 0.084 -0.1929, -0.2995 0.0994 -0.1969, -0.2995 0.0994 -0.1929, -0.2993 0.0996 -0.1969, -0.2993 0.0996 -0.1929, -0.2779 0.114 -0.1969, -0.2779 0.114 -0.1929, -0.2549 0.1221 -0.1969, -0.2549 0.1221 -0.1929, -0.2488 -0.0696 -0.1969, -0.2488 -0.0696 -0.1929, -0.2714 -0.0628 -0.1969, -0.2714 -0.0628 -0.1929, -0.292 -0.0509 -0.1969, -0.292 -0.0509 -0.1929, -0.3082 -0.0354 -0.1969, -0.3082 -0.0354 -0.1929, -0.3195 -0.0178 -0.1969, -0.3195 -0.0178 -0.1929, -0.3266 0.0028 -0.1969, -0.3266 0.0028 -0.1929, -0.2898 0.0759 -0.1929, -0.2802 0.0861 -0.1929, -0.2659 0.0953 -0.1929, -0.2496 0.101 -0.1929, -0.2263 0.1035 -0.1929, -0.1973 0.1035 -0.1929, -0.1973 -0.0501 -0.1929, -0.2252 -0.0501 -0.1929, -0.246 -0.0482 -0.1929, -0.2626 -0.043 -0.1929, -0.276 -0.0351 -0.1929, -0.287 -0.0241 -0.1929, -0.2953 -0.0106 -0.1929, -0.3011 0.0079 -0.1929, -0.3029 0.0286 -0.1929, -0.3012 0.0482 -0.1929, -0.2966 0.0638 -0.1929, -0.2263 0.1035 -0.1969, -0.1973 0.1035 -0.1969, -0.2496 0.101 -0.1969, -0.2659 0.0953 -0.1969, -0.2802 0.0861 -0.1969, -0.2898 0.0759 -0.1969, -0.2966 0.0638 -0.1969, -0.3012 0.0482 -0.1969, -0.3029 0.0286 -0.1969, -0.3011 0.0079 -0.1969, -0.2953 -0.0106 -0.1969, -0.287 -0.0241 -0.1969, -0.276 -0.0351 -0.1969, -0.2626 -0.043 -0.1969, -0.246 -0.0482 -0.1969, -0.2252 -0.0501 -0.1969, -0.1973 -0.0501 -0.1969
            ]
        }
        coordIndex [
            0,1,2,-1,2,1,3,-1,1,4,3,-1,3,4,5,-1,4,6,5,-1,5,6,7,-1,6,8,7,-1,7,8,9,-1,8,10,9,-1,9,10,11,-1,10,0,11,-1,11,0,2,-1,8,6,10,-1,10,6,4,-1,10,4,0,-1,0,4,1,-1,12,13,14,-1,14,13,15,-1,15,13,16,-1,17,18,19,-1,17,19,20,-1,20,19,21,-1,20,21,16,-1,16,21,22,-1,16,22,15,-1,23,24,25,-1,23,25,26,-1,26,25,27,-1,26,27,28,-1,28,27,29,-1,28,29,30,-1,30,29,31,-1,30,31,32,-1,32,31,33,-1,32,33,34,-1,34,33,35,-1,34,35,36,-1,36,35,17,-1,17,35,37,-1,17,37,18,-1,38,39,40,-1,40,39,41,-1,41,42,40,-1,40,42,43,-1,40,43,44,-1,44,43,45,-1,44,45,46,-1,46,45,47,-1,46,47,48,-1,48,47,49,-1,48,49,50,-1,50,49,51,-1,50,51,52,-1,52,51,24,-1,52,24,23,-1,39,38,53,-1,53,38,54,-1,53,54,55,-1,55,54,56,-1,55,56,57,-1,56,58,57,-1,57,58,59,-1,60,61,62,-1,60,62,63,-1,63,62,59,-1,63,59,58,-1,64,65,66,-1,64,66,67,-1,67,66,68,-1,67,68,69,-1,69,68,70,-1,69,70,71,-1,71,70,72,-1,71,72,73,-1,73,72,74,-1,73,74,75,-1,75,74,76,-1,75,76,77,-1,77,76,61,-1,77,61,60,-1,78,79,80,-1,78,80,81,-1,81,80,82,-1,81,82,83,-1,83,82,84,-1,83,84,85,-1,85,84,86,-1,85,86,87,-1,87,86,88,-1,87,88,89,-1,89,88,90,-1,89,90,91,-1,91,90,65,-1,91,65,64,-1,12,14,92,-1,12,92,93,-1,93,92,94,-1,93,94,95,-1,95,94,79,-1,95,79,78,-1,81,17,78,-1,78,17,20,-1,78,20,95,-1,95,20,16,-1,95,16,93,-1,93,16,13,-1,93,13,12,-1,58,56,63,-1,63,56,54,-1,63,54,60,-1,60,54,38,-1,60,38,77,-1,77,38,40,-1,77,40,75,-1,75,40,44,-1,75,44,73,-1,73,44,46,-1,73,46,71,-1,71,46,48,-1,71,48,69,-1,69,48,50,-1,69,50,67,-1,67,50,52,-1,67,52,64,-1,64,52,23,-1,64,23,91,-1,91,23,26,-1,91,26,89,-1,89,26,28,-1,89,28,87,-1,87,28,30,-1,87,30,85,-1,85,30,32,-1,85,32,83,-1,83,32,34,-1,83,34,81,-1,81,34,36,-1,81,36,17,-1,96,97,98,-1,98,97,99,-1,97,100,99,-1,99,100,101,-1,100,102,101,-1,101,102,103,-1,102,104,103,-1,103,104,105,-1,104,106,105,-1,105,106,107,-1,106,108,107,-1,107,108,109,-1,108,110,109,-1,109,110,111,-1,110,112,111,-1,111,112,113,-1,112,114,113,-1,113,114,115,-1,114,116,115,-1,115,116,117,-1,116,118,117,-1,117,118,119,-1,118,96,119,-1,119,96,98,-1,100,97,96,-1,96,118,100,-1,100,118,116,-1,100,116,102,-1,106,104,108,-1,108,104,102,-1,108,102,110,-1,110,102,116,-1,110,116,112,-1,112,116,114,-1,120,121,122,-1,122,121,123,-1,121,124,123,-1,123,124,125,-1,124,126,125,-1,125,126,127,-1,128,129,130,-1,128,130,131,-1,131,130,132,-1,131,132,133,-1,133,132,134,-1,133,134,135,-1,135,134,136,-1,135,136,137,-1,137,136,138,-1,137,138,139,-1,139,138,140,-1,139,140,141,-1,141,140,142,-1,141,142,143,-1,143,142,127,-1,143,127,126,-1,120,122,144,-1,120,144,145,-1,145,144,146,-1,145,146,147,-1,147,146,148,-1,147,148,149,-1,149,148,150,-1,149,150,151,-1,151,150,152,-1,151,152,153,-1,153,152,154,-1,153,154,155,-1,155,154,129,-1,155,129,128,-1,133,135,156,-1,156,135,137,-1,156,137,157,-1,157,137,139,-1,157,139,158,-1,158,139,141,-1,158,141,159,-1,159,141,143,-1,159,143,160,-1,160,143,126,-1,160,126,161,-1,161,126,124,-1,161,124,162,-1,162,124,121,-1,162,121,163,-1,163,121,120,-1,163,120,164,-1,164,120,145,-1,164,145,165,-1,165,145,147,-1,165,147,166,-1,166,147,149,-1,166,149,167,-1,167,149,151,-1,167,151,168,-1,168,151,153,-1,168,153,169,-1,169,153,155,-1,169,155,170,-1,170,155,128,-1,170,128,171,-1,171,128,131,-1,171,131,172,-1,172,131,133,-1,172,133,156,-1,160,161,173,-1,173,161,174,-1,160,173,175,-1,160,175,159,-1,159,175,176,-1,159,176,158,-1,158,176,177,-1,158,177,157,-1,157,177,178,-1,157,178,156,-1,156,178,179,-1,156,179,172,-1,172,179,180,-1,172,180,171,-1,171,180,181,-1,171,181,170,-1,170,181,182,-1,170,182,169,-1,169,182,183,-1,169,183,168,-1,168,183,184,-1,168,184,167,-1,167,184,185,-1,167,185,166,-1,166,185,186,-1,166,186,165,-1,165,186,187,-1,165,187,164,-1,164,187,188,-1,164,188,163,-1,162,163,189,-1,189,163,188,-1,161,162,174,-1,174,162,189,-1,
        ]
    }
}
Shape{
    appearance Appearance {
        material  Material 	{
            diffuseColor 0.9803921568627451 0.7843137254901961 0.1843137254901961
            specularColor 0.49019607843137253 0.39215686274509803 0.09411764705882353
            ambientIntensity 0.7745
            transparency 0.0
            shininess 0.5
        }
    }
    geometry IndexedFaceSet {
        ccw TRUE
        solid FALSE
        coord DEF co Coordinate {
            point [
                -0.1973 0.1035 -0.1969, -0.1973 -0.0501 -0.1969, -0.2263 0.1035 -0.1969, -0.2252 -0.0501 -0.1969, -0.246 -0.0482 -0.1969, -0.3029 0.0286 -0.1969, -0.3012 0.0482 -0.1969, -0.2966 0.0638 -0.1969, -0.2496 0.101 -0.1969, -0.2626 -0.043 -0.1969, -0.276 -0.0351 -0.1969, -0.287 -0.0241 -0.1969, -0.2953 -0.0106 -0.1969, -0.3011 0.0079 -0.1969, -0.2898 0.0759 -0.1969, -0.2802 0.0861 -0.1969, -0.2659 0.0953 -0.1969
            ]
        }
        coordIndex [
            0,1,2,-1,2,1,3,-1,2,3,4,-1,5,6,2,-1,2,6,7,-1,2,7,8,-1,4,9,2,-1,2,9,10,-1,2,10,11,-1,11,12,2,-1,2,12,13,-1,2,13,5,-1,14,15,7,-1,7,15,16,-1,7,16,8,-1,
        ]
    }
}
Shape{
    appearance Appearance {
        material  Material 	{
            diffuseColor 0.4 0.4 0.4
            specularColor 0.5019607843137255 0.5019607843137255 0.5019607843137255
            ambientIntensity 0.502
            transparency 0.0
            shininess 0.5
        }
    }
    geometry IndexedFaceSet {
        ccw TRUE
        solid FALSE
        coord DEF co Coordinate {
            point [
                -0.4445 0.1251 -0.1929, -0.5214 -0.0717 -0.1929, -0.4445 0.1251 -0.1969, -0.5214 -0.0717 -0.1969, -0.4926 -0.0717 -0.1929, -0.4926 -0.0717 -0.1969, -0.4726 -0.0165 -0.1929, -0.4726 -0.0165 -0.1969, -0.3913 -0.0165 -0.1929, -0.3913 -0.0165 -0.1969, -0.3725 -0.0717 -0.1929, -0.3725 -0.0717 -0.1969, -0.3437 -0.0717 -0.1929, -0.3437 -0.0717 -0.1969, -0.4181 0.1251 -0.1929, -0.4181 0.1251 -0.1969, -0.4342 0.0873 -0.1929, -0.4638 0.0051 -0.1929, -0.4324 0.0942 -0.1929, -0.4311 0.1011 -0.1929, -0.398 0.0051 -0.1929, -0.4273 0.0873 -0.1929, -0.4305 0.1011 -0.1929, -0.4292 0.0941 -0.1929, -0.398 0.0051 -0.1969, -0.4638 0.0051 -0.1969, -0.4273 0.0873 -0.1969, -0.4292 0.0941 -0.1969, -0.4305 0.1011 -0.1969, -0.4311 0.1011 -0.1969, -0.4324 0.0942 -0.1969, -0.4342 0.0873 -0.1969
            ]
        }
        coordIndex [
            0,1,2,-1,2,1,3,-1,1,4,3,-1,3,4,5,-1,4,6,5,-1,5,6,7,-1,6,8,7,-1,7,8,9,-1,8,10,9,-1,9,10,11,-1,10,12,11,-1,11,12,13,-1,12,14,13,-1,13,14,15,-1,14,0,15,-1,15,0,2,-1,16,17,18,-1,18,17,19,-1,6,4,1,-1,17,20,8,-1,21,14,20,-1,20,14,12,-1,20,12,8,-1,8,12,10,-1,8,6,17,-1,17,6,1,-1,17,1,19,-1,19,1,0,-1,19,0,22,-1,22,0,14,-1,22,14,23,-1,23,14,21,-1,20,17,24,-1,24,17,25,-1,21,20,26,-1,26,20,24,-1,21,26,27,-1,21,27,23,-1,23,27,28,-1,23,28,22,-1,19,22,29,-1,29,22,28,-1,19,29,30,-1,19,30,18,-1,18,30,31,-1,18,31,16,-1,17,16,25,-1,25,16,31,-1,
        ]
    }
}
Shape{
    appearance Appearance {
        material  Material 	{
            diffuseColor 0.9803921568627451 0.7843137254901961 0.1843137254901961
            specularColor 0.49019607843137253 0.39215686274509803 0.09411764705882353
            ambientIntensity 0.7745
            transparency 0.0
            shininess 0.5
        }
    }
    geometry IndexedFaceSet {
        ccw TRUE
        solid FALSE
        coord DEF co Coordinate {
            point [
                -0.398 0.0051 -0.1969, -0.4638 0.0051 -0.1969, -0.4273 0.0873 -0.1969, -0.4342 0.0873 -0.1969, -0.4292 0.0941 -0.1969, -0.4324 0.0942 -0.1969, -0.4305 0.1011 -0.1969, -0.4311 0.1011 -0.1969
            ]
        }
        coordIndex [
            0,1,2,-1,2,1,3,-1,2,3,4,-1,4,3,5,-1,4,5,6,-1,6,5,7,-1,
        ]
    }
}