#VRML V2.0 utf8
# 3D model generated by easyeda2kicad.py (https://github.com/uPesy/easyeda2kicad.py)

Shape{
    appearance Appearance {
        material  Material 	{
            diffuseColor 0.19607843137254902 0.19607843137254902 0.19607843137254902
            specularColor 0.09803921568627451 0.09803921568627451 0.09803921568627451
            ambientIntensity 0.1961
            transparency 0.0
            shininess 0.5
        }
    }
    geometry IndexedFaceSet {
        ccw TRUE
        solid FALSE
        coord DEF co Coordinate {
            point [
                1.0433 1.7881 0.0394, 1.0433 1.9453 0.0394, 1.0694 1.9453 0.0394, -0.3129 0.1417 0.0394, -0.3129 0.0933 0.0394, -0.3876 0.1417 0.0394, -0.3876 0.0933 0.0394, 0.9508 1.4984 0.0394, 0.9448 1.5285 0.0394, -0.2988 0.1579 0.0394, -0.3876 0.1579 0.0394, -0.4018 0.272 0.0394, -0.4018 -0.0016 0.0394, -0.3876 0.0771 0.0394, -0.0202 0.0004 0.0394, -0.1867 -0.0016 0.0394, -0.0949 0.0004 0.0394, -0.1623 0.0028 0.0394, -0.147 0.0111 0.0394, 1.2421 1.789 0.0394, 1.2421 -0.0016 0.0394, 0.9508 0.272 0.0394, -0.3129 0.0771 0.0394, -0.3129 0.0165 0.0394, -0.3876 0.0165 0.0394, -0.3876 0.0004 0.0394, -0.2988 0.0004 0.0394, 0.9277 1.5541 0.0394, 0.9022 1.5711 0.0394, 0.7976 1.7881 0.0394, 0.872 1.5771 0.0394, 0.7976 1.5771 0.0394, -0.162 0.1371 0.0394, -0.1376 0.1151 0.0394, -0.1969 0.1458 0.0394, -0.1274 0.0853 0.0394, -0.1272 0.079 0.0394, -0.1354 0.0465 0.0394, -0.1571 0.0238 0.0394, -0.188 0.013 0.0394, -0.138 0.0186 0.0394, -0.133 0.0239 0.0394, -0.0949 0.0165 0.0394, -0.1179 0.0501 0.0394, -0.0343 0.0165 0.0394, -0.1131 0.0801 0.0394, -0.0343 0.1579 0.0394, -0.1232 0.1203 0.0394, -0.1501 0.1487 0.0394, -0.2665 0.0294 0.0394, -0.2665 0.129 0.0394, -0.2541 0.0388 0.0394, -0.2541 0.1195 0.0394, -0.229 0.0192 0.0394, -0.2286 0.1393 0.0394, -0.1979 0.0125 0.0394, -0.2137 0.1441 0.0394, -0.2034 0.1455 0.0394, -0.1908 0.1617 0.0394, -0.1978 0.1619 0.0394, -0.2362 0.1538 0.0394, -0.2524 0.1439 0.0394, -0.2363 0.0045 0.0394, -0.2615 0.1352 0.0394, -0.5807 0.0004 0.0394, -0.5653 0.0004 0.0394, -0.6994 0.0004 0.0394, -0.6761 0.0509 0.0394, -0.6047 0.0509 0.0394, -0.5134 0.0114 0.0394, -0.4817 0.0013 0.0394, -0.4647 0.0004 0.0394, -0.9022 1.5711 0.0394, -0.9277 1.5541 0.0394, -1.0433 1.7881 0.0394, -0.9448 1.5285 0.0394, -0.9508 1.4984 0.0394, -0.872 1.5771 0.0394, -0.7976 1.7881 0.0394, -0.7976 1.5771 0.0394, -1.0694 1.9453 0.0394, -1.0433 1.9453 0.0394, -1.2421 1.789 0.0394, -1.2421 -0.0016 0.0394, -0.9508 0.272 0.0394, -0.4977 0.1522 0.0394, -0.5261 0.1331 0.0394, -0.64 0.1579 0.0394, -0.4729 0.1569 0.0394, -0.642 0.1579 0.0394, -0.7147 0.0004 0.0394, -0.5422 0.1019 0.0394, -0.5451 0.0771 0.0394, -0.5362 0.0375 0.0394, -0.4159 0.0004 0.0394, -0.4159 0.1579 0.0394, -0.4477 0.1579 0.0394, -0.2179 -0.0016 0.0394, -0.2059 -0.0034 0.0394, -0.4018 -0.3921 0.0394, -0.198 -0.0036 0.0394, -0.0202 0.1579 0.0394, 1.2421 -0.3921 0.0394, -1.2421 -0.3921 0.0394, -0.2184 -0.0015 0.0394, -1.0496 -0.4563 0.4921, -1.0496 -0.4563 0.6878, -1.2992 -0.4563 0.4921, -1.2992 -0.4563 0.6878, -0.1496 -0.4563 0.4921, -0.1496 -0.4563 0.6878, -0.7504 -0.4563 0.4921, -0.7504 -0.4563 0.6878, 0.7504 -0.4563 0.4921, 0.7504 -0.4563 0.6878, 0.1496 -0.4563 0.4921, 0.1496 -0.4563 0.6878
            ]
        }
        coordIndex [
            0,1,2,-1,3,4,5,-1,5,4,6,-1,7,8,0,-1,9,10,11,-1,11,10,5,-1,11,5,12,-1,12,5,6,-1,12,6,13,-1,14,15,16,-1,16,15,17,-1,16,17,18,-1,2,19,0,-1,0,19,20,-1,0,20,7,-1,7,20,21,-1,22,23,13,-1,13,23,24,-1,13,24,12,-1,12,24,25,-1,12,25,26,-1,8,27,0,-1,0,27,28,-1,0,28,29,-1,29,28,30,-1,29,30,31,-1,32,33,34,-1,34,33,35,-1,34,35,36,-1,36,37,34,-1,34,37,38,-1,34,38,39,-1,18,40,16,-1,16,40,41,-1,16,41,42,-1,42,41,43,-1,42,43,44,-1,44,43,45,-1,44,45,46,-1,46,45,47,-1,46,47,48,-1,49,50,51,-1,51,50,52,-1,51,52,53,-1,53,52,54,-1,53,54,55,-1,55,54,56,-1,55,56,39,-1,39,56,57,-1,39,57,34,-1,58,59,11,-1,11,59,60,-1,11,60,61,-1,62,26,49,-1,49,26,9,-1,49,9,50,-1,50,9,11,-1,50,11,63,-1,63,11,61,-1,64,65,12,-1,66,67,68,-1,69,70,65,-1,65,70,71,-1,65,71,12,-1,72,73,74,-1,74,73,75,-1,74,75,76,-1,72,74,77,-1,77,74,78,-1,77,78,79,-1,80,81,82,-1,82,81,74,-1,82,74,83,-1,83,74,76,-1,83,76,84,-1,85,86,87,-1,88,85,11,-1,11,85,87,-1,11,87,84,-1,84,87,89,-1,84,89,83,-1,83,89,90,-1,83,90,12,-1,12,90,66,-1,12,66,64,-1,64,66,68,-1,86,91,87,-1,87,91,92,-1,87,92,65,-1,65,92,93,-1,65,93,69,-1,71,94,12,-1,12,94,95,-1,12,95,11,-1,11,95,96,-1,11,96,88,-1,97,98,99,-1,99,98,100,-1,99,100,15,-1,48,58,46,-1,46,58,11,-1,46,11,101,-1,101,11,21,-1,101,21,14,-1,14,21,20,-1,14,20,15,-1,15,20,102,-1,15,102,99,-1,103,83,99,-1,99,83,12,-1,99,12,97,-1,97,12,26,-1,97,26,104,-1,104,26,62,-1,105,106,107,-1,107,106,108,-1,109,110,111,-1,111,110,112,-1,113,114,115,-1,115,114,116,-1,
        ]
    }
}
Shape{
    appearance Appearance {
        material  Material 	{
            diffuseColor 0.6470588235294118 0.6196078431372549 0.5882352941176471
            specularColor 0.45098039215686275 0.43529411764705883 0.4117647058823529
            ambientIntensity 0.6242
            transparency 0.0
            shininess 0.5
        }
    }
    geometry IndexedFaceSet {
        ccw TRUE
        solid FALSE
        coord DEF co Coordinate {
            point [
                1.0433 2.3783 0.2362, 1.0433 2.3783 0.0354, 0.9179 2.3783 0.2362, 0.9179 2.3783 0.0354, 1.0496 -0.4563 0.6878, 1.0496 -0.5433 0.6878, 1.0496 -0.4563 0.4921, 1.0496 -0.5433 0.491, 1.0496 -0.4563 0.491, 0.7504 -0.4563 0.491, 0.7504 -0.5433 0.491, 0.7504 -0.4563 0.4921, 0.7504 -0.5433 0.6878, 0.7504 -0.4563 0.6878, 0.1496 -0.4563 0.6878, 0.1496 -0.5433 0.6878, 0.1496 -0.4563 0.4921, 0.1496 -0.5433 0.491, 0.1496 -0.4563 0.491, -0.1496 -0.4563 0.491, -0.1496 -0.5433 0.491, -0.1496 -0.4563 0.4921, -0.1496 -0.5433 0.6878, -0.1496 -0.4563 0.6878
            ]
        }
        coordIndex [
            0,1,2,-1,2,1,3,-1,4,5,6,-1,6,5,7,-1,6,7,8,-1,9,10,11,-1,11,10,12,-1,11,12,13,-1,14,15,16,-1,16,15,17,-1,16,17,18,-1,19,20,21,-1,21,20,22,-1,21,22,23,-1,
        ]
    }
}
Shape{
    appearance Appearance {
        material  Material 	{
            diffuseColor 0.19607843137254902 0.19607843137254902 0.19607843137254902
            specularColor 0.09803921568627451 0.09803921568627451 0.09803921568627451
            ambientIntensity 0.1961
            transparency 0.0
            shininess 0.5
        }
    }
    geometry IndexedFaceSet {
        ccw TRUE
        solid FALSE
        coord DEF co Coordinate {
            point [
                1.2992 -0.4563 0.4921, 1.2992 -0.4563 0.6878, 1.0496 -0.4563 0.4921, 1.0496 -0.4563 0.6878
            ]
        }
        coordIndex [
            0,1,2,-1,2,1,3,-1,
        ]
    }
}
Shape{
    appearance Appearance {
        material  Material 	{
            diffuseColor 0.6470588235294118 0.6196078431372549 0.5882352941176471
            specularColor 0.45098039215686275 0.43529411764705883 0.4117647058823529
            ambientIntensity 0.6242
            transparency 0.0
            shininess 0.5
        }
    }
    geometry IndexedFaceSet {
        ccw TRUE
        solid FALSE
        coord DEF co Coordinate {
            point [
                -0.7504 -0.4563 0.6878, -0.7504 -0.5433 0.6878, -0.7504 -0.4563 0.4921, -0.7504 -0.5433 0.491, -0.7504 -0.4563 0.491, -1.0496 -0.4563 0.491, -1.0496 -0.5433 0.491, -1.0496 -0.4563 0.4921, -1.0496 -0.5433 0.6878, -1.0496 -0.4563 0.6878
            ]
        }
        coordIndex [
            0,1,2,-1,2,1,3,-1,2,3,4,-1,5,6,7,-1,7,6,8,-1,7,8,9,-1,
        ]
    }
}
Shape{
    appearance Appearance {
        material  Material 	{
            diffuseColor 0.19607843137254902 0.19607843137254902 0.19607843137254902
            specularColor 0.09803921568627451 0.09803921568627451 0.09803921568627451
            ambientIntensity 0.1961
            transparency 0.0
            shininess 0.5
        }
    }
    geometry IndexedFaceSet {
        ccw TRUE
        solid FALSE
        coord DEF co Coordinate {
            point [
                1.2992 -0.4563 0.6878, 1.2992 -0.4563 0.4921, 1.2992 1.7374 0.6878, 1.2992 1.7374 0.4921, 1.0694 1.9453 0.0394, 1.0433 1.9453 0.0394, 1.0433 1.9315 0.2362, -1.0433 1.9453 0.0394, -1.0694 1.9453 0.0394, -1.0433 1.9315 0.2362, -1.1394 1.882 0.9449, 1.1394 1.882 0.9449, -1.2992 -0.4563 0.4921, -1.2992 -0.4563 0.6878, -1.2992 1.7374 0.4921, -1.2992 1.7374 0.6878, 1.2421 -0.4242 0.9449, 0.1181 1.097 0.9449, -1.2421 -0.4242 0.9449, 0.0 1.0654 0.9449, -0.2046 1.4197 0.9449, -0.2362 1.3016 0.9449, -1.2421 1.789 0.9449, -0.2046 1.1835 0.9449, -0.1181 1.097 0.9449, -0.1181 1.5062 0.9449, 0.0 1.5378 0.9449, 0.1181 1.5062 0.9449, 0.2046 1.4197 0.9449, 1.2421 1.789 0.9449, 0.2362 1.3016 0.9449, 0.2046 1.1835 0.9449
            ]
        }
        coordIndex [
            0,1,2,-1,2,1,3,-1,4,5,6,-1,7,8,9,-1,9,8,10,-1,9,10,6,-1,6,10,11,-1,6,11,4,-1,12,13,14,-1,14,13,15,-1,16,17,18,-1,18,17,19,-1,20,10,21,-1,21,10,22,-1,21,22,23,-1,23,22,18,-1,23,18,24,-1,24,18,19,-1,20,25,10,-1,10,25,26,-1,10,26,11,-1,26,27,11,-1,11,27,28,-1,11,28,29,-1,29,28,30,-1,29,30,16,-1,16,30,31,-1,16,31,17,-1,
        ]
    }
}
Shape{
    appearance Appearance {
        material  Material 	{
            diffuseColor 0.6470588235294118 0.6196078431372549 0.5882352941176471
            specularColor 0.45098039215686275 0.43529411764705883 0.4117647058823529
            ambientIntensity 0.6242
            transparency 0.0
            shininess 0.5
        }
    }
    geometry IndexedFaceSet {
        ccw TRUE
        solid FALSE
        coord DEF co Coordinate {
            point [
                -1.0496 -0.7593 0.491, -1.0693 -0.7593 0.491, -1.0496 -0.7535 0.491, -1.0693 -0.5433 0.491, -0.7504 -0.7535 0.491, -1.0496 -0.5433 0.491, -0.7504 -0.4563 0.491, -0.7504 -0.5433 0.491, -1.0496 -0.4563 0.491, -0.7307 -0.7593 0.491, -0.7504 -0.7593 0.491, -0.7307 -0.5433 0.491, -1.0496 -0.8024 0.4804, -0.7504 -0.8024 0.4804, -1.0496 -0.8425 0.4505, -0.7504 -0.8425 0.4505, -1.0496 -0.8666 0.4066, -0.7504 -0.8666 0.4066, -1.0496 -0.9224 0.2194, -0.7504 -0.9224 0.2194, -0.7504 -0.9852 0.1054, -1.0496 -0.9852 0.1054, -0.7504 -1.0895 0.0276, -1.0496 -1.0895 0.0276, -0.7504 -1.2167 0.0, -1.0496 -1.2167 0.0, -1.0496 -1.598 0.0, -0.7504 -1.598 0.0, -1.0496 -1.598 0.1969, -0.7504 -1.598 0.1969, -1.0496 -1.2226 0.1969, -0.7504 -1.2226 0.1969, -1.0496 -1.1737 0.2075, -0.7504 -1.1737 0.2075, -1.0496 -1.1335 0.2374, -0.7504 -1.1335 0.2374, -1.0496 -1.1094 0.2812, -0.7504 -1.1094 0.2812, -1.0496 -1.0536 0.4684, -0.7504 -1.0536 0.4684, -0.7504 -0.9909 0.5825, -1.0496 -0.9909 0.5825, -0.7504 -0.8865 0.6603, -1.0496 -0.8865 0.6603, -0.7504 -0.7593 0.6878, -1.0496 -0.7593 0.6878, -0.7504 -0.4563 0.6878, -1.0496 -0.4563 0.6878, -0.7504 -0.5433 0.6878, -1.0496 -0.5433 0.6878, -1.0693 -0.5433 0.6878, -1.0693 -0.7593 0.6878, -0.7307 -0.5433 0.6878, -0.7307 -0.7593 0.6878, -0.1693 -0.7319 0.491, -0.1693 -0.5433 0.491, 0.1693 -0.7319 0.491, -0.1496 -0.5433 0.491, 0.1693 -0.5433 0.491, 0.1496 -0.5433 0.491, 0.1496 -0.4563 0.491, -0.1496 -0.4563 0.491, -0.1496 -0.5433 0.6878, -0.1693 -0.5433 0.6878, -0.1693 -0.7319 0.6878, 0.1693 -0.7319 0.6878, 0.1693 -0.5433 0.6878, 0.1496 -0.5433 0.6878, 0.1496 -0.4563 0.6878, -0.1496 -0.4563 0.6878, 0.7307 -0.7593 0.491, 0.7307 -0.5433 0.491, 0.7504 -0.5433 0.491, 0.7504 -0.4563 0.491, 1.0496 -0.4563 0.491, 1.0496 -0.5433 0.491, 1.0693 -0.7593 0.491, 1.0496 -0.7593 0.491, 1.0496 -0.7535 0.491, 0.7504 -0.7593 0.491, 0.7504 -0.7535 0.491, 1.0693 -0.5433 0.491, 0.7504 -0.8024 0.4804, 1.0496 -0.8024 0.4804, 0.7504 -0.8425 0.4505, 1.0496 -0.8425 0.4505, 0.7504 -0.8666 0.4066, 1.0496 -0.8666 0.4066, 0.7504 -0.9224 0.2194, 1.0496 -0.9224 0.2194, 1.0496 -0.9852 0.1054, 0.7504 -0.9852 0.1054, 1.0496 -1.0895 0.0276, 0.7504 -1.0895 0.0276, 1.0496 -1.2167 0.0, 0.7504 -1.2167 0.0, 0.7504 -1.598 0.0, 1.0496 -1.598 0.0, 0.7504 -1.598 0.1969, 1.0496 -1.598 0.1969, 0.7504 -1.2226 0.1969, 1.0496 -1.2226 0.1969, 0.7504 -1.1737 0.2075, 1.0496 -1.1737 0.2075, 0.7504 -1.1335 0.2374, 1.0496 -1.1335 0.2374, 0.7504 -1.1094 0.2812, 1.0496 -1.1094 0.2812, 0.7504 -1.0536 0.4684, 1.0496 -1.0536 0.4684, 1.0496 -0.9909 0.5825, 0.7504 -0.9909 0.5825, 1.0496 -0.8865 0.6603, 0.7504 -0.8865 0.6603, 1.0496 -0.7593 0.6878, 0.7504 -0.7593 0.6878, 0.7307 -0.7593 0.6878, 0.7307 -0.5433 0.6878, 0.7504 -0.5433 0.6878, 1.0693 -0.5433 0.6878, 1.0496 -0.5433 0.6878, 1.0693 -0.7593 0.6878, 1.0496 -0.4563 0.6878, 0.7504 -0.4563 0.6878, 1.0433 2.3783 0.2362, 0.9179 2.3783 0.2362, 0.9179 2.339 0.2362, -0.9179 2.3783 0.2362, -1.0433 2.3783 0.2362, -0.9179 2.339 0.2362, -1.0433 1.9315 0.2362, 1.0433 1.9315 0.2362, 1.0433 1.7881 0.0394, 1.0433 1.7881 0.0354, 1.0433 1.9453 0.0394, 1.0433 2.3783 0.0354, -1.0433 1.7881 0.0354, -1.0433 1.7881 0.0394, -1.0433 1.9453 0.0394, -1.0433 2.3783 0.0354, -0.7976 1.7881 0.0354, -0.7976 1.7881 0.0394, -0.7976 1.5771 0.0354, -0.7976 1.5771 0.0394, -0.872 1.5771 0.0354, -0.872 1.5771 0.0394, -0.9022 1.5711 0.0354, -0.9022 1.5711 0.0394, -0.9277 1.5541 0.0354, -0.9277 1.5541 0.0394, -0.9448 1.5285 0.0354, -0.9448 1.5285 0.0394, -0.9508 1.4984 0.0354, -0.9508 1.4984 0.0394, -0.9508 0.272 0.0354, -0.9508 0.272 0.0394, -0.4018 0.272 0.0394, 0.9508 0.272 0.0354, 0.9508 0.272 0.0394, 0.9508 1.4984 0.0354, 0.9508 1.4984 0.0394, 0.9448 1.5285 0.0354, 0.9448 1.5285 0.0394, 0.9277 1.5541 0.0354, 0.9277 1.5541 0.0394, 0.9022 1.5711 0.0354, 0.9022 1.5711 0.0394, 0.872 1.5771 0.0354, 0.872 1.5771 0.0394, 0.7976 1.5771 0.0354, 0.7976 1.5771 0.0394, 0.7976 1.7881 0.0354, 0.7976 1.7881 0.0394, 0.1401 1.7594 0.0394, 0.1401 1.7594 0.0354, 0.1998 1.7433 0.0394, 0.1998 1.7433 0.0354, 0.2435 1.6996 0.0394, 0.2435 1.6996 0.0354, 0.2595 1.6399 0.0394, 0.2595 1.6399 0.0354, 0.2435 1.5801 0.0394, 0.2435 1.5801 0.0354, 0.1998 1.5364 0.0394, 0.1998 1.5364 0.0354, 0.1401 1.5204 0.0394, 0.1401 1.5204 0.0354, -0.1152 1.7594 0.0394, -0.1152 1.7594 0.0354, -0.1152 1.5204 0.0394, -0.1152 1.5204 0.0354, -0.1749 1.5364 0.0394, -0.1749 1.5364 0.0354, -0.2186 1.5801 0.0394, -0.2186 1.5801 0.0354, -0.2346 1.6399 0.0394, -0.2346 1.6399 0.0354, -0.2186 1.6996 0.0394, -0.2186 1.6996 0.0354, -0.1749 1.7433 0.0394, -0.1749 1.7433 0.0354, -0.9179 2.3783 0.0354, -0.9179 2.339 0.0354, 0.9179 2.339 0.0354, 0.9179 2.3783 0.0354
            ]
        }
        coordIndex [
            0,1,2,-1,2,1,3,-1,2,3,4,-1,4,3,5,-1,6,7,8,-1,8,7,5,-1,9,10,4,-1,5,7,4,-1,4,7,11,-1,4,11,9,-1,2,4,12,-1,12,4,13,-1,12,13,14,-1,14,13,15,-1,14,15,16,-1,16,15,17,-1,18,16,19,-1,19,16,17,-1,18,19,20,-1,18,20,21,-1,21,20,22,-1,21,22,23,-1,23,22,24,-1,23,24,25,-1,26,25,27,-1,27,25,24,-1,28,26,29,-1,29,26,27,-1,30,28,31,-1,31,28,29,-1,30,31,32,-1,32,31,33,-1,32,33,34,-1,34,33,35,-1,34,35,36,-1,36,35,37,-1,38,36,39,-1,39,36,37,-1,38,39,40,-1,38,40,41,-1,41,40,42,-1,41,42,43,-1,43,42,44,-1,43,44,45,-1,46,47,48,-1,48,47,49,-1,50,51,49,-1,49,51,45,-1,49,45,48,-1,48,45,44,-1,48,44,52,-1,52,44,53,-1,0,2,12,-1,45,0,43,-1,43,0,12,-1,43,12,41,-1,41,12,14,-1,41,14,38,-1,38,14,16,-1,38,16,36,-1,36,16,18,-1,36,18,34,-1,34,18,21,-1,34,21,32,-1,32,21,23,-1,32,23,30,-1,30,23,25,-1,30,25,28,-1,28,25,26,-1,13,4,10,-1,29,27,31,-1,31,27,24,-1,31,24,33,-1,33,24,22,-1,33,22,35,-1,35,22,20,-1,35,20,37,-1,37,20,19,-1,37,19,39,-1,39,19,17,-1,39,17,40,-1,40,17,15,-1,40,15,42,-1,42,15,13,-1,42,13,44,-1,44,13,10,-1,1,0,51,-1,51,0,45,-1,3,1,50,-1,50,1,51,-1,5,3,49,-1,49,3,50,-1,10,9,44,-1,44,9,53,-1,11,7,52,-1,52,7,48,-1,9,11,53,-1,53,11,52,-1,54,55,56,-1,56,55,57,-1,58,56,59,-1,59,56,57,-1,59,57,60,-1,60,57,61,-1,62,63,64,-1,65,66,67,-1,68,69,67,-1,67,69,62,-1,67,62,65,-1,65,62,64,-1,70,71,72,-1,73,74,72,-1,72,74,75,-1,72,75,70,-1,76,77,78,-1,79,70,80,-1,80,70,75,-1,80,75,78,-1,78,75,81,-1,78,81,76,-1,80,78,82,-1,82,78,83,-1,82,83,84,-1,84,83,85,-1,84,85,86,-1,86,85,87,-1,88,86,89,-1,89,86,87,-1,88,89,90,-1,88,90,91,-1,91,90,92,-1,91,92,93,-1,93,92,94,-1,93,94,95,-1,96,95,97,-1,97,95,94,-1,98,96,99,-1,99,96,97,-1,100,98,101,-1,101,98,99,-1,100,101,102,-1,102,101,103,-1,102,103,104,-1,104,103,105,-1,104,105,106,-1,106,105,107,-1,108,106,109,-1,109,106,107,-1,108,109,110,-1,108,110,111,-1,111,110,112,-1,111,112,113,-1,113,112,114,-1,113,114,115,-1,116,115,117,-1,117,115,118,-1,119,120,121,-1,121,120,114,-1,122,123,120,-1,120,123,118,-1,120,118,114,-1,114,118,115,-1,79,80,82,-1,115,79,113,-1,113,79,82,-1,113,82,111,-1,111,82,84,-1,111,84,108,-1,108,84,86,-1,108,86,106,-1,106,86,88,-1,106,88,104,-1,104,88,91,-1,104,91,102,-1,102,91,93,-1,102,93,100,-1,100,93,95,-1,100,95,98,-1,98,95,96,-1,83,78,77,-1,99,97,101,-1,101,97,94,-1,101,94,103,-1,103,94,92,-1,103,92,105,-1,105,92,90,-1,105,90,107,-1,107,90,89,-1,107,89,109,-1,109,89,87,-1,109,87,110,-1,110,87,85,-1,110,85,112,-1,112,85,83,-1,112,83,114,-1,114,83,77,-1,63,55,64,-1,64,55,54,-1,57,55,62,-1,62,55,63,-1,58,59,66,-1,66,59,67,-1,58,66,56,-1,56,66,65,-1,70,79,116,-1,116,79,115,-1,71,70,117,-1,117,70,116,-1,72,71,118,-1,118,71,117,-1,77,76,114,-1,114,76,121,-1,81,75,119,-1,119,75,120,-1,76,81,121,-1,121,81,119,-1,64,54,65,-1,65,54,56,-1,124,125,126,-1,127,128,129,-1,129,128,130,-1,129,130,126,-1,126,130,131,-1,126,131,124,-1,132,133,134,-1,134,133,135,-1,134,135,131,-1,131,135,124,-1,136,137,138,-1,130,128,138,-1,138,128,139,-1,138,139,136,-1,136,140,137,-1,137,140,141,-1,140,142,141,-1,141,142,143,-1,142,144,143,-1,143,144,145,-1,145,144,146,-1,145,146,147,-1,147,146,148,-1,147,148,149,-1,149,148,150,-1,149,150,151,-1,151,150,152,-1,151,152,153,-1,152,154,153,-1,153,154,155,-1,155,154,156,-1,156,154,157,-1,156,157,158,-1,157,159,158,-1,158,159,160,-1,160,159,161,-1,160,161,162,-1,162,161,163,-1,162,163,164,-1,164,163,165,-1,164,165,166,-1,166,165,167,-1,166,167,168,-1,167,169,168,-1,168,169,170,-1,169,171,170,-1,170,171,172,-1,171,133,172,-1,172,133,132,-1,173,174,175,-1,175,174,176,-1,175,176,177,-1,177,176,178,-1,177,178,179,-1,179,178,180,-1,179,180,181,-1,181,180,182,-1,181,182,183,-1,183,182,184,-1,183,184,185,-1,185,184,186,-1,187,188,173,-1,173,188,174,-1,189,190,191,-1,191,190,192,-1,191,192,193,-1,193,192,194,-1,193,194,195,-1,195,194,196,-1,195,196,197,-1,197,196,198,-1,197,198,199,-1,199,198,200,-1,199,200,187,-1,187,200,188,-1,185,186,189,-1,189,186,190,-1,139,128,201,-1,201,128,127,-1,159,157,154,-1,171,202,203,-1,204,135,203,-1,203,135,133,-1,203,133,171,-1,139,201,202,-1,188,200,140,-1,140,200,198,-1,140,198,142,-1,142,198,196,-1,142,196,194,-1,190,186,154,-1,161,159,163,-1,163,159,154,-1,163,154,165,-1,165,154,167,-1,144,142,152,-1,152,142,194,-1,152,194,154,-1,154,194,192,-1,154,192,190,-1,186,184,154,-1,154,184,169,-1,154,169,167,-1,171,176,174,-1,150,148,152,-1,152,148,146,-1,152,146,144,-1,184,182,169,-1,169,182,180,-1,169,180,171,-1,171,180,178,-1,171,178,176,-1,174,188,171,-1,171,188,140,-1,171,140,202,-1,202,140,136,-1,202,136,139,-1,
        ]
    }
}
Shape{
    appearance Appearance {
        material  Material 	{
            diffuseColor 0.19607843137254902 0.19607843137254902 0.19607843137254902
            specularColor 0.09803921568627451 0.09803921568627451 0.09803921568627451
            ambientIntensity 0.1961
            transparency 0.0
            shininess 0.5
        }
    }
    geometry IndexedFaceSet {
        ccw TRUE
        solid FALSE
        coord DEF co Coordinate {
            point [
                -0.1152 1.5204 0.0394, -0.1749 1.5364 0.0394, -0.2186 1.5801 0.0394, -0.1152 1.7594 0.0394, 0.1401 1.5204 0.0394, 0.1401 1.7594 0.0394, 0.1998 1.7433 0.0394, -0.1749 1.7433 0.0394, -0.2186 1.6996 0.0394, -0.2346 1.6399 0.0394, 0.2435 1.5801 0.0394, 0.1998 1.5364 0.0394, 0.2595 1.6399 0.0394, 0.2435 1.6996 0.0394
            ]
        }
        coordIndex [
            0,1,2,-1,0,3,4,-1,4,3,5,-1,4,5,6,-1,7,3,8,-1,8,3,0,-1,8,0,9,-1,9,0,2,-1,10,11,12,-1,12,11,4,-1,12,4,13,-1,13,4,6,-1,
        ]
    }
}
Shape{
    appearance Appearance {
        material  Material 	{
            diffuseColor 0.6470588235294118 0.6196078431372549 0.5882352941176471
            specularColor 0.45098039215686275 0.43529411764705883 0.4117647058823529
            ambientIntensity 0.6242
            transparency 0.0
            shininess 0.5
        }
    }
    geometry IndexedFaceSet {
        ccw TRUE
        solid FALSE
        coord DEF co Coordinate {
            point [
                0.9179 2.339 0.0354, 0.9179 2.339 0.2362, 0.9179 2.3783 0.0354, 0.9179 2.3783 0.2362, -0.9179 2.3783 0.0354, -0.9179 2.3783 0.2362, -0.9179 2.339 0.0354, -0.9179 2.339 0.2362
            ]
        }
        coordIndex [
            0,1,2,-1,2,1,3,-1,4,5,6,-1,6,5,7,-1,6,7,0,-1,0,7,1,-1,
        ]
    }
}
Shape{
    appearance Appearance {
        material  Material 	{
            diffuseColor 0.19607843137254902 0.19607843137254902 0.19607843137254902
            specularColor 0.09803921568627451 0.09803921568627451 0.09803921568627451
            ambientIntensity 0.1961
            transparency 0.0
            shininess 0.5
        }
    }
    geometry IndexedFaceSet {
        ccw TRUE
        solid FALSE
        coord DEF co Coordinate {
            point [
                -1.1394 1.882 0.9449, -1.0694 1.9453 0.0394, -1.2421 1.789 0.0394, -1.2992 1.7374 0.4921, -1.2992 1.7374 0.6878, -1.2421 1.789 0.9449, 1.2421 1.789 0.0394, 1.0694 1.9453 0.0394, 1.2992 1.7374 0.4921, 1.1394 1.882 0.9449, 1.2992 1.7374 0.6878, 1.2421 1.789 0.9449, 1.0496 -0.4563 0.6878, 1.2992 -0.4563 0.6878, 1.2421 -0.4242 0.9449, 0.7504 -0.4563 0.6878, -1.2421 -0.4242 0.9449, -1.2992 -0.4563 0.6878, -1.0496 -0.4563 0.6878, -0.7504 -0.4563 0.6878, -0.1496 -0.4563 0.6878, 0.1496 -0.4563 0.6878, -1.0496 -0.4563 0.491, -1.0496 -0.4563 0.4921, -0.7504 -0.4563 0.491, -0.7504 -0.4563 0.4921, -0.1496 -0.4563 0.491, -0.1496 -0.4563 0.4921, 0.1496 -0.4563 0.491, 0.1496 -0.4563 0.4921, 0.7504 -0.4563 0.491, 0.7504 -0.4563 0.4921, 1.0496 -0.4563 0.491, 1.0496 -0.4563 0.4921, -0.4018 -0.3921 0.0394, -1.2421 -0.3921 0.0394, -1.2992 -0.4563 0.4921, 1.2992 -0.4563 0.4921, 1.2421 -0.3921 0.0394, -1.2421 -0.0016 0.0394, 1.2421 -0.0016 0.0394, 0.2362 1.3016 0.9055, 0.2362 1.3016 0.9449, 0.2046 1.4197 0.9055, 0.2046 1.4197 0.9449, 0.1181 1.5062 0.9055, 0.1181 1.5062 0.9449, 0.0 1.5378 0.9055, 0.0 1.5378 0.9449, -0.1181 1.5062 0.9055, -0.1181 1.5062 0.9449, -0.2046 1.4197 0.9055, -0.2046 1.4197 0.9449, -0.2362 1.3016 0.9055, -0.2362 1.3016 0.9449, -0.2046 1.1835 0.9055, -0.2046 1.1835 0.9449, -0.1181 1.097 0.9055, -0.1181 1.097 0.9449, 0.0 1.0654 0.9055, 0.0 1.0654 0.9449, 0.1181 1.097 0.9055, 0.1181 1.097 0.9449, 0.2046 1.1835 0.9055, 0.2046 1.1835 0.9449, 0.0 1.3016 0.9055
            ]
        }
        coordIndex [
            0,1,2,-1,2,3,0,-1,0,3,4,-1,0,4,5,-1,6,7,8,-1,8,7,9,-1,8,9,10,-1,10,9,11,-1,12,13,14,-1,12,14,15,-1,16,17,18,-1,18,19,16,-1,16,19,20,-1,16,20,14,-1,14,20,21,-1,14,21,15,-1,22,23,24,-1,24,23,25,-1,26,27,28,-1,28,27,29,-1,30,31,32,-1,32,31,33,-1,34,27,25,-1,34,25,35,-1,35,25,23,-1,35,23,36,-1,37,33,38,-1,38,33,31,-1,38,31,34,-1,34,31,29,-1,34,29,27,-1,3,2,36,-1,36,2,39,-1,36,39,35,-1,6,8,40,-1,40,8,37,-1,40,37,38,-1,16,5,17,-1,17,5,4,-1,13,10,14,-1,14,10,11,-1,41,42,43,-1,43,42,44,-1,43,44,45,-1,45,44,46,-1,45,46,47,-1,47,46,48,-1,47,48,49,-1,49,48,50,-1,49,50,51,-1,51,50,52,-1,51,52,53,-1,53,52,54,-1,53,54,55,-1,55,54,56,-1,55,56,57,-1,57,56,58,-1,57,58,59,-1,59,58,60,-1,59,60,61,-1,61,60,62,-1,61,62,63,-1,63,62,64,-1,63,64,41,-1,41,64,42,-1,61,63,65,-1,65,63,41,-1,65,41,43,-1,55,57,65,-1,65,57,59,-1,65,59,61,-1,49,51,65,-1,65,51,53,-1,65,53,55,-1,43,45,65,-1,65,45,47,-1,65,47,49,-1,
        ]
    }
}
Shape{
    appearance Appearance {
        material  Material 	{
            diffuseColor 0.7529411764705882 0.7529411764705882 0.7529411764705882
            specularColor 0.3764705882352941 0.3764705882352941 0.3764705882352941
            ambientIntensity 0.7529
            transparency 0.0
            shininess 0.5
        }
    }
    geometry IndexedFaceSet {
        ccw TRUE
        solid FALSE
        coord DEF co Coordinate {
            point [
                -0.64 0.1579 0.0787, -0.642 0.1579 0.0787, -0.64 0.1579 0.0394, -0.642 0.1579 0.0394, -0.7147 0.0004 0.0787, -0.7147 0.0004 0.0394, -0.6994 0.0004 0.0787, -0.6994 0.0004 0.0394, -0.6761 0.0509 0.0787, -0.6761 0.0509 0.0394, -0.6047 0.0509 0.0787, -0.6047 0.0509 0.0394, -0.5807 0.0004 0.0787, -0.5807 0.0004 0.0394, -0.5653 0.0004 0.0787, -0.5653 0.0004 0.0394, -0.6686 0.067 0.0787, -0.6123 0.067 0.0787, -0.6409 0.1272 0.0787, -0.6686 0.067 0.0394, -0.6409 0.1272 0.0394, -0.6123 0.067 0.0394, -0.4647 0.0004 0.0787, -0.4159 0.0004 0.0787, -0.4647 0.0004 0.0394, -0.4159 0.0004 0.0394, -0.4159 0.1579 0.0787, -0.4159 0.1579 0.0394, -0.4477 0.1579 0.0787, -0.4477 0.1579 0.0394, -0.4977 0.1522 0.0787, -0.4977 0.1522 0.0394, -0.4729 0.1569 0.0394, -0.4729 0.1569 0.0787, -0.5451 0.0771 0.0787, -0.5451 0.0771 0.0394, -0.5422 0.1019 0.0394, -0.5422 0.1019 0.0787, -0.5261 0.1331 0.0394, -0.5261 0.1331 0.0787, -0.4817 0.0013 0.0394, -0.4817 0.0013 0.0787, -0.5134 0.0114 0.0394, -0.5134 0.0114 0.0787, -0.5362 0.0375 0.0394, -0.5362 0.0375 0.0787, -0.5285 0.0576 0.0787, -0.5156 0.0345 0.0787, -0.4931 0.0206 0.0787, -0.4708 0.0172 0.0787, -0.4481 0.0165 0.0787, -0.43 0.0165 0.0787, -0.43 0.1417 0.0787, -0.4411 0.1417 0.0787, -0.4655 0.141 0.0787, -0.4895 0.1373 0.0787, -0.5069 0.1289 0.0787, -0.5241 0.1086 0.0787, -0.531 0.0772 0.0787, -0.43 0.1417 0.0394, -0.43 0.0165 0.0394, -0.4411 0.1417 0.0394, -0.4655 0.141 0.0394, -0.4895 0.1373 0.0394, -0.5069 0.1289 0.0394, -0.5241 0.1086 0.0394, -0.531 0.0772 0.0394, -0.5285 0.0576 0.0394, -0.5156 0.0345 0.0394, -0.4931 0.0206 0.0394, -0.4708 0.0172 0.0394, -0.4481 0.0165 0.0394, -0.2988 0.0004 0.0787, -0.2988 0.1579 0.0787, -0.2988 0.0004 0.0394, -0.2988 0.1579 0.0394, -0.3876 0.1579 0.0787, -0.3876 0.1579 0.0394, -0.3876 0.1417 0.0787, -0.3876 0.1417 0.0394, -0.3129 0.1417 0.0787, -0.3129 0.1417 0.0394, -0.3129 0.0933 0.0787, -0.3129 0.0933 0.0394, -0.3876 0.0933 0.0787, -0.3876 0.0933 0.0394, -0.3876 0.0771 0.0787, -0.3876 0.0771 0.0394, -0.3129 0.0771 0.0787, -0.3129 0.0771 0.0394, -0.3129 0.0165 0.0787, -0.3129 0.0165 0.0394, -0.3876 0.0165 0.0787, -0.3876 0.0165 0.0394, -0.3876 0.0004 0.0787, -0.3876 0.0004 0.0394, -0.2665 0.129 0.0787, -0.2665 0.129 0.0394, -0.2615 0.1352 0.0394, -0.2615 0.1352 0.0787, -0.2524 0.1439 0.0394, -0.2524 0.1439 0.0787, -0.2362 0.1538 0.0394, -0.2362 0.1538 0.0787, -0.1978 0.1619 0.0394, -0.1978 0.1619 0.0787, -0.2541 0.1195 0.0787, -0.2541 0.1195 0.0394, -0.1969 0.1458 0.0787, -0.1969 0.1458 0.0394, -0.2034 0.1455 0.0394, -0.2034 0.1455 0.0787, -0.2137 0.1441 0.0394, -0.2137 0.1441 0.0787, -0.2286 0.1393 0.0394, -0.2286 0.1393 0.0787, -0.1272 0.079 0.0787, -0.1272 0.079 0.0394, -0.1274 0.0853 0.0394, -0.1274 0.0853 0.0787, -0.1376 0.1151 0.0394, -0.1376 0.1151 0.0787, -0.162 0.1371 0.0394, -0.162 0.1371 0.0787, -0.1979 0.0125 0.0787, -0.1979 0.0125 0.0394, -0.188 0.013 0.0394, -0.188 0.013 0.0787, -0.1571 0.0238 0.0394, -0.1571 0.0238 0.0787, -0.1354 0.0465 0.0394, -0.1354 0.0465 0.0787, -0.2541 0.0388 0.0787, -0.2541 0.0388 0.0394, -0.229 0.0192 0.0394, -0.229 0.0192 0.0787, -0.2665 0.0294 0.0787, -0.2665 0.0294 0.0394, -0.198 -0.0036 0.0787, -0.198 -0.0036 0.0394, -0.2059 -0.0034 0.0394, -0.2059 -0.0034 0.0787, -0.2179 -0.0016 0.0394, -0.2184 -0.0015 0.0787, -0.2184 -0.0015 0.0394, -0.2363 0.0045 0.0394, -0.2363 0.0045 0.0787, -0.1867 -0.0016 0.0394, -0.1623 0.0028 0.0787, -0.1623 0.0028 0.0394, -0.147 0.0111 0.0787, -0.147 0.0111 0.0394, -0.138 0.0186 0.0787, -0.138 0.0186 0.0394, -0.133 0.0239 0.0787, -0.133 0.0239 0.0394, -0.1131 0.0801 0.0787, -0.1131 0.0801 0.0394, -0.1179 0.0501 0.0394, -0.1179 0.0501 0.0787, -0.1908 0.1617 0.0394, -0.1908 0.1617 0.0787, -0.1501 0.1487 0.0394, -0.1501 0.1487 0.0787, -0.1232 0.1203 0.0394, -0.1232 0.1203 0.0787, -0.0202 0.0004 0.0787, -0.0202 0.1579 0.0787, -0.0202 0.0004 0.0394, -0.0202 0.1579 0.0394, -0.0343 0.1579 0.0787, -0.0343 0.1579 0.0394, -0.0343 0.0165 0.0787, -0.0343 0.0165 0.0394, -0.0949 0.0165 0.0787, -0.0949 0.0165 0.0394, -0.0949 0.0004 0.0787, -0.0949 0.0004 0.0394
            ]
        }
        coordIndex [
            0,1,2,-1,2,1,3,-1,1,4,3,-1,3,4,5,-1,4,6,5,-1,5,6,7,-1,6,8,7,-1,7,8,9,-1,8,10,9,-1,9,10,11,-1,10,12,11,-1,11,12,13,-1,12,14,13,-1,13,14,15,-1,14,0,15,-1,15,0,2,-1,16,4,1,-1,0,17,1,-1,1,17,18,-1,1,18,16,-1,14,12,10,-1,6,4,8,-1,8,4,16,-1,8,16,10,-1,10,16,17,-1,10,17,14,-1,14,17,0,-1,16,18,19,-1,19,18,20,-1,17,16,21,-1,21,16,19,-1,18,17,20,-1,20,17,21,-1,22,23,24,-1,24,23,25,-1,23,26,25,-1,25,26,27,-1,26,28,27,-1,27,28,29,-1,30,31,32,-1,30,32,33,-1,33,32,29,-1,33,29,28,-1,34,35,36,-1,34,36,37,-1,37,36,38,-1,37,38,39,-1,39,38,31,-1,39,31,30,-1,22,24,40,-1,22,40,41,-1,41,40,42,-1,41,42,43,-1,43,42,44,-1,43,44,45,-1,45,44,35,-1,45,35,34,-1,46,47,43,-1,43,47,48,-1,43,48,41,-1,41,48,49,-1,41,49,22,-1,22,49,50,-1,22,50,23,-1,23,50,51,-1,23,51,26,-1,26,51,52,-1,26,52,28,-1,28,52,53,-1,28,53,33,-1,33,53,54,-1,33,54,30,-1,30,54,55,-1,30,55,39,-1,39,55,56,-1,39,56,37,-1,37,56,57,-1,37,57,34,-1,34,57,58,-1,34,58,45,-1,45,58,46,-1,45,46,43,-1,52,51,59,-1,59,51,60,-1,53,52,61,-1,61,52,59,-1,53,61,62,-1,53,62,54,-1,54,62,63,-1,54,63,55,-1,55,63,64,-1,55,64,56,-1,56,64,65,-1,56,65,57,-1,57,65,66,-1,57,66,58,-1,58,66,67,-1,58,67,46,-1,46,67,68,-1,46,68,47,-1,47,68,69,-1,47,69,48,-1,48,69,70,-1,48,70,49,-1,49,70,71,-1,49,71,50,-1,51,50,60,-1,60,50,71,-1,72,73,74,-1,74,73,75,-1,73,76,75,-1,75,76,77,-1,76,78,77,-1,77,78,79,-1,78,80,79,-1,79,80,81,-1,80,82,81,-1,81,82,83,-1,82,84,83,-1,83,84,85,-1,84,86,85,-1,85,86,87,-1,86,88,87,-1,87,88,89,-1,88,90,89,-1,89,90,91,-1,90,92,91,-1,91,92,93,-1,92,94,93,-1,93,94,95,-1,94,72,95,-1,95,72,74,-1,72,94,92,-1,92,90,72,-1,72,90,88,-1,72,88,73,-1,78,76,80,-1,80,76,73,-1,80,73,82,-1,82,73,88,-1,82,88,84,-1,84,88,86,-1,96,97,98,-1,96,98,99,-1,99,98,100,-1,99,100,101,-1,101,100,102,-1,101,102,103,-1,103,102,104,-1,103,104,105,-1,96,106,97,-1,97,106,107,-1,108,109,110,-1,108,110,111,-1,111,110,112,-1,111,112,113,-1,113,112,114,-1,113,114,115,-1,115,114,107,-1,115,107,106,-1,116,117,118,-1,116,118,119,-1,119,118,120,-1,119,120,121,-1,121,120,122,-1,121,122,123,-1,123,122,109,-1,123,109,108,-1,124,125,126,-1,124,126,127,-1,127,126,128,-1,127,128,129,-1,129,128,130,-1,129,130,131,-1,131,130,117,-1,131,117,116,-1,132,133,134,-1,132,134,135,-1,135,134,125,-1,135,125,124,-1,132,136,133,-1,133,136,137,-1,138,139,140,-1,138,140,141,-1,141,140,142,-1,141,142,143,-1,142,144,143,-1,143,144,145,-1,143,145,146,-1,146,145,137,-1,146,137,136,-1,139,138,147,-1,147,138,148,-1,147,148,149,-1,149,148,150,-1,149,150,151,-1,151,150,152,-1,151,152,153,-1,153,152,154,-1,153,154,155,-1,156,157,158,-1,156,158,159,-1,159,158,155,-1,159,155,154,-1,105,104,160,-1,105,160,161,-1,161,160,162,-1,161,162,163,-1,163,162,164,-1,163,164,165,-1,165,164,157,-1,165,157,156,-1,136,132,146,-1,146,132,135,-1,156,159,131,-1,131,159,129,-1,129,159,154,-1,129,154,152,-1,106,96,99,-1,106,99,115,-1,115,99,101,-1,115,101,103,-1,152,150,129,-1,129,150,148,-1,129,148,127,-1,127,148,138,-1,127,138,124,-1,124,138,141,-1,124,141,135,-1,135,141,143,-1,135,143,146,-1,131,116,156,-1,156,116,119,-1,156,119,165,-1,165,119,121,-1,165,121,163,-1,163,121,123,-1,163,123,161,-1,161,123,108,-1,161,108,105,-1,105,108,111,-1,105,111,103,-1,103,111,113,-1,103,113,115,-1,166,167,168,-1,168,167,169,-1,167,170,169,-1,169,170,171,-1,170,172,171,-1,171,172,173,-1,172,174,173,-1,173,174,175,-1,174,176,175,-1,175,176,177,-1,176,166,177,-1,177,166,168,-1,170,167,172,-1,172,167,166,-1,172,166,174,-1,174,166,176,-1,
        ]
    }
}
Shape{
    appearance Appearance {
        material  Material 	{
            diffuseColor 0.19607843137254902 0.19607843137254902 0.19607843137254902
            specularColor 0.09803921568627451 0.09803921568627451 0.09803921568627451
            ambientIntensity 0.1961
            transparency 0.0
            shininess 0.5
        }
    }
    geometry IndexedFaceSet {
        ccw TRUE
        solid FALSE
        coord DEF co Coordinate {
            point [
                -0.6409 0.1272 0.0394, -0.6123 0.067 0.0394, -0.6686 0.067 0.0394, -0.43 0.1417 0.0394, -0.43 0.0165 0.0394, -0.4411 0.1417 0.0394, -0.4481 0.0165 0.0394, -0.4655 0.141 0.0394, -0.4708 0.0172 0.0394, -0.4895 0.1373 0.0394, -0.4931 0.0206 0.0394, -0.5156 0.0345 0.0394, -0.5285 0.0576 0.0394, -0.531 0.0772 0.0394, -0.5241 0.1086 0.0394, -0.5069 0.1289 0.0394
            ]
        }
        coordIndex [
            0,1,2,-1,3,4,5,-1,5,4,6,-1,5,6,7,-1,7,6,8,-1,7,8,9,-1,10,11,8,-1,8,11,12,-1,8,12,13,-1,13,14,8,-1,8,14,15,-1,8,15,9,-1,
        ]
    }
}